  0
SECTION
  2
HEADER
  9
$ACADVER
  1
AC1024
  9
$ACADMAINTVER
 70
6
  9
$DWGCODEPAGE
  3
ANSI_1252
  9
$LASTSAVEDBY
  1
ezdxf
  9
$INSBASE
 10
0.0
 20
0.0
 30
0.0
  9
$EXTMIN
 10
1e+20
 20
1e+20
 30
1e+20
  9
$EXTMAX
 10
-1e+20
 20
-1e+20
 30
-1e+20
  9
$LIMMIN
 10
0.0
 20
0.0
  9
$LIMMAX
 10
420.0
 20
297.0
  9
$ORTHOMODE
 70
0
  9
$REGENMODE
 70
1
  9
$FILLMODE
 70
1
  9
$QTEXTMODE
 70
0
  9
$MIRRTEXT
 70
1
  9
$LTSCALE
 40
1.0
  9
$ATTMODE
 70
1
  9
$TEXTSIZE
 40
2.5
  9
$TRACEWID
 40
1.0
  9
$TEXTSTYLE
  7
Standard
  9
$CLAYER
  8
0
  9
$CELTYPE
  6
ByLayer
  9
$CECOLOR
 62
256
  9
$CELTSCALE
 40
1.0
  9
$DISPSILH
 70
0
  9
$DIMSCALE
 40
1.0
  9
$DIMASZ
 40
2.5
  9
$DIMEXO
 40
0.625
  9
$DIMDLI
 40
3.75
  9
$DIMRND
 40
0.0
  9
$DIMDLE
 40
0.0
  9
$DIMEXE
 40
1.25
  9
$DIMTP
 40
0.0
  9
$DIMTM
 40
0.0
  9
$DIMTXT
 40
2.5
  9
$DIMCEN
 40
2.5
  9
$DIMTSZ
 40
0.0
  9
$DIMTOL
 70
0
  9
$DIMLIM
 70
0
  9
$DIMTIH
 70
0
  9
$DIMTOH
 70
0
  9
$DIMSE1
 70
0
  9
$DIMSE2
 70
0
  9
$DIMTAD
 70
1
  9
$DIMZIN
 70
8
  9
$DIMBLK
  1

  9
$DIMASO
 70
1
  9
$DIMSHO
 70
1
  9
$DIMPOST
  1

  9
$DIMAPOST
  1

  9
$DIMALT
 70
0
  9
$DIMALTD
 70
3
  9
$DIMALTF
 40
0.03937007874
  9
$DIMLFAC
 40
1.0
  9
$DIMTOFL
 70
1
  9
$DIMTVP
 40
0.0
  9
$DIMTIX
 70
0
  9
$DIMSOXD
 70
0
  9
$DIMSAH
 70
0
  9
$DIMBLK1
  1

  9
$DIMBLK2
  1

  9
$DIMSTYLE
  2
ISO-25
  9
$DIMCLRD
 70
0
  9
$DIMCLRE
 70
0
  9
$DIMCLRT
 70
0
  9
$DIMTFAC
 40
1.0
  9
$DIMGAP
 40
0.625
  9
$DIMJUST
 70
0
  9
$DIMSD1
 70
0
  9
$DIMSD2
 70
0
  9
$DIMTOLJ
 70
0
  9
$DIMTZIN
 70
8
  9
$DIMALTZ
 70
0
  9
$DIMALTTZ
 70
0
  9
$DIMUPT
 70
0
  9
$DIMDEC
 70
2
  9
$DIMTDEC
 70
2
  9
$DIMALTU
 70
2
  9
$DIMALTTD
 70
3
  9
$DIMTXSTY
  7
Standard
  9
$DIMAUNIT
 70
0
  9
$DIMADEC
 70
0
  9
$DIMALTRND
 40
0.0
  9
$DIMAZIN
 70
0
  9
$DIMDSEP
 70
44
  9
$DIMATFIT
 70
3
  9
$DIMFRAC
 70
0
  9
$DIMLDRBLK
  1

  9
$DIMLUNIT
 70
2
  9
$DIMLWD
 70
-2
  9
$DIMLWE
 70
-2
  9
$DIMTMOVE
 70
0
  9
$DIMFXL
 40
1.0
  9
$DIMFXLON
 70
0
  9
$DIMJOGANG
 40
0.785398163397
  9
$DIMTFILL
 70
0
  9
$DIMTFILLCLR
 70
0
  9
$DIMARCSYM
 70
0
  9
$DIMLTYPE
  6

  9
$DIMLTEX1
  6

  9
$DIMLTEX2
  6

  9
$DIMTXTDIRECTION
 70
0
  9
$LUNITS
 70
2
  9
$LUPREC
 70
4
  9
$SKETCHINC
 40
1.0
  9
$FILLETRAD
 40
10.0
  9
$AUNITS
 70
0
  9
$AUPREC
 70
2
  9
$MENU
  1
.
  9
$ELEVATION
 40
0.0
  9
$PELEVATION
 40
0.0
  9
$THICKNESS
 40
0.0
  9
$LIMCHECK
 70
0
  9
$CHAMFERA
 40
0.0
  9
$CHAMFERB
 40
0.0
  9
$CHAMFERC
 40
0.0
  9
$CHAMFERD
 40
0.0
  9
$SKPOLY
 70
0
  9
$TDCREATE
 40
2459445.6702083335
  9
$TDUCREATE
 40
2458532.153996898
  9
$TDUPDATE
 40
2459445.6702083335
  9
$TDUUPDATE
 40
2458532.1544311
  9
$TDINDWG
 40
0.0
  9
$TDUSRTIMER
 40
0.0
  9
$USRTIMER
 70
1
  9
$ANGBASE
 50
0.0
  9
$ANGDIR
 70
0
  9
$PDMODE
 70
0
  9
$PDSIZE
 40
0.0
  9
$PLINEWID
 40
0.0
  9
$SPLFRAME
 70
0
  9
$SPLINETYPE
 70
6
  9
$SPLINESEGS
 70
8
  9
$HANDSEED
  5
AB
  9
$SURFTAB1
 70
6
  9
$SURFTAB2
 70
6
  9
$SURFTYPE
 70
6
  9
$SURFU
 70
6
  9
$SURFV
 70
6
  9
$UCSBASE
  2

  9
$UCSNAME
  2

  9
$UCSORG
 10
0.0
 20
0.0
 30
0.0
  9
$UCSXDIR
 10
1.0
 20
0.0
 30
0.0
  9
$UCSYDIR
 10
0.0
 20
1.0
 30
0.0
  9
$UCSORTHOREF
  2

  9
$UCSORTHOVIEW
 70
0
  9
$UCSORGTOP
 10
0.0
 20
0.0
 30
0.0
  9
$UCSORGBOTTOM
 10
0.0
 20
0.0
 30
0.0
  9
$UCSORGLEFT
 10
0.0
 20
0.0
 30
0.0
  9
$UCSORGRIGHT
 10
0.0
 20
0.0
 30
0.0
  9
$UCSORGFRONT
 10
0.0
 20
0.0
 30
0.0
  9
$UCSORGBACK
 10
0.0
 20
0.0
 30
0.0
  9
$PUCSBASE
  2

  9
$PUCSNAME
  2

  9
$PUCSORG
 10
0.0
 20
0.0
 30
0.0
  9
$PUCSXDIR
 10
1.0
 20
0.0
 30
0.0
  9
$PUCSYDIR
 10
0.0
 20
1.0
 30
0.0
  9
$PUCSORTHOREF
  2

  9
$PUCSORTHOVIEW
 70
0
  9
$PUCSORGTOP
 10
0.0
 20
0.0
 30
0.0
  9
$PUCSORGBOTTOM
 10
0.0
 20
0.0
 30
0.0
  9
$PUCSORGLEFT
 10
0.0
 20
0.0
 30
0.0
  9
$PUCSORGRIGHT
 10
0.0
 20
0.0
 30
0.0
  9
$PUCSORGFRONT
 10
0.0
 20
0.0
 30
0.0
  9
$PUCSORGBACK
 10
0.0
 20
0.0
 30
0.0
  9
$USERI1
 70
0
  9
$USERI2
 70
0
  9
$USERI3
 70
0
  9
$USERI4
 70
0
  9
$USERI5
 70
0
  9
$USERR1
 40
0.0
  9
$USERR2
 40
0.0
  9
$USERR3
 40
0.0
  9
$USERR4
 40
0.0
  9
$USERR5
 40
0.0
  9
$WORLDVIEW
 70
1
  9
$SHADEDGE
 70
3
  9
$SHADEDIF
 70
70
  9
$TILEMODE
 70
1
  9
$MAXACTVP
 70
64
  9
$PINSBASE
 10
0.0
 20
0.0
 30
0.0
  9
$PLIMCHECK
 70
0
  9
$PEXTMIN
 10
1e+20
 20
1e+20
 30
1e+20
  9
$PEXTMAX
 10
-1e+20
 20
-1e+20
 30
-1e+20
  9
$PLIMMIN
 10
0.0
 20
0.0
  9
$PLIMMAX
 10
420.0
 20
297.0
  9
$UNITMODE
 70
0
  9
$VISRETAIN
 70
1
  9
$PLINEGEN
 70
0
  9
$PSLTSCALE
 70
1
  9
$TREEDEPTH
 70
3020
  9
$CMLSTYLE
  2
Standard
  9
$CMLJUST
 70
0
  9
$CMLSCALE
 40
20.0
  9
$PROXYGRAPHICS
 70
1
  9
$MEASUREMENT
 70
1
  9
$CELWEIGHT
370
-1
  9
$ENDCAPS
280
0
  9
$JOINSTYLE
280
0
  9
$LWDISPLAY
290
0
  9
$INSUNITS
 70
6
  9
$HYPERLINKBASE
  1

  9
$STYLESHEET
  1

  9
$XEDIT
290
1
  9
$CEPSNTYPE
380
0
  9
$PSTYLEMODE
290
1
  9
$FINGERPRINTGUID
  2
{88CA21DE-11D8-4009-92A8-586139D3753A}
  9
$VERSIONGUID
  2
{3807EFDB-5FD5-4880-AFC0-F6D9380E21E2}
  9
$EXTNAMES
290
1
  9
$PSVPSCALE
 40
0.0
  9
$OLESTARTUP
290
0
  9
$SORTENTS
280
127
  9
$INDEXCTL
280
0
  9
$HIDETEXT
280
1
  9
$XCLIPFRAME
280
0
  9
$HALOGAP
280
0
  9
$OBSCOLOR
 70
257
  9
$OBSLTYPE
280
0
  9
$INTERSECTIONDISPLAY
280
0
  9
$INTERSECTIONCOLOR
 70
257
  9
$DIMASSOC
280
2
  9
$PROJECTNAME
  1

  9
$CAMERADISPLAY
290
0
  9
$LENSLENGTH
 40
50.0
  9
$CAMERAHEIGHT
 40
0.0
  9
$STEPSPERSEC
 40
24.0
  9
$STEPSIZE
 40
100.0
  9
$3DDWFPREC
 40
2.0
  9
$PSOLWIDTH
 40
0.005
  9
$PSOLHEIGHT
 40
0.08
  9
$LOFTANG1
 40
1.570796326795
  9
$LOFTANG2
 40
1.570796326795
  9
$LOFTMAG1
 40
0.0
  9
$LOFTMAG2
 40
0.0
  9
$LOFTPARAM
 70
7
  9
$LOFTNORMALS
280
1
  9
$LATITUDE
 40
37.795
  9
$LONGITUDE
 40
-122.394
  9
$NORTHDIRECTION
 40
0.0
  9
$TIMEZONE
 70
-8000
  9
$LIGHTGLYPHDISPLAY
280
1
  9
$TILEMODELIGHTSYNCH
280
1
  9
$CMATERIAL
347
20
  9
$SOLIDHIST
280
0
  9
$SHOWHIST
280
1
  9
$DWFFRAME
280
2
  9
$DGNFRAME
280
2
  9
$REALWORLDSCALE
290
1
  9
$INTERFERECOLOR
 62
256
  9
$CSHADOW
280
0
  9
$SHADOWPLANELOCATION
 40
0.0
  0
ENDSEC
  0
SECTION
  2
CLASSES
  0
CLASS
  1
ACDBDICTIONARYWDFLT
  2
AcDbDictionaryWithDefault
  3
ObjectDBX Classes
 90
0
 91
0
280
0
281
0
  0
CLASS
  1
SUN
  2
AcDbSun
  3
SCENEOE
 90
1153
 91
0
280
0
281
0
  0
CLASS
  1
VISUALSTYLE
  2
AcDbVisualStyle
  3
ObjectDBX Classes
 90
4095
 91
0
280
0
281
0
  0
CLASS
  1
MATERIAL
  2
AcDbMaterial
  3
ObjectDBX Classes
 90
1153
 91
0
280
0
281
0
  0
CLASS
  1
SCALE
  2
AcDbScale
  3
ObjectDBX Classes
 90
1153
 91
0
280
0
281
0
  0
CLASS
  1
TABLESTYLE
  2
AcDbTableStyle
  3
ObjectDBX Classes
 90
4095
 91
0
280
0
281
0
  0
CLASS
  1
MLEADERSTYLE
  2
AcDbMLeaderStyle
  3
ACDB_MLEADERSTYLE_CLASS
 90
4095
 91
0
280
0
281
0
  0
CLASS
  1
DICTIONARYVAR
  2
AcDbDictionaryVar
  3
ObjectDBX Classes
 90
0
 91
0
280
0
281
0
  0
CLASS
  1
CELLSTYLEMAP
  2
AcDbCellStyleMap
  3
ObjectDBX Classes
 90
1152
 91
0
280
0
281
0
  0
CLASS
  1
MENTALRAYRENDERSETTINGS
  2
AcDbMentalRayRenderSettings
  3
SCENEOE
 90
1024
 91
0
280
0
281
0
  0
CLASS
  1
ACDBDETAILVIEWSTYLE
  2
AcDbDetailViewStyle
  3
ObjectDBX Classes
 90
1025
 91
0
280
0
281
0
  0
CLASS
  1
ACDBSECTIONVIEWSTYLE
  2
AcDbSectionViewStyle
  3
ObjectDBX Classes
 90
1025
 91
0
280
0
281
0
  0
CLASS
  1
RASTERVARIABLES
  2
AcDbRasterVariables
  3
ISM
 90
0
 91
0
280
0
281
0
  0
CLASS
  1
LAYOUT
  2
AcDbLayout
  3
ObjectDBX Classes
 90
0
 91
0
280
0
281
0
  0
CLASS
  1
ACDBPLACEHOLDER
  2
AcDbPlaceHolder
  3
ObjectDBX Classes
 90
0
 91
0
280
0
281
0
  0
ENDSEC
  0
SECTION
  2
TABLES
  0
TABLE
  2
VPORT
  5
8
330
0
100
AcDbSymbolTable
 70
1
  0
VPORT
  5
23
330
8
100
AcDbSymbolTableRecord
100
AcDbViewportTableRecord
  2
*Active
 70
0
 10
0.0
 20
0.0
 11
1.0
 21
1.0
 12
344.2
 22
148.5
 13
0.0
 23
0.0
 14
0.5
 24
0.5
 15
0.5
 25
0.5
 16
0.0
 26
0.0
 36
1.0
 17
0.0
 27
0.0
 37
0.0
 40
297.0
 41
1.34
 42
50.0
 43
0.0
 44
0.0
 50
0.0
 51
0.0
 71
0
 72
1000
 73
1
 74
3
 75
0
 76
0
 77
0
 78
0
281
0
 65
0
146
0.0
  0
ENDTAB
  0
TABLE
  2
LTYPE
  5
2
330
0
100
AcDbSymbolTable
 70
3
  0
LTYPE
  5
24
330
2
100
AcDbSymbolTableRecord
100
AcDbLinetypeTableRecord
  2
ByBlock
 70
0
  3

 72
65
 73
0
 40
0.0
  0
LTYPE
  5
25
330
2
100
AcDbSymbolTableRecord
100
AcDbLinetypeTableRecord
  2
ByLayer
 70
0
  3

 72
65
 73
0
 40
0.0
  0
LTYPE
  5
26
330
2
100
AcDbSymbolTableRecord
100
AcDbLinetypeTableRecord
  2
Continuous
 70
0
  3

 72
65
 73
0
 40
0.0
  0
ENDTAB
  0
TABLE
  2
LAYER
  5
1
330
0
100
AcDbSymbolTable
 70
2
  0
LAYER
  5
27
330
1
100
AcDbSymbolTableRecord
100
AcDbLayerTableRecord
  2
0
 70
0
 62
7
  6
Continuous
370
-3
390
13
347
21
  0
LAYER
  5
28
330
1
100
AcDbSymbolTableRecord
100
AcDbLayerTableRecord
  2
Defpoints
 70
0
 62
7
  6
Continuous
290
0
370
-3
390
13
347
21
  0
ENDTAB
  0
TABLE
  2
STYLE
  5
5
330
0
100
AcDbSymbolTable
 70
1
  0
STYLE
  5
29
330
5
100
AcDbSymbolTableRecord
100
AcDbTextStyleTableRecord
  2
Standard
 70
0
 40
0.0
 41
1.0
 50
0.0
 71
0
 42
2.5
  3
txt
  4

  0
ENDTAB
  0
TABLE
  2
VIEW
  5
7
330
0
100
AcDbSymbolTable
 70
0
  0
ENDTAB
  0
TABLE
  2
UCS
  5
6
330
0
100
AcDbSymbolTable
 70
0
  0
ENDTAB
  0
TABLE
  2
APPID
  5
3
330
0
100
AcDbSymbolTable
 70
3
  0
APPID
  5
2A
330
3
100
AcDbSymbolTableRecord
100
AcDbRegAppTableRecord
  2
ACAD
 70
0
  0
APPID
  5
A8
330
3
100
AcDbSymbolTableRecord
100
AcDbRegAppTableRecord
  2
HATCHBACKGROUNDCOLOR
 70
0
  0
APPID
  5
A9
330
3
100
AcDbSymbolTableRecord
100
AcDbRegAppTableRecord
  2
EZDXF
 70
0
  0
ENDTAB
  0
TABLE
  2
DIMSTYLE
  5
4
330
0
100
AcDbSymbolTable
 70
1
100
AcDbDimStyleTable
  0
DIMSTYLE
105
2B
330
4
100
AcDbSymbolTableRecord
100
AcDbDimStyleTableRecord
  2
Standard
 70
0
 40
1.0
 41
2.5
 42
0.625
 43
3.75
 44
1.25
 45
0.0
 46
0.0
 47
0.0
 48
0.0
 49
2.5
140
2.5
141
2.5
142
0.0
143
0.03937007874
144
1.0
145
0.0
146
1.0
147
0.625
148
0.0
 69
0
 70
0
 71
0
 72
0
 73
0
 74
0
 75
0
 76
0
 77
1
 78
8
 79
0
170
0
171
3
172
1
173
0
174
0
175
0
176
0
177
0
178
0
179
0
271
0
272
2
273
2
274
3
275
0
276
0
277
2
278
44
279
0
280
0
281
0
282
0
283
0
284
8
285
0
286
0
288
0
289
3
290
0
371
-2
372
-2
  0
ENDTAB
  0
TABLE
  2
BLOCK_RECORD
  5
9
330
0
100
AcDbSymbolTable
 70
2
  0
BLOCK_RECORD
  5
17
330
9
100
AcDbSymbolTableRecord
100
AcDbBlockTableRecord
  2
*Model_Space
340
1A
 70
0
280
1
281
0
  0
BLOCK_RECORD
  5
1B
330
9
100
AcDbSymbolTableRecord
100
AcDbBlockTableRecord
  2
*Paper_Space
340
1E
 70
0
280
1
281
0
  0
ENDTAB
  0
ENDSEC
  0
SECTION
  2
BLOCKS
  0
BLOCK
  5
18
330
17
100
AcDbEntity
  8
0
100
AcDbBlockBegin
  2
*Model_Space
 70
0
 10
0.0
 20
0.0
 30
0.0
  3
*Model_Space
  1

  0
ENDBLK
  5
19
330
17
100
AcDbEntity
  8
0
100
AcDbBlockEnd
  0
BLOCK
  5
1C
330
1B
100
AcDbEntity
  8
0
100
AcDbBlockBegin
  2
*Paper_Space
 70
0
 10
0.0
 20
0.0
 30
0.0
  3
*Paper_Space
  1

  0
ENDBLK
  5
1D
330
1B
100
AcDbEntity
  8
0
100
AcDbBlockEnd
  0
ENDSEC
  0
SECTION
  2
ENTITIES
  0
LWPOLYLINE
  5
2F
330
17
100
AcDbEntity
  8
0
100
AcDbPolyline
 90
5
 70
0
 10
105.47592363336098
 20
-27.475923633360985
 10
-69.47592363336099
 20
-27.475923633360985
 10
-69.47592363336099
 20
27.475923633360985
 10
105.47592363336098
 20
27.475923633360985
 10
105.47592363336098
 20
-27.475923633360985
  0
LWPOLYLINE
  5
30
330
17
100
AcDbEntity
  8
0
100
AcDbPolyline
 90
10
 70
0
 10
-0.649999999982204
 20
-7.448999997846966
 10
-0.6499999999991068
 20
6.750000002152563
 10
-0.6499999999999388
 20
7.449000002152623
 10
-0.7489999999999393
 20
7.449000002152515
 10
-0.7499999999999388
 20
7.4490000021525145
 10
-0.7499999999991068
 20
6.750000002152444
 10
-0.749999999982204
 20
-7.448999997846966
 10
-0.7499999999822028
 20
-7.448999997846966
 10
-0.7489999999822028
 20
-7.448999997846966
 10
-0.649999999982204
 20
-7.448999997846966
  0
LWPOLYLINE
  5
31
330
17
100
AcDbEntity
  8
0
100
AcDbPolyline
 90
9
 70
0
 10
-23.350000000008883
 20
7.448999993603333
 10
-23.349999999991976
 20
-6.749999997843849
 10
-23.34999999999114
 20
-7.448999997845923
 10
-23.250999999991137
 20
-7.448999997846121
 10
-23.24999999999114
 20
-7.448999997846123
 10
-23.249999999991974
 20
-6.74999999784373
 10
-23.250000000008882
 20
7.448999993966311
 10
-23.25100000000888
 20
7.448999993962425
 10
-23.350000000008883
 20
7.448999993603333
  0
LWPOLYLINE
  5
32
330
17
100
AcDbEntity
  8
0
100
AcDbPolyline
 90
33
 70
0
 10
100.5
 20
-20.0
 10
100.45196320100807
 20
-19.512274194959673
 10
100.30969883127821
 20
-19.04329141908727
 10
100.07867403075636
 20
-18.61107441745099
 10
99.76776695296637
 20
-18.232233047033628
 10
99.38892558254899
 20
-17.921325969243632
 10
98.95670858091272
 20
-17.69030116872178
 10
98.48772580504031
 20
-17.548036798991923
 10
97.99999999999999
 20
-17.5
 10
97.51227419495967
 20
-17.548036798991927
 10
97.04329141908727
 20
-17.69030116872179
 10
96.61107441745098
 20
-17.921325969243643
 10
96.23223304703362
 20
-18.23223304703364
 10
95.92132596924363
 20
-18.611074417451004
 10
95.69030116872177
 20
-19.043291419087286
 10
95.54803679899192
 20
-19.512274194959687
 10
95.5
 20
-20.000000000000007
 10
95.54803679899193
 20
-20.487725805040327
 10
95.69030116872179
 20
-20.956708580912732
 10
95.92132596924364
 20
-21.38892558254901
 10
96.23223304703363
 20
-21.767766952966372
 10
96.611074417451
 20
-22.078674030756368
 10
97.04329141908728
 20
-22.30969883127822
 10
97.51227419495969
 20
-22.451963201008077
 10
98.0
 20
-22.5
 10
98.48772580504033
 20
-22.451963201008077
 10
98.95670858091273
 20
-22.309698831278215
 10
99.388925582549
 20
-22.07867403075636
 10
99.76776695296637
 20
-21.76776695296637
 10
100.07867403075636
 20
-21.388925582549003
 10
100.30969883127821
 20
-20.956708580912725
 10
100.45196320100807
 20
-20.48772580504032
 10
100.5
 20
-20.0
  0
LWPOLYLINE
  5
33
330
17
100
AcDbEntity
  8
0
100
AcDbPolyline
 90
33
 70
0
 10
-59.5
 20
-20.0
 10
-59.54803679899192
 20
-19.512274194959673
 10
-59.69030116872179
 20
-19.04329141908727
 10
-59.92132596924364
 20
-18.61107441745099
 10
-60.23223304703364
 20
-18.232233047033628
 10
-60.611074417451
 20
-17.921325969243632
 10
-61.04329141908728
 20
-17.69030116872178
 10
-61.51227419495969
 20
-17.548036798991923
 10
-62.00000000000001
 20
-17.5
 10
-62.48772580504033
 20
-17.548036798991927
 10
-62.95670858091273
 20
-17.69030116872179
 10
-63.388925582549014
 20
-17.921325969243643
 10
-63.767766952966376
 20
-18.23223304703364
 10
-64.07867403075637
 20
-18.611074417451004
 10
-64.30969883127823
 20
-19.043291419087286
 10
-64.45196320100808
 20
-19.512274194959687
 10
-64.5
 20
-20.000000000000007
 10
-64.45196320100807
 20
-20.487725805040327
 10
-64.30969883127821
 20
-20.956708580912732
 10
-64.07867403075636
 20
-21.38892558254901
 10
-63.76776695296636
 20
-21.767766952966372
 10
-63.388925582549
 20
-22.078674030756368
 10
-62.95670858091272
 20
-22.30969883127822
 10
-62.48772580504031
 20
-22.451963201008077
 10
-61.99999999999999
 20
-22.5
 10
-61.51227419495967
 20
-22.451963201008077
 10
-61.043291419087275
 20
-22.309698831278215
 10
-60.61107441745099
 20
-22.07867403075636
 10
-60.23223304703363
 20
-21.76776695296637
 10
-59.92132596924364
 20
-21.388925582549003
 10
-59.69030116872178
 20
-20.956708580912725
 10
-59.54803679899192
 20
-20.48772580504032
 10
-59.5
 20
-20.0
  0
LWPOLYLINE
  5
34
330
17
100
AcDbEntity
  8
0
100
AcDbPolyline
 90
33
 70
0
 10
100.5
 20
20.0
 10
100.45196320100807
 20
20.487725805040327
 10
100.30969883127821
 20
20.95670858091273
 10
100.07867403075636
 20
21.38892558254901
 10
99.76776695296637
 20
21.767766952966372
 10
99.38892558254899
 20
22.078674030756368
 10
98.95670858091272
 20
22.30969883127822
 10
98.48772580504031
 20
22.451963201008077
 10
97.99999999999999
 20
22.5
 10
97.51227419495967
 20
22.451963201008073
 10
97.04329141908727
 20
22.30969883127821
 10
96.61107441745098
 20
22.078674030756357
 10
96.23223304703362
 20
21.76776695296636
 10
95.92132596924363
 20
21.388925582548996
 10
95.69030116872177
 20
20.956708580912714
 10
95.54803679899192
 20
20.487725805040313
 10
95.5
 20
19.999999999999993
 10
95.54803679899193
 20
19.512274194959673
 10
95.69030116872179
 20
19.043291419087268
 10
95.92132596924364
 20
18.61107441745099
 10
96.23223304703363
 20
18.232233047033628
 10
96.611074417451
 20
17.921325969243632
 10
97.04329141908728
 20
17.69030116872178
 10
97.51227419495969
 20
17.548036798991923
 10
98.0
 20
17.5
 10
98.48772580504033
 20
17.548036798991923
 10
98.95670858091273
 20
17.690301168721785
 10
99.388925582549
 20
17.92132596924364
 10
99.76776695296637
 20
18.23223304703363
 10
100.07867403075636
 20
18.611074417450997
 10
100.30969883127821
 20
19.043291419087275
 10
100.45196320100807
 20
19.51227419495968
 10
100.5
 20
20.0
  0
LWPOLYLINE
  5
35
330
17
100
AcDbEntity
  8
0
100
AcDbPolyline
 90
33
 70
0
 10
-59.5
 20
20.0
 10
-59.54803679899192
 20
20.487725805040327
 10
-59.69030116872179
 20
20.95670858091273
 10
-59.92132596924364
 20
21.38892558254901
 10
-60.23223304703364
 20
21.767766952966372
 10
-60.611074417451
 20
22.078674030756368
 10
-61.04329141908728
 20
22.30969883127822
 10
-61.51227419495969
 20
22.451963201008077
 10
-62.00000000000001
 20
22.5
 10
-62.48772580504033
 20
22.451963201008073
 10
-62.95670858091273
 20
22.30969883127821
 10
-63.388925582549014
 20
22.078674030756357
 10
-63.767766952966376
 20
21.76776695296636
 10
-64.07867403075637
 20
21.388925582548996
 10
-64.30969883127823
 20
20.956708580912714
 10
-64.45196320100808
 20
20.487725805040313
 10
-64.5
 20
19.999999999999993
 10
-64.45196320100807
 20
19.512274194959673
 10
-64.30969883127821
 20
19.043291419087268
 10
-64.07867403075636
 20
18.61107441745099
 10
-63.76776695296636
 20
18.232233047033628
 10
-63.388925582549
 20
17.921325969243632
 10
-62.95670858091272
 20
17.69030116872178
 10
-62.48772580504031
 20
17.548036798991923
 10
-61.99999999999999
 20
17.5
 10
-61.51227419495967
 20
17.548036798991923
 10
-61.043291419087275
 20
17.690301168721785
 10
-60.61107441745099
 20
17.92132596924364
 10
-60.23223304703363
 20
18.23223304703363
 10
-59.92132596924364
 20
18.611074417450997
 10
-59.69030116872178
 20
19.043291419087275
 10
-59.54803679899192
 20
19.51227419495968
 10
-59.5
 20
20.0
  0
LWPOLYLINE
  5
36
330
17
100
AcDbEntity
  8
0
100
AcDbPolyline
 90
5
 70
0
 10
105.47592363336098
 20
37.475923633360985
 10
-69.47592363336099
 20
37.475923633360985
 10
-69.47592363336099
 20
92.42777090008295
 10
105.47592363336098
 20
92.42777090008295
 10
105.47592363336098
 20
37.475923633360985
  0
LWPOLYLINE
  5
37
330
17
100
AcDbEntity
  8
0
100
AcDbPolyline
 90
10
 70
0
 10
-0.649999999982204
 20
57.502847268875
 10
-0.6499999999991068
 20
71.70184726887453
 10
-0.6499999999999388
 20
72.4008472688746
 10
-0.7489999999999393
 20
72.40084726887449
 10
-0.7499999999999388
 20
72.40084726887449
 10
-0.7499999999991068
 20
71.70184726887442
 10
-0.749999999982204
 20
57.502847268875
 10
-0.7499999999822028
 20
57.502847268875
 10
-0.7489999999822028
 20
57.502847268875
 10
-0.649999999982204
 20
57.502847268875
  0
LWPOLYLINE
  5
38
330
17
100
AcDbEntity
  8
0
100
AcDbPolyline
 90
9
 70
0
 10
-23.350000000008883
 20
72.4008472603253
 10
-23.349999999991976
 20
58.20184726887812
 10
-23.34999999999114
 20
57.502847268876046
 10
-23.250999999991137
 20
57.50284726887585
 10
-23.24999999999114
 20
57.50284726887585
 10
-23.249999999991974
 20
58.20184726887824
 10
-23.250000000008882
 20
72.40084726068828
 10
-23.25100000000888
 20
72.4008472606844
 10
-23.350000000008883
 20
72.4008472603253
  0
LWPOLYLINE
  5
39
330
17
100
AcDbEntity
  8
0
100
AcDbPolyline
 90
33
 70
0
 10
100.5
 20
44.95184726672197
 10
100.45196320100807
 20
45.4395730717623
 10
100.30969883127821
 20
45.9085558476347
 10
100.07867403075636
 20
46.34077284927098
 10
99.76776695296637
 20
46.71961421968834
 10
99.38892558254899
 20
47.03052129747834
 10
98.95670858091272
 20
47.26154609800019
 10
98.48772580504031
 20
47.40381046773005
 10
97.99999999999999
 20
47.45184726672197
 10
97.51227419495967
 20
47.40381046773004
 10
97.04329141908727
 20
47.26154609800018
 10
96.61107441745098
 20
47.03052129747833
 10
96.23223304703362
 20
46.71961421968833
 10
95.92132596924363
 20
46.34077284927096
 10
95.69030116872177
 20
45.90855584763469
 10
95.54803679899192
 20
45.43957307176228
 10
95.5
 20
44.95184726672196
 10
95.54803679899193
 20
44.46412146168164
 10
95.69030116872179
 20
43.99513868580924
 10
95.92132596924364
 20
43.56292168417296
 10
96.23223304703363
 20
43.1840803137556
 10
96.611074417451
 20
42.8731732359656
 10
97.04329141908728
 20
42.64214843544375
 10
97.51227419495969
 20
42.49988406571389
 10
98.0
 20
42.45184726672197
 10
98.48772580504033
 20
42.49988406571389
 10
98.95670858091273
 20
42.64214843544376
 10
99.388925582549
 20
42.87317323596561
 10
99.76776695296637
 20
43.1840803137556
 10
100.07867403075636
 20
43.56292168417296
 10
100.30969883127821
 20
43.995138685809245
 10
100.45196320100807
 20
44.46412146168165
 10
100.5
 20
44.95184726672197
  0
LWPOLYLINE
  5
3A
330
17
100
AcDbEntity
  8
0
100
AcDbPolyline
 90
33
 70
0
 10
-59.5
 20
44.95184726672197
 10
-59.54803679899192
 20
45.4395730717623
 10
-59.69030116872179
 20
45.9085558476347
 10
-59.92132596924364
 20
46.34077284927098
 10
-60.23223304703364
 20
46.71961421968834
 10
-60.611074417451
 20
47.03052129747834
 10
-61.04329141908728
 20
47.26154609800019
 10
-61.51227419495969
 20
47.40381046773005
 10
-62.00000000000001
 20
47.45184726672197
 10
-62.48772580504033
 20
47.40381046773004
 10
-62.95670858091273
 20
47.26154609800018
 10
-63.388925582549014
 20
47.03052129747833
 10
-63.767766952966376
 20
46.71961421968833
 10
-64.07867403075637
 20
46.34077284927096
 10
-64.30969883127823
 20
45.90855584763469
 10
-64.45196320100808
 20
45.43957307176228
 10
-64.5
 20
44.95184726672196
 10
-64.45196320100807
 20
44.46412146168164
 10
-64.30969883127821
 20
43.99513868580924
 10
-64.07867403075636
 20
43.56292168417296
 10
-63.76776695296636
 20
43.1840803137556
 10
-63.388925582549
 20
42.8731732359656
 10
-62.95670858091272
 20
42.64214843544375
 10
-62.48772580504031
 20
42.49988406571389
 10
-61.99999999999999
 20
42.45184726672197
 10
-61.51227419495967
 20
42.49988406571389
 10
-61.043291419087275
 20
42.64214843544376
 10
-60.61107441745099
 20
42.87317323596561
 10
-60.23223304703363
 20
43.1840803137556
 10
-59.92132596924364
 20
43.56292168417296
 10
-59.69030116872178
 20
43.995138685809245
 10
-59.54803679899192
 20
44.46412146168165
 10
-59.5
 20
44.95184726672197
  0
LWPOLYLINE
  5
3B
330
17
100
AcDbEntity
  8
0
100
AcDbPolyline
 90
33
 70
0
 10
100.5
 20
84.95184726672197
 10
100.45196320100807
 20
85.4395730717623
 10
100.30969883127821
 20
85.9085558476347
 10
100.07867403075636
 20
86.34077284927098
 10
99.76776695296637
 20
86.71961421968834
 10
99.38892558254899
 20
87.03052129747834
 10
98.95670858091272
 20
87.2615460980002
 10
98.48772580504031
 20
87.40381046773004
 10
97.99999999999999
 20
87.45184726672197
 10
97.51227419495967
 20
87.40381046773004
 10
97.04329141908727
 20
87.26154609800018
 10
96.61107441745098
 20
87.03052129747833
 10
96.23223304703362
 20
86.71961421968834
 10
95.92132596924363
 20
86.34077284927096
 10
95.69030116872177
 20
85.90855584763469
 10
95.54803679899192
 20
85.43957307176228
 10
95.5
 20
84.95184726672196
 10
95.54803679899193
 20
84.46412146168164
 10
95.69030116872179
 20
83.99513868580924
 10
95.92132596924364
 20
83.56292168417296
 10
96.23223304703363
 20
83.1840803137556
 10
96.611074417451
 20
82.8731732359656
 10
97.04329141908728
 20
82.64214843544374
 10
97.51227419495969
 20
82.4998840657139
 10
98.0
 20
82.45184726672197
 10
98.48772580504033
 20
82.4998840657139
 10
98.95670858091273
 20
82.64214843544376
 10
99.388925582549
 20
82.87317323596561
 10
99.76776695296637
 20
83.1840803137556
 10
100.07867403075636
 20
83.56292168417296
 10
100.30969883127821
 20
83.99513868580925
 10
100.45196320100807
 20
84.46412146168166
 10
100.5
 20
84.95184726672197
  0
LWPOLYLINE
  5
3C
330
17
100
AcDbEntity
  8
0
100
AcDbPolyline
 90
33
 70
0
 10
-59.5
 20
84.95184726672197
 10
-59.54803679899192
 20
85.4395730717623
 10
-59.69030116872179
 20
85.9085558476347
 10
-59.92132596924364
 20
86.34077284927098
 10
-60.23223304703364
 20
86.71961421968834
 10
-60.611074417451
 20
87.03052129747834
 10
-61.04329141908728
 20
87.2615460980002
 10
-61.51227419495969
 20
87.40381046773004
 10
-62.00000000000001
 20
87.45184726672197
 10
-62.48772580504033
 20
87.40381046773004
 10
-62.95670858091273
 20
87.26154609800018
 10
-63.388925582549014
 20
87.03052129747833
 10
-63.767766952966376
 20
86.71961421968834
 10
-64.07867403075637
 20
86.34077284927096
 10
-64.30969883127823
 20
85.90855584763469
 10
-64.45196320100808
 20
85.43957307176228
 10
-64.5
 20
84.95184726672196
 10
-64.45196320100807
 20
84.46412146168164
 10
-64.30969883127821
 20
83.99513868580924
 10
-64.07867403075636
 20
83.56292168417296
 10
-63.76776695296636
 20
83.1840803137556
 10
-63.388925582549
 20
82.8731732359656
 10
-62.95670858091272
 20
82.64214843544374
 10
-62.48772580504031
 20
82.4998840657139
 10
-61.99999999999999
 20
82.45184726672197
 10
-61.51227419495967
 20
82.4998840657139
 10
-61.043291419087275
 20
82.64214843544376
 10
-60.61107441745099
 20
82.87317323596561
 10
-60.23223304703363
 20
83.1840803137556
 10
-59.92132596924364
 20
83.56292168417296
 10
-59.69030116872178
 20
83.99513868580925
 10
-59.54803679899192
 20
84.46412146168166
 10
-59.5
 20
84.95184726672197
  0
LWPOLYLINE
  5
3D
330
17
100
AcDbEntity
  8
0
100
AcDbPolyline
 90
5
 70
0
 10
105.47592363336098
 20
102.42777090008295
 10
-69.47592363336099
 20
102.42777090008295
 10
-69.47592363336099
 20
157.37961816680493
 10
105.47592363336098
 20
157.37961816680493
 10
105.47592363336098
 20
102.42777090008295
  0
LWPOLYLINE
  5
3E
330
17
100
AcDbEntity
  8
0
100
AcDbPolyline
 90
11
 70
0
 10
0.0499999999990583
 20
122.35369453559697
 10
0.05
 20
122.35369453559697
 10
1.9499999999999984
 20
122.35369453559697
 10
1.949999999999997
 20
114.95469453344394
 10
2.0489999999999973
 20
114.95469453344394
 10
2.049999999999997
 20
114.95469453344394
 10
2.0499999999999985
 20
122.45369453559697
 10
0.051000000000000004
 20
122.45369453559697
 10
0.051000000000000004
 20
122.35510874915995
 10
0.050707106781020465
 20
122.3544016423786
 10
0.0499999999990583
 20
122.35369453559697
  0
LWPOLYLINE
  5
3F
330
17
100
AcDbEntity
  8
0
100
AcDbPolyline
 90
7
 70
0
 10
18.050000298023225
 20
114.95469453344394
 10
18.050000298023225
 20
144.85269453344392
 10
17.95100029802322
 20
144.85269453344392
 10
17.950000298023223
 20
144.85269453344395
 10
17.950000298023223
 20
114.95469453344394
 10
17.951000298023217
 20
114.95469453344394
 10
18.050000298023225
 20
114.95469453344394
  0
LWPOLYLINE
  5
40
330
17
100
AcDbEntity
  8
0
100
AcDbPolyline
 90
16
 70
0
 10
1.9499999999999993
 20
144.85269453344392
 10
1.9499999999999993
 20
137.4536945355973
 10
0.24999999999994235
 20
137.45369453559758
 10
0.049999999999937005
 20
137.45369453559735
 10
0.05070710678118618
 20
137.4529874288161
 10
0.05099999999999959
 20
137.4522803220349
 10
0.051000000000000004
 20
137.40369453559728
 10
0.05099999999990076
 20
137.35469453559733
 10
0.051000000000000004
 20
137.35369453564405
 10
0.050999999953296335
 20
137.35369453559733
 10
0.2500000000000599
 20
137.35369453559758
 10
0.2500000000000599
 20
137.35369453559727
 10
2.0499999999999994
 20
137.35369453559727
 10
2.0499999999999994
 20
144.85269453344395
 10
2.0490000000000013
 20
144.85269453344392
 10
1.9499999999999993
 20
144.85269453344392
  0
LWPOLYLINE
  5
41
330
17
100
AcDbEntity
  8
0
100
AcDbPolyline
 90
7
 70
0
 10
-42.04999999999107
 20
137.35269452464394
 10
-42.04999999999107
 20
122.45469453555519
 10
-41.950999999972176
 20
122.45469453555421
 10
-41.94999999999107
 20
122.45469453555421
 10
-41.94999999999107
 20
137.35269452464394
 10
-41.950999999991076
 20
137.35269452464394
 10
-42.04999999999107
 20
137.35269452464394
  0
LWPOLYLINE
  5
42
330
17
100
AcDbEntity
  8
0
100
AcDbPolyline
 90
33
 70
0
 10
100.5
 20
109.90369453344394
 10
100.45196320100807
 20
110.39142033848427
 10
100.30969883127821
 20
110.86040311435667
 10
100.07867403075636
 20
111.29262011599295
 10
99.76776695296637
 20
111.67146148641031
 10
99.38892558254899
 20
111.9823685642003
 10
98.95670858091272
 20
112.21339336472215
 10
98.48772580504031
 20
112.35565773445202
 10
97.99999999999999
 20
112.40369453344394
 10
97.51227419495967
 20
112.35565773445201
 10
97.04329141908727
 20
112.21339336472215
 10
96.61107441745098
 20
111.9823685642003
 10
96.23223304703362
 20
111.6714614864103
 10
95.92132596924363
 20
111.29262011599293
 10
95.69030116872177
 20
110.86040311435666
 10
95.54803679899192
 20
110.39142033848425
 10
95.5
 20
109.90369453344394
 10
95.54803679899193
 20
109.41596872840361
 10
95.69030116872179
 20
108.94698595253121
 10
95.92132596924364
 20
108.51476895089493
 10
96.23223304703363
 20
108.13592758047757
 10
96.611074417451
 20
107.82502050268758
 10
97.04329141908728
 20
107.59399570216573
 10
97.51227419495969
 20
107.45173133243586
 10
98.0
 20
107.40369453344394
 10
98.48772580504033
 20
107.45173133243586
 10
98.95670858091273
 20
107.59399570216573
 10
99.388925582549
 20
107.82502050268758
 10
99.76776695296637
 20
108.13592758047757
 10
100.07867403075636
 20
108.51476895089493
 10
100.30969883127821
 20
108.94698595253121
 10
100.45196320100807
 20
109.41596872840361
 10
100.5
 20
109.90369453344394
  0
LWPOLYLINE
  5
43
330
17
100
AcDbEntity
  8
0
100
AcDbPolyline
 90
33
 70
0
 10
-59.5
 20
109.90369453344394
 10
-59.54803679899192
 20
110.39142033848427
 10
-59.69030116872179
 20
110.86040311435667
 10
-59.92132596924364
 20
111.29262011599295
 10
-60.23223304703364
 20
111.67146148641031
 10
-60.611074417451
 20
111.9823685642003
 10
-61.04329141908728
 20
112.21339336472215
 10
-61.51227419495969
 20
112.35565773445202
 10
-62.00000000000001
 20
112.40369453344394
 10
-62.48772580504033
 20
112.35565773445201
 10
-62.95670858091273
 20
112.21339336472215
 10
-63.388925582549014
 20
111.9823685642003
 10
-63.767766952966376
 20
111.6714614864103
 10
-64.07867403075637
 20
111.29262011599293
 10
-64.30969883127823
 20
110.86040311435666
 10
-64.45196320100808
 20
110.39142033848425
 10
-64.5
 20
109.90369453344394
 10
-64.45196320100807
 20
109.41596872840361
 10
-64.30969883127821
 20
108.94698595253121
 10
-64.07867403075636
 20
108.51476895089493
 10
-63.76776695296636
 20
108.13592758047757
 10
-63.388925582549
 20
107.82502050268758
 10
-62.95670858091272
 20
107.59399570216573
 10
-62.48772580504031
 20
107.45173133243586
 10
-61.99999999999999
 20
107.40369453344394
 10
-61.51227419495967
 20
107.45173133243586
 10
-61.043291419087275
 20
107.59399570216573
 10
-60.61107441745099
 20
107.82502050268758
 10
-60.23223304703363
 20
108.13592758047757
 10
-59.92132596924364
 20
108.51476895089493
 10
-59.69030116872178
 20
108.94698595253121
 10
-59.54803679899192
 20
109.41596872840361
 10
-59.5
 20
109.90369453344394
  0
LWPOLYLINE
  5
44
330
17
100
AcDbEntity
  8
0
100
AcDbPolyline
 90
33
 70
0
 10
100.5
 20
149.90369453344394
 10
100.45196320100807
 20
150.39142033848427
 10
100.30969883127821
 20
150.86040311435667
 10
100.07867403075636
 20
151.29262011599295
 10
99.76776695296637
 20
151.67146148641032
 10
99.38892558254899
 20
151.9823685642003
 10
98.95670858091272
 20
152.21339336472215
 10
98.48772580504031
 20
152.35565773445202
 10
97.99999999999999
 20
152.40369453344394
 10
97.51227419495967
 20
152.35565773445202
 10
97.04329141908727
 20
152.21339336472215
 10
96.61107441745098
 20
151.9823685642003
 10
96.23223304703362
 20
151.6714614864103
 10
95.92132596924363
 20
151.29262011599295
 10
95.69030116872177
 20
150.86040311435664
 10
95.54803679899192
 20
150.39142033848424
 10
95.5
 20
149.90369453344394
 10
95.54803679899193
 20
149.4159687284036
 10
95.69030116872179
 20
148.9469859525312
 10
95.92132596924364
 20
148.51476895089493
 10
96.23223304703363
 20
148.13592758047756
 10
96.611074417451
 20
147.82502050268758
 10
97.04329141908728
 20
147.59399570216573
 10
97.51227419495969
 20
147.45173133243586
 10
98.0
 20
147.40369453344394
 10
98.48772580504033
 20
147.45173133243586
 10
98.95670858091273
 20
147.59399570216573
 10
99.388925582549
 20
147.82502050268758
 10
99.76776695296637
 20
148.13592758047758
 10
100.07867403075636
 20
148.51476895089493
 10
100.30969883127821
 20
148.9469859525312
 10
100.45196320100807
 20
149.4159687284036
 10
100.5
 20
149.90369453344394
  0
LWPOLYLINE
  5
45
330
17
100
AcDbEntity
  8
0
100
AcDbPolyline
 90
33
 70
0
 10
-59.5
 20
149.90369453344394
 10
-59.54803679899192
 20
150.39142033848427
 10
-59.69030116872179
 20
150.86040311435667
 10
-59.92132596924364
 20
151.29262011599295
 10
-60.23223304703364
 20
151.67146148641032
 10
-60.611074417451
 20
151.9823685642003
 10
-61.04329141908728
 20
152.21339336472215
 10
-61.51227419495969
 20
152.35565773445202
 10
-62.00000000000001
 20
152.40369453344394
 10
-62.48772580504033
 20
152.35565773445202
 10
-62.95670858091273
 20
152.21339336472215
 10
-63.388925582549014
 20
151.9823685642003
 10
-63.767766952966376
 20
151.6714614864103
 10
-64.07867403075637
 20
151.29262011599295
 10
-64.30969883127823
 20
150.86040311435664
 10
-64.45196320100808
 20
150.39142033848424
 10
-64.5
 20
149.90369453344394
 10
-64.45196320100807
 20
149.4159687284036
 10
-64.30969883127821
 20
148.9469859525312
 10
-64.07867403075636
 20
148.51476895089493
 10
-63.76776695296636
 20
148.13592758047756
 10
-63.388925582549
 20
147.82502050268758
 10
-62.95670858091272
 20
147.59399570216573
 10
-62.48772580504031
 20
147.45173133243586
 10
-61.99999999999999
 20
147.40369453344394
 10
-61.51227419495967
 20
147.45173133243586
 10
-61.043291419087275
 20
147.59399570216573
 10
-60.61107441745099
 20
147.82502050268758
 10
-60.23223304703363
 20
148.13592758047758
 10
-59.92132596924364
 20
148.51476895089493
 10
-59.69030116872178
 20
148.9469859525312
 10
-59.54803679899192
 20
149.4159687284036
 10
-59.5
 20
149.90369453344394
  0
LWPOLYLINE
  5
46
330
17
100
AcDbEntity
  8
0
100
AcDbPolyline
 90
5
 70
0
 10
105.47592363336098
 20
167.3796181668049
 10
-69.47592363336099
 20
167.3796181668049
 10
-69.47592363336099
 20
222.3314654335269
 10
105.47592363336098
 20
222.3314654335269
 10
105.47592363336098
 20
167.3796181668049
  0
LWPOLYLINE
  5
47
330
17
100
AcDbEntity
  8
0
100
AcDbPolyline
 90
36
 70
0
 10
0.7500000000177972
 20
187.40554180231894
 10
0.7500000000169639
 20
188.1055418023207
 10
0.75000000000006
 20
202.30554180231923
 10
2.0499999999999994
 20
202.30554180231923
 10
2.0499999999999994
 20
209.8045418001659
 10
2.0490000000000013
 20
209.8045418001659
 10
1.9499999999999993
 20
209.8045418001659
 10
1.9499999999999993
 20
202.40554180231922
 10
0.7500000000001195
 20
202.40554180231922
 10
0.24999999999994235
 20
202.40554180231953
 10
0.04999999999993711
 20
202.4055418023193
 10
0.05070710678118649
 20
202.40483469553806
 10
0.051000000000000004
 20
202.40412758875686
 10
0.051000000000000004
 20
202.30695601588167
 10
0.050707106781186985
 20
202.30624890910047
 10
0.04929289321881602
 20
202.3048346955381
 10
0.048585786437630236
 20
202.30454180231928
 10
-0.04999999999999825
 20
202.30454180231916
 10
-0.05
 20
202.30454180231916
 10
-0.05
 20
187.4065418023194
 10
-0.04999999999916481
 20
187.40654180231974
 10
0.04858578643764561
 20
187.40654180231894
 10
0.04929289321882695
 20
187.40624890910013
 10
0.050707106781189525
 20
187.40483469553774
 10
0.051000000000000004
 20
187.40412758875655
 10
0.051000000000000004
 20
187.30695601588192
 10
0.050707106781020465
 20
187.30624890910056
 10
0.0499999999990583
 20
187.30554180231894
 10
0.05
 20
187.30554180231894
 10
1.9499999999999984
 20
187.30554180231894
 10
1.949999999999997
 20
179.90654179952114
 10
2.0489999993020453
 20
179.90654179946793
 10
2.0499999993020452
 20
179.90654180016588
 10
2.049999999999997
 20
179.90654180016588
 10
2.0499999999999985
 20
187.40554180231894
 10
0.7500000000177972
 20
187.40554180231894
  0
LWPOLYLINE
  5
48
330
17
100
AcDbEntity
  8
0
100
AcDbPolyline
 90
7
 70
0
 10
17.950000298023223
 20
209.8045418001659
 10
17.950000298023223
 20
179.90654180016588
 10
17.951000298023217
 20
179.90654180016588
 10
18.050000298023225
 20
179.90654180016588
 10
18.050000298023225
 20
209.8045418001659
 10
17.95100029802322
 20
209.8045418001659
 10
17.950000298023223
 20
209.8045418001659
  0
LWPOLYLINE
  5
49
330
17
100
AcDbEntity
  8
0
100
AcDbPolyline
 90
12
 70
0
 10
-24.75000000000889
 20
202.30454179140975
 10
-24.750000000008054
 20
201.60554179141064
 10
-24.749999999991147
 20
187.4065418023202
 10
-24.74899999999115
 20
187.4065418023202
 10
-24.04999999999114
 20
187.40654180232121
 10
-24.04999999999111
 20
187.40654180232121
 10
-23.95
 20
187.40654180232116
 10
-23.95
 20
202.30454179149075
 10
-23.95000000019383
 20
202.3045417914116
 10
-24.050000000008882
 20
202.30454179141148
 10
-24.74900000000889
 20
202.30454179140975
 10
-24.75000000000889
 20
202.30454179140975
  0
LWPOLYLINE
  5
4A
330
17
100
AcDbEntity
  8
0
100
AcDbPolyline
 90
7
 70
0
 10
-41.94999999999107
 20
187.40654180227617
 10
-41.94999999999107
 20
202.3045417913659
 10
-41.950999999991076
 20
202.3045417913659
 10
-42.04999999999107
 20
202.3045417913659
 10
-42.04999999999107
 20
187.40654180227713
 10
-41.950999999972176
 20
187.40654180227617
 10
-41.94999999999107
 20
187.40654180227617
  0
LWPOLYLINE
  5
4B
330
17
100
AcDbEntity
  8
0
100
AcDbPolyline
 90
33
 70
0
 10
100.5
 20
174.8555418001659
 10
100.45196320100807
 20
175.34326760520622
 10
100.30969883127821
 20
175.81225038107863
 10
100.07867403075636
 20
176.2444673827149
 10
99.76776695296637
 20
176.62330875313228
 10
99.38892558254899
 20
176.93421583092226
 10
98.95670858091272
 20
177.1652406314441
 10
98.48772580504031
 20
177.30750500117398
 10
97.99999999999999
 20
177.3555418001659
 10
97.51227419495967
 20
177.30750500117398
 10
97.04329141908727
 20
177.1652406314441
 10
96.61107441745098
 20
176.93421583092226
 10
96.23223304703362
 20
176.62330875313225
 10
95.92132596924363
 20
176.2444673827149
 10
95.69030116872177
 20
175.8122503810786
 10
95.54803679899192
 20
175.34326760520622
 10
95.5
 20
174.8555418001659
 10
95.54803679899193
 20
174.36781599512557
 10
95.69030116872179
 20
173.89883321925316
 10
95.92132596924364
 20
173.4666162176169
 10
96.23223304703363
 20
173.0877748471995
 10
96.611074417451
 20
172.77686776940953
 10
97.04329141908728
 20
172.54584296888768
 10
97.51227419495969
 20
172.4035785991578
 10
98.0
 20
172.3555418001659
 10
98.48772580504033
 20
172.4035785991578
 10
98.95670858091273
 20
172.54584296888768
 10
99.388925582549
 20
172.77686776940953
 10
99.76776695296637
 20
173.0877748471995
 10
100.07867403075636
 20
173.4666162176169
 10
100.30969883127821
 20
173.89883321925316
 10
100.45196320100807
 20
174.36781599512557
 10
100.5
 20
174.8555418001659
  0
LWPOLYLINE
  5
4C
330
17
100
AcDbEntity
  8
0
100
AcDbPolyline
 90
33
 70
0
 10
-59.5
 20
174.8555418001659
 10
-59.54803679899192
 20
175.34326760520622
 10
-59.69030116872179
 20
175.81225038107863
 10
-59.92132596924364
 20
176.2444673827149
 10
-60.23223304703364
 20
176.62330875313228
 10
-60.611074417451
 20
176.93421583092226
 10
-61.04329141908728
 20
177.1652406314441
 10
-61.51227419495969
 20
177.30750500117398
 10
-62.00000000000001
 20
177.3555418001659
 10
-62.48772580504033
 20
177.30750500117398
 10
-62.95670858091273
 20
177.1652406314441
 10
-63.388925582549014
 20
176.93421583092226
 10
-63.767766952966376
 20
176.62330875313225
 10
-64.07867403075637
 20
176.2444673827149
 10
-64.30969883127823
 20
175.8122503810786
 10
-64.45196320100808
 20
175.34326760520622
 10
-64.5
 20
174.8555418001659
 10
-64.45196320100807
 20
174.36781599512557
 10
-64.30969883127821
 20
173.89883321925316
 10
-64.07867403075636
 20
173.4666162176169
 10
-63.76776695296636
 20
173.0877748471995
 10
-63.388925582549
 20
172.77686776940953
 10
-62.95670858091272
 20
172.54584296888768
 10
-62.48772580504031
 20
172.4035785991578
 10
-61.99999999999999
 20
172.3555418001659
 10
-61.51227419495967
 20
172.4035785991578
 10
-61.043291419087275
 20
172.54584296888768
 10
-60.61107441745099
 20
172.77686776940953
 10
-60.23223304703363
 20
173.0877748471995
 10
-59.92132596924364
 20
173.4666162176169
 10
-59.69030116872178
 20
173.89883321925316
 10
-59.54803679899192
 20
174.36781599512557
 10
-59.5
 20
174.8555418001659
  0
LWPOLYLINE
  5
4D
330
17
100
AcDbEntity
  8
0
100
AcDbPolyline
 90
33
 70
0
 10
100.5
 20
214.8555418001659
 10
100.45196320100807
 20
215.34326760520622
 10
100.30969883127821
 20
215.81225038107863
 10
100.07867403075636
 20
216.2444673827149
 10
99.76776695296637
 20
216.62330875313228
 10
99.38892558254899
 20
216.93421583092226
 10
98.95670858091272
 20
217.1652406314441
 10
98.48772580504031
 20
217.30750500117398
 10
97.99999999999999
 20
217.3555418001659
 10
97.51227419495967
 20
217.30750500117398
 10
97.04329141908727
 20
217.1652406314441
 10
96.61107441745098
 20
216.93421583092226
 10
96.23223304703362
 20
216.62330875313225
 10
95.92132596924363
 20
216.2444673827149
 10
95.69030116872177
 20
215.8122503810786
 10
95.54803679899192
 20
215.34326760520622
 10
95.5
 20
214.8555418001659
 10
95.54803679899193
 20
214.36781599512557
 10
95.69030116872179
 20
213.89883321925316
 10
95.92132596924364
 20
213.4666162176169
 10
96.23223304703363
 20
213.0877748471995
 10
96.611074417451
 20
212.77686776940953
 10
97.04329141908728
 20
212.54584296888768
 10
97.51227419495969
 20
212.4035785991578
 10
98.0
 20
212.3555418001659
 10
98.48772580504033
 20
212.4035785991578
 10
98.95670858091273
 20
212.54584296888768
 10
99.388925582549
 20
212.77686776940953
 10
99.76776695296637
 20
213.0877748471995
 10
100.07867403075636
 20
213.4666162176169
 10
100.30969883127821
 20
213.89883321925316
 10
100.45196320100807
 20
214.36781599512557
 10
100.5
 20
214.8555418001659
  0
LWPOLYLINE
  5
4E
330
17
100
AcDbEntity
  8
0
100
AcDbPolyline
 90
33
 70
0
 10
-59.5
 20
214.8555418001659
 10
-59.54803679899192
 20
215.34326760520622
 10
-59.69030116872179
 20
215.81225038107863
 10
-59.92132596924364
 20
216.2444673827149
 10
-60.23223304703364
 20
216.62330875313228
 10
-60.611074417451
 20
216.93421583092226
 10
-61.04329141908728
 20
217.1652406314441
 10
-61.51227419495969
 20
217.30750500117398
 10
-62.00000000000001
 20
217.3555418001659
 10
-62.48772580504033
 20
217.30750500117398
 10
-62.95670858091273
 20
217.1652406314441
 10
-63.388925582549014
 20
216.93421583092226
 10
-63.767766952966376
 20
216.62330875313225
 10
-64.07867403075637
 20
216.2444673827149
 10
-64.30969883127823
 20
215.8122503810786
 10
-64.45196320100808
 20
215.34326760520622
 10
-64.5
 20
214.8555418001659
 10
-64.45196320100807
 20
214.36781599512557
 10
-64.30969883127821
 20
213.89883321925316
 10
-64.07867403075636
 20
213.4666162176169
 10
-63.76776695296636
 20
213.0877748471995
 10
-63.388925582549
 20
212.77686776940953
 10
-62.95670858091272
 20
212.54584296888768
 10
-62.48772580504031
 20
212.4035785991578
 10
-61.99999999999999
 20
212.3555418001659
 10
-61.51227419495967
 20
212.4035785991578
 10
-61.043291419087275
 20
212.54584296888768
 10
-60.61107441745099
 20
212.77686776940953
 10
-60.23223304703363
 20
213.0877748471995
 10
-59.92132596924364
 20
213.4666162176169
 10
-59.69030116872178
 20
213.89883321925316
 10
-59.54803679899192
 20
214.36781599512557
 10
-59.5
 20
214.8555418001659
  0
LWPOLYLINE
  5
4F
330
17
100
AcDbEntity
  8
0
100
AcDbPolyline
 90
5
 70
0
 10
105.47592363336098
 20
232.3314654335269
 10
-69.47592363336099
 20
232.3314654335269
 10
-69.47592363336099
 20
287.28331270024887
 10
105.47592363336098
 20
287.28331270024887
 10
105.47592363336098
 20
232.3314654335269
  0
LWPOLYLINE
  5
50
330
17
100
AcDbEntity
  8
0
100
AcDbPolyline
 90
5
 70
0
 10
-44.75000000000893
 20
267.2563890580879
 10
-44.75000000000893
 20
252.3583890689879
 10
-44.65000000000893
 20
252.3583890689879
 10
-44.65000000000893
 20
267.2563890580879
 10
-44.75000000000893
 20
267.2563890580879
  0
LWPOLYLINE
  5
51
330
17
100
AcDbEntity
  8
0
100
AcDbPolyline
 90
7
 70
0
 10
-24.75000000000889
 20
267.2563890580879
 10
-24.750000000008054
 20
266.5573890581326
 10
-24.749999999991147
 20
252.3583890690823
 10
-24.05
 20
252.35838906908788
 10
-23.95
 20
252.35838906908788
 10
-23.95
 20
267.2563890580879
 10
-24.75000000000889
 20
267.2563890580879
  0
LWPOLYLINE
  5
52
330
17
100
AcDbEntity
  8
0
100
AcDbPolyline
 90
5
 70
0
 10
-43.250000000008946
 20
252.3583890689879
 10
-43.250000000008946
 20
267.2563890580879
 10
-43.35000000000895
 20
267.2563890580879
 10
-43.35000000000895
 20
252.3583890689879
 10
-43.250000000008946
 20
252.3583890689879
  0
LWPOLYLINE
  5
53
330
17
100
AcDbEntity
  8
0
100
AcDbPolyline
 90
5
 70
0
 10
-30.750000000000004
 20
252.2563890689879
 10
-30.750000000000004
 20
244.85838906688787
 10
-30.650000000000002
 20
244.85838906688787
 10
-30.650000000000002
 20
252.2563890689879
 10
-30.750000000000004
 20
252.2563890689879
  0
LWPOLYLINE
  5
54
330
17
100
AcDbEntity
  8
0
100
AcDbPolyline
 90
5
 70
0
 10
-0.7499999999999992
 20
252.25638906908787
 10
-0.7499999999999992
 20
244.85838906688787
 10
-0.6499999999999992
 20
244.85838906688787
 10
-0.6499999999999992
 20
252.25638906908787
 10
-0.7499999999999992
 20
252.25638906908787
  0
LWPOLYLINE
  5
55
330
17
100
AcDbEntity
  8
0
100
AcDbPolyline
 90
6
 70
0
 10
-29.249999999999996
 20
244.85838906688787
 10
-29.249999999999996
 20
252.2563890689879
 10
-29.25
 20
252.2563890689879
 10
-29.349999999999998
 20
252.2563890689879
 10
-29.349999999999998
 20
244.85838906688787
 10
-29.249999999999996
 20
244.85838906688787
  0
LWPOLYLINE
  5
56
330
17
100
AcDbEntity
  8
0
100
AcDbPolyline
 90
5
 70
0
 10
50.74999999999999
 20
244.85838906688787
 10
50.74999999999999
 20
274.7563890668879
 10
50.64999999999999
 20
274.7563890668879
 10
50.64999999999999
 20
244.85838906688787
 10
50.74999999999999
 20
244.85838906688787
  0
LWPOLYLINE
  5
57
330
17
100
AcDbEntity
  8
0
100
AcDbPolyline
 90
27
 70
0
 10
0.05000000000303269
 20
252.25738906904093
 10
0.6500000000177377
 20
252.25738906904093
 10
0.6500000000001198
 20
244.85838906688787
 10
0.7500000000001198
 20
244.85838906688787
 10
0.7500000000178567
 20
252.30738906906794
 10
0.7500000000169639
 20
253.05738906904267
 10
0.7500000000000008
 20
267.3073890690412
 10
0.7500000000000008
 20
274.7563890668879
 10
0.6500000000000008
 20
274.7563890668879
 10
0.6500000000000008
 20
267.3573890690413
 10
0.24999999999994235
 20
267.3573890690415
 10
0.050000000046602426
 20
267.3573890690413
 10
0.0507071068
 20
267.3566819622879
 10
0.051
 20
267.3559748554879
 10
0.051
 20
267.2588032825879
 10
0.0507071068
 20
267.2580961757879
 10
0.0492928932
 20
267.25668196228787
 10
0.0485857864
 20
267.2563890690879
 10
-0.05
 20
267.2563890690879
 10
-0.05
 20
252.35838906908788
 10
0.0485857864
 20
252.35838906908788
 10
0.0492928932
 20
252.35809617588788
 10
0.0507071068
 20
252.35668196228787
 10
0.051
 20
252.3559748554879
 10
0.051
 20
252.25880328258788
 10
0.0507071068
 20
252.25809617578787
 10
0.05000000000303269
 20
252.25738906904093
  0
LWPOLYLINE
  5
58
330
17
100
AcDbEntity
  8
0
100
AcDbPolyline
 90
5
 70
0
 10
19.349999999999998
 20
244.85838906688787
 10
19.349999999999998
 20
274.7563890668879
 10
19.249999999999996
 20
274.7563890668879
 10
19.249999999999996
 20
244.85838906688787
 10
19.349999999999998
 20
244.85838906688787
  0
LWPOLYLINE
  5
59
330
17
100
AcDbEntity
  8
0
100
AcDbPolyline
 90
6
 70
0
 10
-0.6499999999995558
 20
267.3583890688398
 10
-0.6499999999999962
 20
274.7563890668879
 10
-0.7499999999999962
 20
274.7563890668879
 10
-0.7499999999995558
 20
267.3583890687875
 10
-0.749
 20
267.35838906878786
 10
-0.6499999999995558
 20
267.3583890688398
  0
LWPOLYLINE
  5
5A
330
17
100
AcDbEntity
  8
0
100
AcDbPolyline
 90
7
 70
0
 10
-29.349999999999998
 20
274.7563890668879
 10
-29.349999999999998
 20
267.3583890583454
 10
-29.251
 20
267.3583890583879
 10
-29.25
 20
267.3583890583879
 10
-29.249999999999996
 20
267.3583890583879
 10
-29.249999999999996
 20
274.7563890668879
 10
-29.349999999999998
 20
274.7563890668879
  0
LWPOLYLINE
  5
5B
330
17
100
AcDbEntity
  8
0
100
AcDbPolyline
 90
6
 70
0
 10
-30.650000000000002
 20
267.35838906828786
 10
-30.650000000000002
 20
274.7563890668879
 10
-30.750000000000004
 20
274.7563890668879
 10
-30.750000000000004
 20
267.3583890681879
 10
-30.75
 20
267.3583890681879
 10
-30.650000000000002
 20
267.35838906828786
  0
LWPOLYLINE
  5
5C
330
17
100
AcDbEntity
  8
0
100
AcDbPolyline
 90
5
 70
0
 10
49.35000000000001
 20
244.85838906688787
 10
49.35000000000001
 20
274.7563890668879
 10
49.25000000000001
 20
274.7563890668879
 10
49.25000000000001
 20
244.85838906688787
 10
49.35000000000001
 20
244.85838906688787
  0
LWPOLYLINE
  5
5D
330
17
100
AcDbEntity
  8
0
100
AcDbPolyline
 90
5
 70
0
 10
20.650000000000002
 20
274.7563890668879
 10
20.650000000000002
 20
244.85838906688787
 10
20.750000000000004
 20
244.85838906688787
 10
20.750000000000004
 20
274.7563890668879
 10
20.650000000000002
 20
274.7563890668879
  0
LWPOLYLINE
  5
5E
330
17
100
AcDbEntity
  8
0
100
AcDbPolyline
 90
33
 70
0
 10
100.5
 20
239.80738906688788
 10
100.45196320100807
 20
240.2951148719282
 10
100.30969883127821
 20
240.7640976478006
 10
100.07867403075636
 20
241.19631464943689
 10
99.76776695296637
 20
241.57515601985426
 10
99.38892558254899
 20
241.88606309764424
 10
98.95670858091272
 20
242.1170878981661
 10
98.48772580504031
 20
242.25935226789596
 10
97.99999999999999
 20
242.30738906688788
 10
97.51227419495967
 20
242.25935226789596
 10
97.04329141908727
 20
242.1170878981661
 10
96.61107441745098
 20
241.88606309764424
 10
96.23223304703362
 20
241.57515601985423
 10
95.92132596924363
 20
241.19631464943689
 10
95.69030116872177
 20
240.76409764780058
 10
95.54803679899192
 20
240.2951148719282
 10
95.5
 20
239.80738906688788
 10
95.54803679899193
 20
239.31966326184755
 10
95.69030116872179
 20
238.85068048597515
 10
95.92132596924364
 20
238.41846348433887
 10
96.23223304703363
 20
238.0396221139215
 10
96.611074417451
 20
237.72871503613152
 10
97.04329141908728
 20
237.49769023560967
 10
97.51227419495969
 20
237.3554258658798
 10
98.0
 20
237.30738906688788
 10
98.48772580504033
 20
237.3554258658798
 10
98.95670858091273
 20
237.49769023560967
 10
99.388925582549
 20
237.72871503613152
 10
99.76776695296637
 20
238.0396221139215
 10
100.07867403075636
 20
238.41846348433887
 10
100.30969883127821
 20
238.85068048597515
 10
100.45196320100807
 20
239.31966326184755
 10
100.5
 20
239.80738906688788
  0
LWPOLYLINE
  5
5F
330
17
100
AcDbEntity
  8
0
100
AcDbPolyline
 90
33
 70
0
 10
-59.5
 20
239.80738906688788
 10
-59.54803679899192
 20
240.2951148719282
 10
-59.69030116872179
 20
240.7640976478006
 10
-59.92132596924364
 20
241.19631464943689
 10
-60.23223304703364
 20
241.57515601985426
 10
-60.611074417451
 20
241.88606309764424
 10
-61.04329141908728
 20
242.1170878981661
 10
-61.51227419495969
 20
242.25935226789596
 10
-62.00000000000001
 20
242.30738906688788
 10
-62.48772580504033
 20
242.25935226789596
 10
-62.95670858091273
 20
242.1170878981661
 10
-63.388925582549014
 20
241.88606309764424
 10
-63.767766952966376
 20
241.57515601985423
 10
-64.07867403075637
 20
241.19631464943689
 10
-64.30969883127823
 20
240.76409764780058
 10
-64.45196320100808
 20
240.2951148719282
 10
-64.5
 20
239.80738906688788
 10
-64.45196320100807
 20
239.31966326184755
 10
-64.30969883127821
 20
238.85068048597515
 10
-64.07867403075636
 20
238.41846348433887
 10
-63.76776695296636
 20
238.0396221139215
 10
-63.388925582549
 20
237.72871503613152
 10
-62.95670858091272
 20
237.49769023560967
 10
-62.48772580504031
 20
237.3554258658798
 10
-61.99999999999999
 20
237.30738906688788
 10
-61.51227419495967
 20
237.3554258658798
 10
-61.043291419087275
 20
237.49769023560967
 10
-60.61107441745099
 20
237.72871503613152
 10
-60.23223304703363
 20
238.0396221139215
 10
-59.92132596924364
 20
238.41846348433887
 10
-59.69030116872178
 20
238.85068048597515
 10
-59.54803679899192
 20
239.31966326184755
 10
-59.5
 20
239.80738906688788
  0
LWPOLYLINE
  5
60
330
17
100
AcDbEntity
  8
0
100
AcDbPolyline
 90
33
 70
0
 10
100.5
 20
279.8073890668879
 10
100.45196320100807
 20
280.2951148719282
 10
100.30969883127821
 20
280.7640976478006
 10
100.07867403075636
 20
281.1963146494369
 10
99.76776695296637
 20
281.57515601985426
 10
99.38892558254899
 20
281.88606309764424
 10
98.95670858091272
 20
282.1170878981661
 10
98.48772580504031
 20
282.25935226789596
 10
97.99999999999999
 20
282.3073890668879
 10
97.51227419495967
 20
282.25935226789596
 10
97.04329141908727
 20
282.1170878981661
 10
96.61107441745098
 20
281.88606309764424
 10
96.23223304703362
 20
281.57515601985426
 10
95.92132596924363
 20
281.1963146494369
 10
95.69030116872177
 20
280.7640976478006
 10
95.54803679899192
 20
280.2951148719282
 10
95.5
 20
279.8073890668879
 10
95.54803679899193
 20
279.31966326184755
 10
95.69030116872179
 20
278.85068048597515
 10
95.92132596924364
 20
278.4184634843389
 10
96.23223304703363
 20
278.0396221139215
 10
96.611074417451
 20
277.7287150361315
 10
97.04329141908728
 20
277.49769023560964
 10
97.51227419495969
 20
277.3554258658798
 10
98.0
 20
277.3073890668879
 10
98.48772580504033
 20
277.3554258658798
 10
98.95670858091273
 20
277.49769023560964
 10
99.388925582549
 20
277.7287150361315
 10
99.76776695296637
 20
278.0396221139215
 10
100.07867403075636
 20
278.4184634843389
 10
100.30969883127821
 20
278.85068048597515
 10
100.45196320100807
 20
279.31966326184755
 10
100.5
 20
279.8073890668879
  0
LWPOLYLINE
  5
61
330
17
100
AcDbEntity
  8
0
100
AcDbPolyline
 90
33
 70
0
 10
-59.5
 20
279.8073890668879
 10
-59.54803679899192
 20
280.2951148719282
 10
-59.69030116872179
 20
280.7640976478006
 10
-59.92132596924364
 20
281.1963146494369
 10
-60.23223304703364
 20
281.57515601985426
 10
-60.611074417451
 20
281.88606309764424
 10
-61.04329141908728
 20
282.1170878981661
 10
-61.51227419495969
 20
282.25935226789596
 10
-62.00000000000001
 20
282.3073890668879
 10
-62.48772580504033
 20
282.25935226789596
 10
-62.95670858091273
 20
282.1170878981661
 10
-63.388925582549014
 20
281.88606309764424
 10
-63.767766952966376
 20
281.57515601985426
 10
-64.07867403075637
 20
281.1963146494369
 10
-64.30969883127823
 20
280.7640976478006
 10
-64.45196320100808
 20
280.2951148719282
 10
-64.5
 20
279.8073890668879
 10
-64.45196320100807
 20
279.31966326184755
 10
-64.30969883127821
 20
278.85068048597515
 10
-64.07867403075636
 20
278.4184634843389
 10
-63.76776695296636
 20
278.0396221139215
 10
-63.388925582549
 20
277.7287150361315
 10
-62.95670858091272
 20
277.49769023560964
 10
-62.48772580504031
 20
277.3554258658798
 10
-61.99999999999999
 20
277.3073890668879
 10
-61.51227419495967
 20
277.3554258658798
 10
-61.043291419087275
 20
277.49769023560964
 10
-60.61107441745099
 20
277.7287150361315
 10
-60.23223304703363
 20
278.0396221139215
 10
-59.92132596924364
 20
278.4184634843389
 10
-59.69030116872178
 20
278.85068048597515
 10
-59.54803679899192
 20
279.31966326184755
 10
-59.5
 20
279.8073890668879
  0
LWPOLYLINE
  5
62
330
17
100
AcDbEntity
  8
0
100
AcDbPolyline
 90
5
 70
0
 10
105.47592363336098
 20
297.28331270024887
 10
-69.47592363336099
 20
297.28331270024887
 10
-69.47592363336099
 20
352.23515996697085
 10
105.47592363336098
 20
352.23515996697085
 10
105.47592363336098
 20
297.28331270024887
  0
LWPOLYLINE
  5
63
330
17
100
AcDbEntity
  8
0
100
AcDbPolyline
 90
5
 70
0
 10
-44.75000000000893
 20
332.2082363248099
 10
-44.75000000000893
 20
317.3102363357099
 10
-44.65000000000893
 20
317.3102363357099
 10
-44.65000000000893
 20
332.2082363248099
 10
-44.75000000000893
 20
332.2082363248099
  0
LWPOLYLINE
  5
64
330
17
100
AcDbEntity
  8
0
100
AcDbPolyline
 90
5
 70
0
 10
-43.250000000008946
 20
317.3102363357099
 10
-43.250000000008946
 20
332.2082363248099
 10
-43.35000000000895
 20
332.2082363248099
 10
-43.35000000000895
 20
317.3102363357099
 10
-43.250000000008946
 20
317.3102363357099
  0
LWPOLYLINE
  5
65
330
17
100
AcDbEntity
  8
0
100
AcDbPolyline
 90
5
 70
0
 10
-24.05
 20
332.2082363248099
 10
-24.05
 20
317.31023633580986
 10
-23.95
 20
317.31023633580986
 10
-23.95
 20
332.2082363248099
 10
-24.05
 20
332.2082363248099
  0
LWPOLYLINE
  5
66
330
17
100
AcDbEntity
  8
0
100
AcDbPolyline
 90
5
 70
0
 10
-30.750000000000004
 20
317.20823633570984
 10
-30.750000000000004
 20
309.81023633360985
 10
-30.650000000000002
 20
309.81023633360985
 10
-30.650000000000002
 20
317.20823633570984
 10
-30.750000000000004
 20
317.20823633570984
  0
LWPOLYLINE
  5
67
330
17
100
AcDbEntity
  8
0
100
AcDbPolyline
 90
6
 70
0
 10
-29.249999999999996
 20
309.81023633360985
 10
-29.249999999999996
 20
317.20823633570984
 10
-29.25
 20
317.20823633570984
 10
-29.349999999999998
 20
317.20823633570984
 10
-29.349999999999998
 20
309.81023633360985
 10
-29.249999999999996
 20
309.81023633360985
  0
LWPOLYLINE
  5
68
330
17
100
AcDbEntity
  8
0
100
AcDbPolyline
 90
5
 70
0
 10
-0.7499999999999992
 20
317.2082363358099
 10
-0.7499999999999992
 20
309.81023633360985
 10
-0.6499999999999992
 20
309.81023633360985
 10
-0.6499999999999992
 20
317.2082363358099
 10
-0.7499999999999992
 20
317.2082363358099
  0
LWPOLYLINE
  5
69
330
17
100
AcDbEntity
  8
0
100
AcDbPolyline
 90
5
 70
0
 10
50.74999999999999
 20
309.81023633360985
 10
50.74999999999999
 20
339.7082363336099
 10
50.64999999999999
 20
339.7082363336099
 10
50.64999999999999
 20
309.81023633360985
 10
50.74999999999999
 20
309.81023633360985
  0
LWPOLYLINE
  5
6A
330
17
100
AcDbEntity
  8
0
100
AcDbPolyline
 90
13
 70
0
 10
0.0009999999530343542
 20
317.2082363358099
 10
0.05
 20
317.1592363357629
 10
0.6500000000000008
 20
317.1592363357629
 10
0.6500000000000008
 20
309.81023633360985
 10
0.7500000000000008
 20
309.81023633360985
 10
0.7500000000000008
 20
317.2582363357629
 10
0.7490000000000008
 20
317.2592363357629
 10
0.051
 20
317.2592363357629
 10
0.051
 20
317.2106505493099
 10
0.0507071068
 20
317.2099434425099
 10
0.0492928932
 20
317.20852922900986
 10
0.0485857864
 20
317.2082363358099
 10
0.0009999999530343542
 20
317.2082363358099
  0
LWPOLYLINE
  5
6B
330
17
100
AcDbEntity
  8
0
100
AcDbPolyline
 90
5
 70
0
 10
19.349999999999998
 20
309.81023633360985
 10
19.349999999999998
 20
339.7082363336099
 10
19.249999999999996
 20
339.7082363336099
 10
19.249999999999996
 20
309.81023633360985
 10
19.349999999999998
 20
309.81023633360985
  0
LWPOLYLINE
  5
6C
330
17
100
AcDbEntity
  8
0
100
AcDbPolyline
 90
13
 70
0
 10
0.6500000000000008
 20
339.7082363336099
 10
0.6500000000000008
 20
332.35923633576317
 10
0.05
 20
332.35923633576317
 10
0.001000000046665686
 20
332.31023633580986
 10
0.0485857864
 20
332.31023633580986
 10
0.0492928932
 20
332.30994344260984
 10
0.0507071068
 20
332.3085292290099
 10
0.051
 20
332.30782212220987
 10
0.051
 20
332.2592363357632
 10
0.7490000000000008
 20
332.2592363357632
 10
0.7500000000000008
 20
332.2602363357632
 10
0.7500000000000008
 20
339.7082363336099
 10
0.6500000000000008
 20
339.7082363336099
  0
LWPOLYLINE
  5
6D
330
17
100
AcDbEntity
  8
0
100
AcDbPolyline
 90
6
 70
0
 10
-0.6499999999995558
 20
332.3102363355618
 10
-0.6499999999999962
 20
339.7082363336099
 10
-0.7499999999999992
 20
339.7082363336099
 10
-0.7499999999999992
 20
332.3102363355095
 10
-0.749
 20
332.31023633550984
 10
-0.6499999999995558
 20
332.3102363355618
  0
LWPOLYLINE
  5
6E
330
17
100
AcDbEntity
  8
0
100
AcDbPolyline
 90
7
 70
0
 10
-29.349999999999998
 20
339.7082363336099
 10
-29.349999999999998
 20
332.31023632506736
 10
-29.251
 20
332.3102363251099
 10
-29.25
 20
332.3102363251099
 10
-29.249999999999996
 20
332.3102363251099
 10
-29.249999999999996
 20
339.7082363336099
 10
-29.349999999999998
 20
339.7082363336099
  0
LWPOLYLINE
  5
6F
330
17
100
AcDbEntity
  8
0
100
AcDbPolyline
 90
6
 70
0
 10
-30.650000000000002
 20
332.31023633500985
 10
-30.650000000000002
 20
339.7082363336099
 10
-30.750000000000004
 20
339.7082363336099
 10
-30.750000000000004
 20
332.31023633490986
 10
-30.75
 20
332.31023633490986
 10
-30.650000000000002
 20
332.31023633500985
  0
LWPOLYLINE
  5
70
330
17
100
AcDbEntity
  8
0
100
AcDbPolyline
 90
5
 70
0
 10
49.35000000000001
 20
309.81023633360985
 10
49.35000000000001
 20
339.7082363336099
 10
49.25000000000001
 20
339.7082363336099
 10
49.25000000000001
 20
309.81023633360985
 10
49.35000000000001
 20
309.81023633360985
  0
LWPOLYLINE
  5
71
330
17
100
AcDbEntity
  8
0
100
AcDbPolyline
 90
5
 70
0
 10
20.650000000000002
 20
339.7082363336099
 10
20.650000000000002
 20
309.81023633360985
 10
20.750000000000004
 20
309.81023633360985
 10
20.750000000000004
 20
339.7082363336099
 10
20.650000000000002
 20
339.7082363336099
  0
LWPOLYLINE
  5
72
330
17
100
AcDbEntity
  8
0
100
AcDbPolyline
 90
33
 70
0
 10
100.5
 20
304.75923633360986
 10
100.45196320100807
 20
305.2469621386502
 10
100.30969883127821
 20
305.7159449145226
 10
100.07867403075636
 20
306.14816191615887
 10
99.76776695296637
 20
306.52700328657625
 10
99.38892558254899
 20
306.8379103643662
 10
98.95670858091272
 20
307.0689351648881
 10
98.48772580504031
 20
307.21119953461795
 10
97.99999999999999
 20
307.25923633360986
 10
97.51227419495967
 20
307.21119953461795
 10
97.04329141908727
 20
307.0689351648881
 10
96.61107441745098
 20
306.8379103643662
 10
96.23223304703362
 20
306.52700328657625
 10
95.92132596924363
 20
306.14816191615887
 10
95.69030116872177
 20
305.7159449145226
 10
95.54803679899192
 20
305.2469621386502
 10
95.5
 20
304.75923633360986
 10
95.54803679899193
 20
304.27151052856954
 10
95.69030116872179
 20
303.80252775269713
 10
95.92132596924364
 20
303.37031075106086
 10
96.23223304703363
 20
302.9914693806435
 10
96.611074417451
 20
302.6805623028535
 10
97.04329141908728
 20
302.4495375023316
 10
97.51227419495969
 20
302.3072731326018
 10
98.0
 20
302.25923633360986
 10
98.48772580504033
 20
302.3072731326018
 10
98.95670858091273
 20
302.4495375023316
 10
99.388925582549
 20
302.6805623028535
 10
99.76776695296637
 20
302.9914693806435
 10
100.07867403075636
 20
303.37031075106086
 10
100.30969883127821
 20
303.80252775269713
 10
100.45196320100807
 20
304.27151052856954
 10
100.5
 20
304.75923633360986
  0
LWPOLYLINE
  5
73
330
17
100
AcDbEntity
  8
0
100
AcDbPolyline
 90
33
 70
0
 10
-59.5
 20
304.75923633360986
 10
-59.54803679899192
 20
305.2469621386502
 10
-59.69030116872179
 20
305.7159449145226
 10
-59.92132596924364
 20
306.14816191615887
 10
-60.23223304703364
 20
306.52700328657625
 10
-60.611074417451
 20
306.8379103643662
 10
-61.04329141908728
 20
307.0689351648881
 10
-61.51227419495969
 20
307.21119953461795
 10
-62.00000000000001
 20
307.25923633360986
 10
-62.48772580504033
 20
307.21119953461795
 10
-62.95670858091273
 20
307.0689351648881
 10
-63.388925582549014
 20
306.8379103643662
 10
-63.767766952966376
 20
306.52700328657625
 10
-64.07867403075637
 20
306.14816191615887
 10
-64.30969883127823
 20
305.7159449145226
 10
-64.45196320100808
 20
305.2469621386502
 10
-64.5
 20
304.75923633360986
 10
-64.45196320100807
 20
304.27151052856954
 10
-64.30969883127821
 20
303.80252775269713
 10
-64.07867403075636
 20
303.37031075106086
 10
-63.76776695296636
 20
302.9914693806435
 10
-63.388925582549
 20
302.6805623028535
 10
-62.95670858091272
 20
302.4495375023316
 10
-62.48772580504031
 20
302.3072731326018
 10
-61.99999999999999
 20
302.25923633360986
 10
-61.51227419495967
 20
302.3072731326018
 10
-61.043291419087275
 20
302.4495375023316
 10
-60.61107441745099
 20
302.6805623028535
 10
-60.23223304703363
 20
302.9914693806435
 10
-59.92132596924364
 20
303.37031075106086
 10
-59.69030116872178
 20
303.80252775269713
 10
-59.54803679899192
 20
304.27151052856954
 10
-59.5
 20
304.75923633360986
  0
LWPOLYLINE
  5
74
330
17
100
AcDbEntity
  8
0
100
AcDbPolyline
 90
33
 70
0
 10
100.5
 20
344.75923633360986
 10
100.45196320100807
 20
345.2469621386502
 10
100.30969883127821
 20
345.7159449145226
 10
100.07867403075636
 20
346.14816191615887
 10
99.76776695296637
 20
346.52700328657625
 10
99.38892558254899
 20
346.8379103643662
 10
98.95670858091272
 20
347.0689351648881
 10
98.48772580504031
 20
347.21119953461795
 10
97.99999999999999
 20
347.25923633360986
 10
97.51227419495967
 20
347.21119953461795
 10
97.04329141908727
 20
347.0689351648881
 10
96.61107441745098
 20
346.8379103643662
 10
96.23223304703362
 20
346.52700328657625
 10
95.92132596924363
 20
346.14816191615887
 10
95.69030116872177
 20
345.7159449145226
 10
95.54803679899192
 20
345.2469621386502
 10
95.5
 20
344.75923633360986
 10
95.54803679899193
 20
344.27151052856954
 10
95.69030116872179
 20
343.80252775269713
 10
95.92132596924364
 20
343.37031075106086
 10
96.23223304703363
 20
342.9914693806435
 10
96.611074417451
 20
342.6805623028535
 10
97.04329141908728
 20
342.4495375023316
 10
97.51227419495969
 20
342.3072731326018
 10
98.0
 20
342.25923633360986
 10
98.48772580504033
 20
342.3072731326018
 10
98.95670858091273
 20
342.4495375023316
 10
99.388925582549
 20
342.6805623028535
 10
99.76776695296637
 20
342.9914693806435
 10
100.07867403075636
 20
343.37031075106086
 10
100.30969883127821
 20
343.80252775269713
 10
100.45196320100807
 20
344.27151052856954
 10
100.5
 20
344.75923633360986
  0
LWPOLYLINE
  5
75
330
17
100
AcDbEntity
  8
0
100
AcDbPolyline
 90
33
 70
0
 10
-59.5
 20
344.75923633360986
 10
-59.54803679899192
 20
345.2469621386502
 10
-59.69030116872179
 20
345.7159449145226
 10
-59.92132596924364
 20
346.14816191615887
 10
-60.23223304703364
 20
346.52700328657625
 10
-60.611074417451
 20
346.8379103643662
 10
-61.04329141908728
 20
347.0689351648881
 10
-61.51227419495969
 20
347.21119953461795
 10
-62.00000000000001
 20
347.25923633360986
 10
-62.48772580504033
 20
347.21119953461795
 10
-62.95670858091273
 20
347.0689351648881
 10
-63.388925582549014
 20
346.8379103643662
 10
-63.767766952966376
 20
346.52700328657625
 10
-64.07867403075637
 20
346.14816191615887
 10
-64.30969883127823
 20
345.7159449145226
 10
-64.45196320100808
 20
345.2469621386502
 10
-64.5
 20
344.75923633360986
 10
-64.45196320100807
 20
344.27151052856954
 10
-64.30969883127821
 20
343.80252775269713
 10
-64.07867403075636
 20
343.37031075106086
 10
-63.76776695296636
 20
342.9914693806435
 10
-63.388925582549
 20
342.6805623028535
 10
-62.95670858091272
 20
342.4495375023316
 10
-62.48772580504031
 20
342.3072731326018
 10
-61.99999999999999
 20
342.25923633360986
 10
-61.51227419495967
 20
342.3072731326018
 10
-61.043291419087275
 20
342.4495375023316
 10
-60.61107441745099
 20
342.6805623028535
 10
-60.23223304703363
 20
342.9914693806435
 10
-59.92132596924364
 20
343.37031075106086
 10
-59.69030116872178
 20
343.80252775269713
 10
-59.54803679899192
 20
344.27151052856954
 10
-59.5
 20
344.75923633360986
  0
LWPOLYLINE
  5
76
330
17
100
AcDbEntity
  8
0
100
AcDbPolyline
 90
5
 70
0
 10
0.05
 20
317.31023633580986
 10
0.05
 20
332.2082363358099
 10
-0.05
 20
332.2082363358099
 10
-0.05
 20
317.31023633580986
 10
0.05
 20
317.31023633580986
  0
LWPOLYLINE
  5
77
330
17
100
AcDbEntity
  8
0
100
AcDbPolyline
 90
5
 70
0
 10
105.47592363336098
 20
362.2351599669708
 10
-69.47592363336099
 20
362.2351599669708
 10
-69.47592363336099
 20
417.1870072336928
 10
105.47592363336098
 20
417.1870072336928
 10
105.47592363336098
 20
362.2351599669708
  0
LWPOLYLINE
  5
78
330
17
100
AcDbEntity
  8
0
100
AcDbPolyline
 90
5
 70
0
 10
-24.05
 20
397.1600835915318
 10
-24.05
 20
382.2620836025318
 10
-23.95
 20
382.2620836025318
 10
-23.95
 20
397.1600835915318
 10
-24.05
 20
397.1600835915318
  0
LWPOLYLINE
  5
79
330
17
100
AcDbEntity
  8
0
100
AcDbPolyline
 90
5
 70
0
 10
0.05
 20
382.2620836025318
 10
0.05
 20
397.1600836025318
 10
-0.05
 20
397.1600836025318
 10
-0.05
 20
382.2620836025318
 10
0.05
 20
382.2620836025318
  0
LWPOLYLINE
  5
7A
330
17
100
AcDbEntity
  8
0
100
AcDbPolyline
 90
33
 70
0
 10
100.5
 20
369.7110836003318
 10
100.45196320100807
 20
370.1988094053721
 10
100.30969883127821
 20
370.6677921812445
 10
100.07867403075636
 20
371.1000091828808
 10
99.76776695296637
 20
371.4788505532982
 10
99.38892558254899
 20
371.78975763108815
 10
98.95670858091272
 20
372.02078243161003
 10
98.48772580504031
 20
372.1630468013399
 10
97.99999999999999
 20
372.2110836003318
 10
97.51227419495967
 20
372.1630468013399
 10
97.04329141908727
 20
372.02078243161
 10
96.61107441745098
 20
371.78975763108815
 10
96.23223304703362
 20
371.4788505532982
 10
95.92132596924363
 20
371.1000091828808
 10
95.69030116872177
 20
370.6677921812445
 10
95.54803679899192
 20
370.1988094053721
 10
95.5
 20
369.7110836003318
 10
95.54803679899193
 20
369.22335779529146
 10
95.69030116872179
 20
368.75437501941906
 10
95.92132596924364
 20
368.3221580177828
 10
96.23223304703363
 20
367.9433166473654
 10
96.611074417451
 20
367.63240956957543
 10
97.04329141908728
 20
367.40138476905355
 10
97.51227419495969
 20
367.2591203993237
 10
98.0
 20
367.2110836003318
 10
98.48772580504033
 20
367.2591203993237
 10
98.95670858091273
 20
367.40138476905355
 10
99.388925582549
 20
367.63240956957543
 10
99.76776695296637
 20
367.9433166473654
 10
100.07867403075636
 20
368.3221580177828
 10
100.30969883127821
 20
368.75437501941906
 10
100.45196320100807
 20
369.22335779529146
 10
100.5
 20
369.7110836003318
  0
LWPOLYLINE
  5
7B
330
17
100
AcDbEntity
  8
0
100
AcDbPolyline
 90
33
 70
0
 10
-59.5
 20
369.7110836003318
 10
-59.54803679899192
 20
370.1988094053721
 10
-59.69030116872179
 20
370.6677921812445
 10
-59.92132596924364
 20
371.1000091828808
 10
-60.23223304703364
 20
371.4788505532982
 10
-60.611074417451
 20
371.78975763108815
 10
-61.04329141908728
 20
372.02078243161003
 10
-61.51227419495969
 20
372.1630468013399
 10
-62.00000000000001
 20
372.2110836003318
 10
-62.48772580504033
 20
372.1630468013399
 10
-62.95670858091273
 20
372.02078243161
 10
-63.388925582549014
 20
371.78975763108815
 10
-63.767766952966376
 20
371.4788505532982
 10
-64.07867403075637
 20
371.1000091828808
 10
-64.30969883127823
 20
370.6677921812445
 10
-64.45196320100808
 20
370.1988094053721
 10
-64.5
 20
369.7110836003318
 10
-64.45196320100807
 20
369.22335779529146
 10
-64.30969883127821
 20
368.75437501941906
 10
-64.07867403075636
 20
368.3221580177828
 10
-63.76776695296636
 20
367.9433166473654
 10
-63.388925582549
 20
367.63240956957543
 10
-62.95670858091272
 20
367.40138476905355
 10
-62.48772580504031
 20
367.2591203993237
 10
-61.99999999999999
 20
367.2110836003318
 10
-61.51227419495967
 20
367.2591203993237
 10
-61.043291419087275
 20
367.40138476905355
 10
-60.61107441745099
 20
367.63240956957543
 10
-60.23223304703363
 20
367.9433166473654
 10
-59.92132596924364
 20
368.3221580177828
 10
-59.69030116872178
 20
368.75437501941906
 10
-59.54803679899192
 20
369.22335779529146
 10
-59.5
 20
369.7110836003318
  0
LWPOLYLINE
  5
7C
330
17
100
AcDbEntity
  8
0
100
AcDbPolyline
 90
33
 70
0
 10
100.5
 20
409.7110836003318
 10
100.45196320100807
 20
410.1988094053721
 10
100.30969883127821
 20
410.6677921812445
 10
100.07867403075636
 20
411.1000091828808
 10
99.76776695296637
 20
411.4788505532982
 10
99.38892558254899
 20
411.78975763108815
 10
98.95670858091272
 20
412.02078243161003
 10
98.48772580504031
 20
412.1630468013399
 10
97.99999999999999
 20
412.2110836003318
 10
97.51227419495967
 20
412.1630468013399
 10
97.04329141908727
 20
412.02078243161
 10
96.61107441745098
 20
411.78975763108815
 10
96.23223304703362
 20
411.4788505532982
 10
95.92132596924363
 20
411.1000091828808
 10
95.69030116872177
 20
410.6677921812445
 10
95.54803679899192
 20
410.1988094053721
 10
95.5
 20
409.7110836003318
 10
95.54803679899193
 20
409.22335779529146
 10
95.69030116872179
 20
408.75437501941906
 10
95.92132596924364
 20
408.3221580177828
 10
96.23223304703363
 20
407.9433166473654
 10
96.611074417451
 20
407.63240956957543
 10
97.04329141908728
 20
407.40138476905355
 10
97.51227419495969
 20
407.2591203993237
 10
98.0
 20
407.2110836003318
 10
98.48772580504033
 20
407.2591203993237
 10
98.95670858091273
 20
407.40138476905355
 10
99.388925582549
 20
407.63240956957543
 10
99.76776695296637
 20
407.9433166473654
 10
100.07867403075636
 20
408.3221580177828
 10
100.30969883127821
 20
408.75437501941906
 10
100.45196320100807
 20
409.22335779529146
 10
100.5
 20
409.7110836003318
  0
LWPOLYLINE
  5
7D
330
17
100
AcDbEntity
  8
0
100
AcDbPolyline
 90
33
 70
0
 10
-59.5
 20
409.7110836003318
 10
-59.54803679899192
 20
410.1988094053721
 10
-59.69030116872179
 20
410.6677921812445
 10
-59.92132596924364
 20
411.1000091828808
 10
-60.23223304703364
 20
411.4788505532982
 10
-60.611074417451
 20
411.78975763108815
 10
-61.04329141908728
 20
412.02078243161003
 10
-61.51227419495969
 20
412.1630468013399
 10
-62.00000000000001
 20
412.2110836003318
 10
-62.48772580504033
 20
412.1630468013399
 10
-62.95670858091273
 20
412.02078243161
 10
-63.388925582549014
 20
411.78975763108815
 10
-63.767766952966376
 20
411.4788505532982
 10
-64.07867403075637
 20
411.1000091828808
 10
-64.30969883127823
 20
410.6677921812445
 10
-64.45196320100808
 20
410.1988094053721
 10
-64.5
 20
409.7110836003318
 10
-64.45196320100807
 20
409.22335779529146
 10
-64.30969883127821
 20
408.75437501941906
 10
-64.07867403075636
 20
408.3221580177828
 10
-63.76776695296636
 20
407.9433166473654
 10
-63.388925582549
 20
407.63240956957543
 10
-62.95670858091272
 20
407.40138476905355
 10
-62.48772580504031
 20
407.2591203993237
 10
-61.99999999999999
 20
407.2110836003318
 10
-61.51227419495967
 20
407.2591203993237
 10
-61.043291419087275
 20
407.40138476905355
 10
-60.61107441745099
 20
407.63240956957543
 10
-60.23223304703363
 20
407.9433166473654
 10
-59.92132596924364
 20
408.3221580177828
 10
-59.69030116872178
 20
408.75437501941906
 10
-59.54803679899192
 20
409.22335779529146
 10
-59.5
 20
409.7110836003318
  0
LWPOLYLINE
  5
7E
330
17
100
AcDbEntity
  8
0
100
AcDbPolyline
 90
5
 70
0
 10
105.47592363336098
 20
427.1870072336928
 10
-69.47592363336099
 20
427.1870072336928
 10
-69.47592363336099
 20
482.13885450041477
 10
105.47592363336098
 20
482.13885450041477
 10
105.47592363336098
 20
427.1870072336928
  0
LWPOLYLINE
  5
7F
330
17
100
AcDbEntity
  8
0
100
AcDbPolyline
 90
5
 70
0
 10
-44.75000000000893
 20
462.1119308582538
 10
-44.75000000000893
 20
447.2139308691538
 10
-44.65000000000893
 20
447.2139308691538
 10
-44.65000000000893
 20
462.1119308582538
 10
-44.75000000000893
 20
462.1119308582538
  0
LWPOLYLINE
  5
80
330
17
100
AcDbEntity
  8
0
100
AcDbPolyline
 90
5
 70
0
 10
-43.250000000008946
 20
447.2139308691538
 10
-43.250000000008946
 20
462.1119308582538
 10
-43.35000000000895
 20
462.1119308582538
 10
-43.35000000000895
 20
447.2139308691538
 10
-43.250000000008946
 20
447.2139308691538
  0
LWPOLYLINE
  5
81
330
17
100
AcDbEntity
  8
0
100
AcDbPolyline
 90
5
 70
0
 10
-24.05
 20
462.1119308582538
 10
-24.05
 20
447.2139308692538
 10
-23.95
 20
447.2139308692538
 10
-23.95
 20
462.1119308582538
 10
-24.05
 20
462.1119308582538
  0
LWPOLYLINE
  5
82
330
17
100
AcDbEntity
  8
0
100
AcDbPolyline
 90
5
 70
0
 10
-30.750000000000004
 20
447.11193086915375
 10
-30.750000000000004
 20
439.71393086705376
 10
-30.650000000000002
 20
439.71393086705376
 10
-30.650000000000002
 20
447.11193086915375
 10
-30.750000000000004
 20
447.11193086915375
  0
LWPOLYLINE
  5
83
330
17
100
AcDbEntity
  8
0
100
AcDbPolyline
 90
6
 70
0
 10
-29.249999999999996
 20
439.71393086705376
 10
-29.249999999999996
 20
447.11193086915375
 10
-29.25
 20
447.11193086915375
 10
-29.349999999999998
 20
447.11193086915375
 10
-29.349999999999998
 20
439.71393086705376
 10
-29.249999999999996
 20
439.71393086705376
  0
LWPOLYLINE
  5
84
330
17
100
AcDbEntity
  8
0
100
AcDbPolyline
 90
5
 70
0
 10
-0.7499999999999992
 20
447.1119308692538
 10
-0.7499999999999992
 20
439.71393086705376
 10
-0.6499999999999992
 20
439.71393086705376
 10
-0.6499999999999992
 20
447.1119308692538
 10
-0.7499999999999992
 20
447.1119308692538
  0
LWPOLYLINE
  5
85
330
17
100
AcDbEntity
  8
0
100
AcDbPolyline
 90
5
 70
0
 10
50.74999999999999
 20
439.71393086705376
 10
50.74999999999999
 20
469.6119308670538
 10
50.64999999999999
 20
469.6119308670538
 10
50.64999999999999
 20
439.71393086705376
 10
50.74999999999999
 20
439.71393086705376
  0
LWPOLYLINE
  5
86
330
17
100
AcDbEntity
  8
0
100
AcDbPolyline
 90
5
 70
0
 10
20.650000000000002
 20
469.6119308670538
 10
20.650000000000002
 20
439.71393086705376
 10
20.750000000000004
 20
439.71393086705376
 10
20.750000000000004
 20
469.6119308670538
 10
20.650000000000002
 20
469.6119308670538
  0
LWPOLYLINE
  5
87
330
17
100
AcDbEntity
  8
0
100
AcDbPolyline
 90
5
 70
0
 10
49.35000000000001
 20
439.71393086705376
 10
49.35000000000001
 20
469.6119308670538
 10
49.25000000000001
 20
469.6119308670538
 10
49.25000000000001
 20
439.71393086705376
 10
49.35000000000001
 20
439.71393086705376
  0
LWPOLYLINE
  5
88
330
17
100
AcDbEntity
  8
0
100
AcDbPolyline
 90
5
 70
0
 10
-0.05
 20
462.1119308692538
 10
-0.05
 20
447.2139308692538
 10
0.05
 20
447.2139308692538
 10
0.05
 20
462.1119308692538
 10
-0.05
 20
462.1119308692538
  0
LWPOLYLINE
  5
89
330
17
100
AcDbEntity
  8
0
100
AcDbPolyline
 90
13
 70
0
 10
0.0009999999530343516
 20
447.1119308692538
 10
0.05
 20
447.0629308692068
 10
0.6500000000000008
 20
447.0629308692068
 10
0.6500000000000008
 20
439.71393086705376
 10
0.7500000000000008
 20
439.71393086705376
 10
0.7500000000000008
 20
447.1619308692068
 10
0.7490000000000008
 20
447.16293086920683
 10
0.051
 20
447.16293086920683
 10
0.051
 20
447.1143450827538
 10
0.0507071068
 20
447.1136379759538
 10
0.0492928932
 20
447.11222376245377
 10
0.0485857864
 20
447.1119308692538
 10
0.0009999999530343516
 20
447.1119308692538
  0
LWPOLYLINE
  5
8A
330
17
100
AcDbEntity
  8
0
100
AcDbPolyline
 90
5
 70
0
 10
19.349999999999998
 20
439.71393086705376
 10
19.349999999999998
 20
469.6119308670538
 10
19.249999999999996
 20
469.6119308670538
 10
19.249999999999996
 20
439.71393086705376
 10
19.349999999999998
 20
439.71393086705376
  0
LWPOLYLINE
  5
8B
330
17
100
AcDbEntity
  8
0
100
AcDbPolyline
 90
13
 70
0
 10
0.6500000000000008
 20
469.6119308670538
 10
0.6500000000000008
 20
462.2629308692071
 10
0.05
 20
462.2629308692071
 10
0.0010000000466661206
 20
462.2139308692538
 10
0.0485857864
 20
462.2139308692538
 10
0.0492928932
 20
462.21363797605375
 10
0.0507071068
 20
462.2122237624538
 10
0.051
 20
462.2115166556538
 10
0.051
 20
462.1629308692071
 10
0.7490000000000008
 20
462.1629308692071
 10
0.7500000000000008
 20
462.1639308692071
 10
0.7500000000000008
 20
469.6119308670538
 10
0.6500000000000008
 20
469.6119308670538
  0
LWPOLYLINE
  5
8C
330
17
100
AcDbEntity
  8
0
100
AcDbPolyline
 90
6
 70
0
 10
-0.6499999999999992
 20
462.2139308690057
 10
-0.6499999999999992
 20
469.6119308670538
 10
-0.7499999999999992
 20
469.6119308670538
 10
-0.7499999999999992
 20
462.2139308689534
 10
-0.749
 20
462.21393086895375
 10
-0.6499999999999992
 20
462.2139308690057
  0
LWPOLYLINE
  5
8D
330
17
100
AcDbEntity
  8
0
100
AcDbPolyline
 90
7
 70
0
 10
-29.349999999999998
 20
469.6119308670538
 10
-29.349999999999998
 20
462.2139308585113
 10
-29.251
 20
462.2139308585538
 10
-29.25
 20
462.2139308585538
 10
-29.249999999999996
 20
462.2139308585538
 10
-29.249999999999996
 20
469.6119308670538
 10
-29.349999999999998
 20
469.6119308670538
  0
LWPOLYLINE
  5
8E
330
17
100
AcDbEntity
  8
0
100
AcDbPolyline
 90
6
 70
0
 10
-30.650000000000002
 20
462.21393086845376
 10
-30.650000000000002
 20
469.6119308670538
 10
-30.750000000000004
 20
469.6119308670538
 10
-30.750000000000004
 20
462.21393086835377
 10
-30.75
 20
462.21393086835377
 10
-30.650000000000002
 20
462.21393086845376
  0
LWPOLYLINE
  5
8F
330
17
100
AcDbEntity
  8
0
100
AcDbPolyline
 90
33
 70
0
 10
100.5
 20
434.6629308670538
 10
100.45196320100807
 20
435.1506566720941
 10
100.30969883127821
 20
435.6196394479665
 10
100.07867403075636
 20
436.0518564496028
 10
99.76776695296637
 20
436.43069782002016
 10
99.38892558254899
 20
436.74160489781013
 10
98.95670858091272
 20
436.972629698332
 10
98.48772580504031
 20
437.11489406806186
 10
97.99999999999999
 20
437.1629308670538
 10
97.51227419495967
 20
437.11489406806186
 10
97.04329141908727
 20
436.97262969833196
 10
96.61107441745098
 20
436.74160489781013
 10
96.23223304703362
 20
436.43069782002016
 10
95.92132596924363
 20
436.0518564496028
 10
95.69030116872177
 20
435.6196394479665
 10
95.54803679899192
 20
435.1506566720941
 10
95.5
 20
434.6629308670538
 10
95.54803679899193
 20
434.17520506201345
 10
95.69030116872179
 20
433.70622228614104
 10
95.92132596924364
 20
433.27400528450477
 10
96.23223304703363
 20
432.8951639140874
 10
96.611074417451
 20
432.5842568362974
 10
97.04329141908728
 20
432.35323203577553
 10
97.51227419495969
 20
432.2109676660457
 10
98.0
 20
432.1629308670538
 10
98.48772580504033
 20
432.2109676660457
 10
98.95670858091273
 20
432.35323203577553
 10
99.388925582549
 20
432.5842568362974
 10
99.76776695296637
 20
432.8951639140874
 10
100.07867403075636
 20
433.27400528450477
 10
100.30969883127821
 20
433.70622228614104
 10
100.45196320100807
 20
434.17520506201345
 10
100.5
 20
434.6629308670538
  0
LWPOLYLINE
  5
90
330
17
100
AcDbEntity
  8
0
100
AcDbPolyline
 90
33
 70
0
 10
-59.5
 20
434.6629308670538
 10
-59.54803679899192
 20
435.1506566720941
 10
-59.69030116872179
 20
435.6196394479665
 10
-59.92132596924364
 20
436.0518564496028
 10
-60.23223304703364
 20
436.43069782002016
 10
-60.611074417451
 20
436.74160489781013
 10
-61.04329141908728
 20
436.972629698332
 10
-61.51227419495969
 20
437.11489406806186
 10
-62.00000000000001
 20
437.1629308670538
 10
-62.48772580504033
 20
437.11489406806186
 10
-62.95670858091273
 20
436.97262969833196
 10
-63.388925582549014
 20
436.74160489781013
 10
-63.767766952966376
 20
436.43069782002016
 10
-64.07867403075637
 20
436.0518564496028
 10
-64.30969883127823
 20
435.6196394479665
 10
-64.45196320100808
 20
435.1506566720941
 10
-64.5
 20
434.6629308670538
 10
-64.45196320100807
 20
434.17520506201345
 10
-64.30969883127821
 20
433.70622228614104
 10
-64.07867403075636
 20
433.27400528450477
 10
-63.76776695296636
 20
432.8951639140874
 10
-63.388925582549
 20
432.5842568362974
 10
-62.95670858091272
 20
432.35323203577553
 10
-62.48772580504031
 20
432.2109676660457
 10
-61.99999999999999
 20
432.1629308670538
 10
-61.51227419495967
 20
432.2109676660457
 10
-61.043291419087275
 20
432.35323203577553
 10
-60.61107441745099
 20
432.5842568362974
 10
-60.23223304703363
 20
432.8951639140874
 10
-59.92132596924364
 20
433.27400528450477
 10
-59.69030116872178
 20
433.70622228614104
 10
-59.54803679899192
 20
434.17520506201345
 10
-59.5
 20
434.6629308670538
  0
LWPOLYLINE
  5
91
330
17
100
AcDbEntity
  8
0
100
AcDbPolyline
 90
33
 70
0
 10
100.5
 20
474.6629308670538
 10
100.45196320100807
 20
475.1506566720941
 10
100.30969883127821
 20
475.6196394479665
 10
100.07867403075636
 20
476.0518564496028
 10
99.76776695296637
 20
476.43069782002016
 10
99.38892558254899
 20
476.74160489781013
 10
98.95670858091272
 20
476.972629698332
 10
98.48772580504031
 20
477.11489406806186
 10
97.99999999999999
 20
477.1629308670538
 10
97.51227419495967
 20
477.11489406806186
 10
97.04329141908727
 20
476.97262969833196
 10
96.61107441745098
 20
476.74160489781013
 10
96.23223304703362
 20
476.43069782002016
 10
95.92132596924363
 20
476.0518564496028
 10
95.69030116872177
 20
475.6196394479665
 10
95.54803679899192
 20
475.1506566720941
 10
95.5
 20
474.6629308670538
 10
95.54803679899193
 20
474.17520506201345
 10
95.69030116872179
 20
473.70622228614104
 10
95.92132596924364
 20
473.27400528450477
 10
96.23223304703363
 20
472.8951639140874
 10
96.611074417451
 20
472.5842568362974
 10
97.04329141908728
 20
472.35323203577553
 10
97.51227419495969
 20
472.2109676660457
 10
98.0
 20
472.1629308670538
 10
98.48772580504033
 20
472.2109676660457
 10
98.95670858091273
 20
472.35323203577553
 10
99.388925582549
 20
472.5842568362974
 10
99.76776695296637
 20
472.8951639140874
 10
100.07867403075636
 20
473.27400528450477
 10
100.30969883127821
 20
473.70622228614104
 10
100.45196320100807
 20
474.17520506201345
 10
100.5
 20
474.6629308670538
  0
LWPOLYLINE
  5
92
330
17
100
AcDbEntity
  8
0
100
AcDbPolyline
 90
33
 70
0
 10
-59.5
 20
474.6629308670538
 10
-59.54803679899192
 20
475.1506566720941
 10
-59.69030116872179
 20
475.6196394479665
 10
-59.92132596924364
 20
476.0518564496028
 10
-60.23223304703364
 20
476.43069782002016
 10
-60.611074417451
 20
476.74160489781013
 10
-61.04329141908728
 20
476.972629698332
 10
-61.51227419495969
 20
477.11489406806186
 10
-62.00000000000001
 20
477.1629308670538
 10
-62.48772580504033
 20
477.11489406806186
 10
-62.95670858091273
 20
476.97262969833196
 10
-63.388925582549014
 20
476.74160489781013
 10
-63.767766952966376
 20
476.43069782002016
 10
-64.07867403075637
 20
476.0518564496028
 10
-64.30969883127823
 20
475.6196394479665
 10
-64.45196320100808
 20
475.1506566720941
 10
-64.5
 20
474.6629308670538
 10
-64.45196320100807
 20
474.17520506201345
 10
-64.30969883127821
 20
473.70622228614104
 10
-64.07867403075636
 20
473.27400528450477
 10
-63.76776695296636
 20
472.8951639140874
 10
-63.388925582549
 20
472.5842568362974
 10
-62.95670858091272
 20
472.35323203577553
 10
-62.48772580504031
 20
472.2109676660457
 10
-61.99999999999999
 20
472.1629308670538
 10
-61.51227419495967
 20
472.2109676660457
 10
-61.043291419087275
 20
472.35323203577553
 10
-60.61107441745099
 20
472.5842568362974
 10
-60.23223304703363
 20
472.8951639140874
 10
-59.92132596924364
 20
473.27400528450477
 10
-59.69030116872178
 20
473.70622228614104
 10
-59.54803679899192
 20
474.17520506201345
 10
-59.5
 20
474.6629308670538
  0
LWPOLYLINE
  5
93
330
17
100
AcDbEntity
  8
0
100
AcDbPolyline
 90
5
 70
0
 10
105.47592363336098
 20
492.13885450041477
 10
-69.47592363336099
 20
492.13885450041477
 10
-69.47592363336099
 20
547.0907017671367
 10
105.47592363336098
 20
547.0907017671367
 10
105.47592363336098
 20
492.13885450041477
  0
LWPOLYLINE
  5
94
330
17
100
AcDbEntity
  8
0
100
AcDbPolyline
 90
5
 70
0
 10
-44.75000000000893
 20
527.0637781249758
 10
-44.75000000000893
 20
512.1657781358757
 10
-44.65000000000893
 20
512.1657781358757
 10
-44.65000000000893
 20
527.0637781249758
 10
-44.75000000000893
 20
527.0637781249758
  0
LWPOLYLINE
  5
95
330
17
100
AcDbEntity
  8
0
100
AcDbPolyline
 90
5
 70
0
 10
-43.250000000008946
 20
512.1657781358757
 10
-43.250000000008946
 20
527.0637781249758
 10
-43.35000000000895
 20
527.0637781249758
 10
-43.35000000000895
 20
512.1657781358757
 10
-43.250000000008946
 20
512.1657781358757
  0
LWPOLYLINE
  5
96
330
17
100
AcDbEntity
  8
0
100
AcDbPolyline
 90
5
 70
0
 10
-24.05
 20
527.0637781249758
 10
-24.05
 20
512.1657781359758
 10
-23.95
 20
512.1657781359758
 10
-23.95
 20
527.0637781249758
 10
-24.05
 20
527.0637781249758
  0
LWPOLYLINE
  5
97
330
17
100
AcDbEntity
  8
0
100
AcDbPolyline
 90
5
 70
0
 10
-30.750000000000004
 20
512.0637781358757
 10
-30.750000000000004
 20
504.66577813377575
 10
-30.650000000000002
 20
504.66577813377575
 10
-30.650000000000002
 20
512.0637781358757
 10
-30.750000000000004
 20
512.0637781358757
  0
LWPOLYLINE
  5
98
330
17
100
AcDbEntity
  8
0
100
AcDbPolyline
 90
6
 70
0
 10
-29.249999999999996
 20
504.66577813377575
 10
-29.249999999999996
 20
512.0637781358757
 10
-29.25
 20
512.0637781358757
 10
-29.349999999999998
 20
512.0637781358757
 10
-29.349999999999998
 20
504.66577813377575
 10
-29.249999999999996
 20
504.66577813377575
  0
LWPOLYLINE
  5
99
330
17
100
AcDbEntity
  8
0
100
AcDbPolyline
 90
5
 70
0
 10
-0.7499999999999992
 20
512.0637781359758
 10
-0.7499999999999992
 20
504.66577813377575
 10
-0.6499999999999992
 20
504.66577813377575
 10
-0.6499999999999992
 20
512.0637781359758
 10
-0.7499999999999992
 20
512.0637781359758
  0
LWPOLYLINE
  5
9A
330
17
100
AcDbEntity
  8
0
100
AcDbPolyline
 90
5
 70
0
 10
50.74999999999999
 20
504.66577813377575
 10
50.74999999999999
 20
534.5637781337757
 10
50.64999999999999
 20
534.5637781337757
 10
50.64999999999999
 20
504.66577813377575
 10
50.74999999999999
 20
504.66577813377575
  0
LWPOLYLINE
  5
9B
330
17
100
AcDbEntity
  8
0
100
AcDbPolyline
 90
5
 70
0
 10
20.650000000000002
 20
534.5637781337757
 10
20.650000000000002
 20
504.66577813377575
 10
20.750000000000004
 20
504.66577813377575
 10
20.750000000000004
 20
534.5637781337757
 10
20.650000000000002
 20
534.5637781337757
  0
LWPOLYLINE
  5
9C
330
17
100
AcDbEntity
  8
0
100
AcDbPolyline
 90
5
 70
0
 10
49.35000000000001
 20
504.66577813377575
 10
49.35000000000001
 20
534.5637781337757
 10
49.25000000000001
 20
534.5637781337757
 10
49.25000000000001
 20
504.66577813377575
 10
49.35000000000001
 20
504.66577813377575
  0
LWPOLYLINE
  5
9D
330
17
100
AcDbEntity
  8
0
100
AcDbPolyline
 90
5
 70
0
 10
-0.05
 20
527.0637781359758
 10
-0.05
 20
512.1657781359758
 10
0.05
 20
512.1657781359758
 10
0.05
 20
527.0637781359758
 10
-0.05
 20
527.0637781359758
  0
LWPOLYLINE
  5
9E
330
17
100
AcDbEntity
  8
0
100
AcDbPolyline
 90
13
 70
0
 10
0.0009999999530343516
 20
512.0637781359758
 10
0.05
 20
512.0147781359287
 10
0.6500000000000008
 20
512.0147781359287
 10
0.6500000000000008
 20
504.66577813377575
 10
0.7500000000000008
 20
504.66577813377575
 10
0.7500000000000008
 20
512.1137781359288
 10
0.7490000000000008
 20
512.1147781359288
 10
0.051
 20
512.1147781359288
 10
0.051
 20
512.0661923494757
 10
0.0507071068
 20
512.0654852426758
 10
0.0492928932
 20
512.0640710291758
 10
0.0485857864
 20
512.0637781359758
 10
0.0009999999530343516
 20
512.0637781359758
  0
LWPOLYLINE
  5
9F
330
17
100
AcDbEntity
  8
0
100
AcDbPolyline
 90
5
 70
0
 10
19.349999999999998
 20
504.66577813377575
 10
19.349999999999998
 20
534.5637781337757
 10
19.249999999999996
 20
534.5637781337757
 10
19.249999999999996
 20
504.66577813377575
 10
19.349999999999998
 20
504.66577813377575
  0
LWPOLYLINE
  5
A0
330
17
100
AcDbEntity
  8
0
100
AcDbPolyline
 90
13
 70
0
 10
0.6500000000000008
 20
534.5637781337757
 10
0.6500000000000008
 20
527.2147781359291
 10
0.05
 20
527.2147781359291
 10
0.0010000000466661206
 20
527.1657781359758
 10
0.0485857864
 20
527.1657781359758
 10
0.0492928932
 20
527.1654852427757
 10
0.0507071068
 20
527.1640710291757
 10
0.051
 20
527.1633639223758
 10
0.051
 20
527.1147781359291
 10
0.7490000000000008
 20
527.1147781359291
 10
0.7500000000000008
 20
527.1157781359291
 10
0.7500000000000008
 20
534.5637781337757
 10
0.6500000000000008
 20
534.5637781337757
  0
LWPOLYLINE
  5
A1
330
17
100
AcDbEntity
  8
0
100
AcDbPolyline
 90
6
 70
0
 10
-0.6499999999999992
 20
527.1657781357277
 10
-0.6499999999999992
 20
534.5637781337757
 10
-0.7499999999999992
 20
534.5637781337757
 10
-0.7499999999999992
 20
527.1657781356754
 10
-0.749
 20
527.1657781356757
 10
-0.6499999999999992
 20
527.1657781357277
  0
LWPOLYLINE
  5
A2
330
17
100
AcDbEntity
  8
0
100
AcDbPolyline
 90
7
 70
0
 10
-29.349999999999998
 20
534.5637781337757
 10
-29.349999999999998
 20
527.1657781252333
 10
-29.251
 20
527.1657781252758
 10
-29.25
 20
527.1657781252758
 10
-29.249999999999996
 20
527.1657781252758
 10
-29.249999999999996
 20
534.5637781337757
 10
-29.349999999999998
 20
534.5637781337757
  0
LWPOLYLINE
  5
A3
330
17
100
AcDbEntity
  8
0
100
AcDbPolyline
 90
6
 70
0
 10
-30.650000000000002
 20
527.1657781351757
 10
-30.650000000000002
 20
534.5637781337757
 10
-30.750000000000004
 20
534.5637781337757
 10
-30.750000000000004
 20
527.1657781350758
 10
-30.75
 20
527.1657781350758
 10
-30.650000000000002
 20
527.1657781351757
  0
LWPOLYLINE
  5
A4
330
17
100
AcDbEntity
  8
0
100
AcDbPolyline
 90
33
 70
0
 10
100.5
 20
499.61477813377576
 10
100.45196320100807
 20
500.1025039388161
 10
100.30969883127821
 20
500.5714867146885
 10
100.07867403075636
 20
501.00370371632476
 10
99.76776695296637
 20
501.38254508674214
 10
99.38892558254899
 20
501.6934521645321
 10
98.95670858091272
 20
501.924476965054
 10
98.48772580504031
 20
502.06674133478384
 10
97.99999999999999
 20
502.11477813377576
 10
97.51227419495967
 20
502.06674133478384
 10
97.04329141908727
 20
501.92447696505394
 10
96.61107441745098
 20
501.6934521645321
 10
96.23223304703362
 20
501.38254508674214
 10
95.92132596924363
 20
501.00370371632476
 10
95.69030116872177
 20
500.5714867146885
 10
95.54803679899192
 20
500.1025039388161
 10
95.5
 20
499.61477813377576
 10
95.54803679899193
 20
499.12705232873543
 10
95.69030116872179
 20
498.658069552863
 10
95.92132596924364
 20
498.22585255122675
 10
96.23223304703363
 20
497.8470111808094
 10
96.611074417451
 20
497.5361041030194
 10
97.04329141908728
 20
497.3050793024975
 10
97.51227419495969
 20
497.1628149327677
 10
98.0
 20
497.11477813377576
 10
98.48772580504033
 20
497.1628149327677
 10
98.95670858091273
 20
497.3050793024975
 10
99.388925582549
 20
497.5361041030194
 10
99.76776695296637
 20
497.8470111808094
 10
100.07867403075636
 20
498.22585255122675
 10
100.30969883127821
 20
498.658069552863
 10
100.45196320100807
 20
499.12705232873543
 10
100.5
 20
499.61477813377576
  0
LWPOLYLINE
  5
A5
330
17
100
AcDbEntity
  8
0
100
AcDbPolyline
 90
33
 70
0
 10
-59.5
 20
499.61477813377576
 10
-59.54803679899192
 20
500.1025039388161
 10
-59.69030116872179
 20
500.5714867146885
 10
-59.92132596924364
 20
501.00370371632476
 10
-60.23223304703364
 20
501.38254508674214
 10
-60.611074417451
 20
501.6934521645321
 10
-61.04329141908728
 20
501.924476965054
 10
-61.51227419495969
 20
502.06674133478384
 10
-62.00000000000001
 20
502.11477813377576
 10
-62.48772580504033
 20
502.06674133478384
 10
-62.95670858091273
 20
501.92447696505394
 10
-63.388925582549014
 20
501.6934521645321
 10
-63.767766952966376
 20
501.38254508674214
 10
-64.07867403075637
 20
501.00370371632476
 10
-64.30969883127823
 20
500.5714867146885
 10
-64.45196320100808
 20
500.1025039388161
 10
-64.5
 20
499.61477813377576
 10
-64.45196320100807
 20
499.12705232873543
 10
-64.30969883127821
 20
498.658069552863
 10
-64.07867403075636
 20
498.22585255122675
 10
-63.76776695296636
 20
497.8470111808094
 10
-63.388925582549
 20
497.5361041030194
 10
-62.95670858091272
 20
497.3050793024975
 10
-62.48772580504031
 20
497.1628149327677
 10
-61.99999999999999
 20
497.11477813377576
 10
-61.51227419495967
 20
497.1628149327677
 10
-61.043291419087275
 20
497.3050793024975
 10
-60.61107441745099
 20
497.5361041030194
 10
-60.23223304703363
 20
497.8470111808094
 10
-59.92132596924364
 20
498.22585255122675
 10
-59.69030116872178
 20
498.658069552863
 10
-59.54803679899192
 20
499.12705232873543
 10
-59.5
 20
499.61477813377576
  0
LWPOLYLINE
  5
A6
330
17
100
AcDbEntity
  8
0
100
AcDbPolyline
 90
33
 70
0
 10
100.5
 20
539.6147781337758
 10
100.45196320100807
 20
540.1025039388161
 10
100.30969883127821
 20
540.5714867146885
 10
100.07867403075636
 20
541.0037037163248
 10
99.76776695296637
 20
541.3825450867421
 10
99.38892558254899
 20
541.6934521645321
 10
98.95670858091272
 20
541.9244769650539
 10
98.48772580504031
 20
542.0667413347838
 10
97.99999999999999
 20
542.1147781337758
 10
97.51227419495967
 20
542.0667413347838
 10
97.04329141908727
 20
541.9244769650539
 10
96.61107441745098
 20
541.6934521645321
 10
96.23223304703362
 20
541.3825450867421
 10
95.92132596924363
 20
541.0037037163247
 10
95.69030116872177
 20
540.5714867146885
 10
95.54803679899192
 20
540.1025039388161
 10
95.5
 20
539.6147781337758
 10
95.54803679899193
 20
539.1270523287354
 10
95.69030116872179
 20
538.658069552863
 10
95.92132596924364
 20
538.2258525512267
 10
96.23223304703363
 20
537.8470111808094
 10
96.611074417451
 20
537.5361041030194
 10
97.04329141908728
 20
537.3050793024976
 10
97.51227419495969
 20
537.1628149327677
 10
98.0
 20
537.1147781337758
 10
98.48772580504033
 20
537.1628149327677
 10
98.95670858091273
 20
537.3050793024976
 10
99.388925582549
 20
537.5361041030194
 10
99.76776695296637
 20
537.8470111808094
 10
100.07867403075636
 20
538.2258525512268
 10
100.30969883127821
 20
538.658069552863
 10
100.45196320100807
 20
539.1270523287354
 10
100.5
 20
539.6147781337758
  0
LWPOLYLINE
  5
A7
330
17
100
AcDbEntity
  8
0
100
AcDbPolyline
 90
33
 70
0
 10
-59.5
 20
539.6147781337758
 10
-59.54803679899192
 20
540.1025039388161
 10
-59.69030116872179
 20
540.5714867146885
 10
-59.92132596924364
 20
541.0037037163248
 10
-60.23223304703364
 20
541.3825450867421
 10
-60.611074417451
 20
541.6934521645321
 10
-61.04329141908728
 20
541.9244769650539
 10
-61.51227419495969
 20
542.0667413347838
 10
-62.00000000000001
 20
542.1147781337758
 10
-62.48772580504033
 20
542.0667413347838
 10
-62.95670858091273
 20
541.9244769650539
 10
-63.388925582549014
 20
541.6934521645321
 10
-63.767766952966376
 20
541.3825450867421
 10
-64.07867403075637
 20
541.0037037163247
 10
-64.30969883127823
 20
540.5714867146885
 10
-64.45196320100808
 20
540.1025039388161
 10
-64.5
 20
539.6147781337758
 10
-64.45196320100807
 20
539.1270523287354
 10
-64.30969883127821
 20
538.658069552863
 10
-64.07867403075636
 20
538.2258525512267
 10
-63.76776695296636
 20
537.8470111808094
 10
-63.388925582549
 20
537.5361041030194
 10
-62.95670858091272
 20
537.3050793024976
 10
-62.48772580504031
 20
537.1628149327677
 10
-61.99999999999999
 20
537.1147781337758
 10
-61.51227419495967
 20
537.1628149327677
 10
-61.043291419087275
 20
537.3050793024976
 10
-60.61107441745099
 20
537.5361041030194
 10
-60.23223304703363
 20
537.8470111808094
 10
-59.92132596924364
 20
538.2258525512268
 10
-59.69030116872178
 20
538.658069552863
 10
-59.54803679899192
 20
539.1270523287354
 10
-59.5
 20
539.6147781337758
  0
ENDSEC
  0
SECTION
  2
OBJECTS
  0
DICTIONARY
  5
A
330
0
100
AcDbDictionary
281
1
  3
ACAD_COLOR
350
B
  3
ACAD_GROUP
350
C
  3
ACAD_LAYOUT
350
D
  3
ACAD_MATERIAL
350
E
  3
ACAD_MLEADERSTYLE
350
F
  3
ACAD_MLINESTYLE
350
10
  3
ACAD_PLOTSETTINGS
350
11
  3
ACAD_PLOTSTYLENAME
350
12
  3
ACAD_SCALELIST
350
14
  3
ACAD_TABLESTYLE
350
15
  3
ACAD_VISUALSTYLE
350
16
  3
EZDXF_META
350
2D
  0
DICTIONARY
  5
B
330
A
100
AcDbDictionary
281
1
  0
DICTIONARY
  5
C
330
A
100
AcDbDictionary
281
1
  0
DICTIONARY
  5
D
330
A
100
AcDbDictionary
281
1
  3
Model
350
1A
  3
Layout1
350
1E
  0
DICTIONARY
  5
E
330
A
100
AcDbDictionary
281
1
  3
ByBlock
350
1F
  3
ByLayer
350
20
  3
Global
350
21
  0
DICTIONARY
  5
F
330
A
100
AcDbDictionary
281
1
  3
Standard
350
2C
  0
DICTIONARY
  5
10
330
A
100
AcDbDictionary
281
1
  3
Standard
350
22
  0
DICTIONARY
  5
11
330
A
100
AcDbDictionary
281
1
  0
ACDBDICTIONARYWDFLT
  5
12
330
A
100
AcDbDictionary
281
1
  3
Normal
350
13
100
AcDbDictionaryWithDefault
340
13
  0
ACDBPLACEHOLDER
  5
13
330
12
  0
DICTIONARY
  5
14
330
A
100
AcDbDictionary
281
1
  0
DICTIONARY
  5
15
330
A
100
AcDbDictionary
281
1
  0
DICTIONARY
  5
16
330
A
100
AcDbDictionary
281
1
  0
LAYOUT
  5
1A
330
D
100
AcDbPlotSettings
  1

  2
Adobe PDF
  4
A3
  6

 40
7.5
 41
20.0
 42
7.5
 43
20.0
 44
420.0
 45
297.0
 46
0.0
 47
0.0
 48
0.0
 49
0.0
140
0.0
141
0.0
142
1.0
143
1.0
 70
1024
 72
1
 73
1
 74
5
  7

 75
16
 76
0
 77
2
 78
300
147
1.0
148
0.0
149
0.0
100
AcDbLayout
  1
Model
 70
1
 71
0
 10
0.0
 20
0.0
 11
420.0
 21
297.0
 12
0.0
 22
0.0
 32
0.0
 14
1e+20
 24
1e+20
 34
1e+20
 15
-1e+20
 25
-1e+20
 35
-1e+20
146
0.0
 13
0.0
 23
0.0
 33
0.0
 16
1.0
 26
0.0
 36
0.0
 17
0.0
 27
1.0
 37
0.0
 76
1
330
17
  0
LAYOUT
  5
1E
330
D
100
AcDbPlotSettings
  1

  2
Adobe PDF
  4
A3
  6

 40
7.5
 41
20.0
 42
7.5
 43
20.0
 44
420.0
 45
297.0
 46
0.0
 47
0.0
 48
0.0
 49
0.0
140
0.0
141
0.0
142
1.0
143
1.0
 70
0
 72
1
 73
1
 74
5
  7

 75
16
 76
0
 77
2
 78
300
147
1.0
148
0.0
149
0.0
100
AcDbLayout
  1
Layout1
 70
1
 71
1
 10
0.0
 20
0.0
 11
420.0
 21
297.0
 12
0.0
 22
0.0
 32
0.0
 14
1e+20
 24
1e+20
 34
1e+20
 15
-1e+20
 25
-1e+20
 35
-1e+20
146
0.0
 13
0.0
 23
0.0
 33
0.0
 16
1.0
 26
0.0
 36
0.0
 17
0.0
 27
1.0
 37
0.0
 76
1
330
1B
  0
MATERIAL
  5
1F
102
{ACAD_REACTORS
330
E
102
}
330
E
100
AcDbMaterial
  1
ByBlock
  2

 70
0
 40
1.0
 71
1
 41
1.0
 91
-1023410177
 42
1.0
 72
1
  3

 73
1
 74
1
 75
1
 44
0.5
 73
0
 45
1.0
 46
1.0
 77
1
  4

 78
1
 79
1
170
1
 48
1.0
171
1
  6

172
1
173
1
174
1
140
1.0
141
1.0
175
1
  7

176
1
177
1
178
1
143
1.0
179
1
  8

270
1
271
1
272
1
145
1.0
146
1.0
273
1
  9

274
1
275
1
276
1
 42
1.0
 72
1
  3

 73
1
 74
1
 75
1
 94
63
  0
MATERIAL
  5
20
102
{ACAD_REACTORS
330
E
102
}
330
E
100
AcDbMaterial
  1
ByLayer
  2

 70
0
 40
1.0
 71
1
 41
1.0
 91
-1023410177
 42
1.0
 72
1
  3

 73
1
 74
1
 75
1
 44
0.5
 73
0
 45
1.0
 46
1.0
 77
1
  4

 78
1
 79
1
170
1
 48
1.0
171
1
  6

172
1
173
1
174
1
140
1.0
141
1.0
175
1
  7

176
1
177
1
178
1
143
1.0
179
1
  8

270
1
271
1
272
1
145
1.0
146
1.0
273
1
  9

274
1
275
1
276
1
 42
1.0
 72
1
  3

 73
1
 74
1
 75
1
 94
63
  0
MATERIAL
  5
21
102
{ACAD_REACTORS
330
E
102
}
330
E
100
AcDbMaterial
  1
Global
  2

 70
0
 40
1.0
 71
1
 41
1.0
 91
-1023410177
 42
1.0
 72
1
  3

 73
1
 74
1
 75
1
 44
0.5
 73
0
 45
1.0
 46
1.0
 77
1
  4

 78
1
 79
1
170
1
 48
1.0
171
1
  6

172
1
173
1
174
1
140
1.0
141
1.0
175
1
  7

176
1
177
1
178
1
143
1.0
179
1
  8

270
1
271
1
272
1
145
1.0
146
1.0
273
1
  9

274
1
275
1
276
1
 42
1.0
 72
1
  3

 73
1
 74
1
 75
1
 94
63
  0
MLINESTYLE
  5
22
102
{ACAD_REACTORS
330
10
102
}
330
10
100
AcDbMlineStyle
  2
Standard
 70
0
  3

 62
256
 51
90.0
 52
90.0
 71
2
 49
0.5
 62
256
  6
BYLAYER
 49
-0.5
 62
256
  6
BYLAYER
  0
MLEADERSTYLE
  5
2C
102
{ACAD_REACTORS
330
F
102
}
330
F
100
AcDbMLeaderStyle
179
2
170
2
171
1
172
0
 90
2
 40
0.0
 41
0.0
173
1
 91
-1056964608
 92
-2
290
1
 42
2.0
291
1
 43
8.0
  3
Standard
 44
4.0
300

342
29
174
1
175
1
176
0
178
1
 93
-1056964608
 45
4.0
292
0
297
0
 46
4.0
 94
-1056964608
 47
1.0
 49
1.0
140
1.0
294
1
141
0.0
177
0
142
1.0
295
0
296
0
143
3.75
271
0
272
9
273
9
  0
DICTIONARY
  5
2D
330
A
100
AcDbDictionary
281
1
  3
CREATED_BY_EZDXF
350
2E
  3
WRITTEN_BY_EZDXF
350
AA
  0
DICTIONARYVAR
  5
2E
330
2D
100
DictionaryVariables
280
0
  1
0.16.5 @ 2021-08-18T23:05:06.692980+00:00
  0
DICTIONARYVAR
  5
AA
330
2D
100
DictionaryVariables
280
0
  1
0.16.5 @ 2021-08-18T23:05:06.702977+00:00
  0
ENDSEC
  0
EOF
