  0
SECTION
  2
HEADER
  9
$ACADVER
  1
AC1024
  9
$ACADMAINTVER
 70
6
  9
$DWGCODEPAGE
  3
ANSI_1252
  9
$LASTSAVEDBY
  1
ezdxf
  9
$INSBASE
 10
0.0
 20
0.0
 30
0.0
  9
$EXTMIN
 10
1e+20
 20
1e+20
 30
1e+20
  9
$EXTMAX
 10
-1e+20
 20
-1e+20
 30
-1e+20
  9
$LIMMIN
 10
0.0
 20
0.0
  9
$LIMMAX
 10
420.0
 20
297.0
  9
$ORTHOMODE
 70
0
  9
$REGENMODE
 70
1
  9
$FILLMODE
 70
1
  9
$QTEXTMODE
 70
0
  9
$MIRRTEXT
 70
1
  9
$LTSCALE
 40
1.0
  9
$ATTMODE
 70
1
  9
$TEXTSIZE
 40
2.5
  9
$TRACEWID
 40
1.0
  9
$TEXTSTYLE
  7
Standard
  9
$CLAYER
  8
0
  9
$CELTYPE
  6
ByLayer
  9
$CECOLOR
 62
256
  9
$CELTSCALE
 40
1.0
  9
$DISPSILH
 70
0
  9
$DIMSCALE
 40
1.0
  9
$DIMASZ
 40
2.5
  9
$DIMEXO
 40
0.625
  9
$DIMDLI
 40
3.75
  9
$DIMRND
 40
0.0
  9
$DIMDLE
 40
0.0
  9
$DIMEXE
 40
1.25
  9
$DIMTP
 40
0.0
  9
$DIMTM
 40
0.0
  9
$DIMTXT
 40
2.5
  9
$DIMCEN
 40
2.5
  9
$DIMTSZ
 40
0.0
  9
$DIMTOL
 70
0
  9
$DIMLIM
 70
0
  9
$DIMTIH
 70
0
  9
$DIMTOH
 70
0
  9
$DIMSE1
 70
0
  9
$DIMSE2
 70
0
  9
$DIMTAD
 70
1
  9
$DIMZIN
 70
8
  9
$DIMBLK
  1

  9
$DIMASO
 70
1
  9
$DIMSHO
 70
1
  9
$DIMPOST
  1

  9
$DIMAPOST
  1

  9
$DIMALT
 70
0
  9
$DIMALTD
 70
3
  9
$DIMALTF
 40
0.03937007874
  9
$DIMLFAC
 40
1.0
  9
$DIMTOFL
 70
1
  9
$DIMTVP
 40
0.0
  9
$DIMTIX
 70
0
  9
$DIMSOXD
 70
0
  9
$DIMSAH
 70
0
  9
$DIMBLK1
  1

  9
$DIMBLK2
  1

  9
$DIMSTYLE
  2
ISO-25
  9
$DIMCLRD
 70
0
  9
$DIMCLRE
 70
0
  9
$DIMCLRT
 70
0
  9
$DIMTFAC
 40
1.0
  9
$DIMGAP
 40
0.625
  9
$DIMJUST
 70
0
  9
$DIMSD1
 70
0
  9
$DIMSD2
 70
0
  9
$DIMTOLJ
 70
0
  9
$DIMTZIN
 70
8
  9
$DIMALTZ
 70
0
  9
$DIMALTTZ
 70
0
  9
$DIMUPT
 70
0
  9
$DIMDEC
 70
2
  9
$DIMTDEC
 70
2
  9
$DIMALTU
 70
2
  9
$DIMALTTD
 70
3
  9
$DIMTXSTY
  7
Standard
  9
$DIMAUNIT
 70
0
  9
$DIMADEC
 70
0
  9
$DIMALTRND
 40
0.0
  9
$DIMAZIN
 70
0
  9
$DIMDSEP
 70
44
  9
$DIMATFIT
 70
3
  9
$DIMFRAC
 70
0
  9
$DIMLDRBLK
  1

  9
$DIMLUNIT
 70
2
  9
$DIMLWD
 70
-2
  9
$DIMLWE
 70
-2
  9
$DIMTMOVE
 70
0
  9
$DIMFXL
 40
1.0
  9
$DIMFXLON
 70
0
  9
$DIMJOGANG
 40
0.785398163397
  9
$DIMTFILL
 70
0
  9
$DIMTFILLCLR
 70
0
  9
$DIMARCSYM
 70
0
  9
$DIMLTYPE
  6

  9
$DIMLTEX1
  6

  9
$DIMLTEX2
  6

  9
$DIMTXTDIRECTION
 70
0
  9
$LUNITS
 70
2
  9
$LUPREC
 70
4
  9
$SKETCHINC
 40
1.0
  9
$FILLETRAD
 40
10.0
  9
$AUNITS
 70
0
  9
$AUPREC
 70
2
  9
$MENU
  1
.
  9
$ELEVATION
 40
0.0
  9
$PELEVATION
 40
0.0
  9
$THICKNESS
 40
0.0
  9
$LIMCHECK
 70
0
  9
$CHAMFERA
 40
0.0
  9
$CHAMFERB
 40
0.0
  9
$CHAMFERC
 40
0.0
  9
$CHAMFERD
 40
0.0
  9
$SKPOLY
 70
0
  9
$TDCREATE
 40
2459445.6702083335
  9
$TDUCREATE
 40
2458532.153996898
  9
$TDUPDATE
 40
2459445.6702083335
  9
$TDUUPDATE
 40
2458532.1544311
  9
$TDINDWG
 40
0.0
  9
$TDUSRTIMER
 40
0.0
  9
$USRTIMER
 70
1
  9
$ANGBASE
 50
0.0
  9
$ANGDIR
 70
0
  9
$PDMODE
 70
0
  9
$PDSIZE
 40
0.0
  9
$PLINEWID
 40
0.0
  9
$SPLFRAME
 70
0
  9
$SPLINETYPE
 70
6
  9
$SPLINESEGS
 70
8
  9
$HANDSEED
  5
3C
  9
$SURFTAB1
 70
6
  9
$SURFTAB2
 70
6
  9
$SURFTYPE
 70
6
  9
$SURFU
 70
6
  9
$SURFV
 70
6
  9
$UCSBASE
  2

  9
$UCSNAME
  2

  9
$UCSORG
 10
0.0
 20
0.0
 30
0.0
  9
$UCSXDIR
 10
1.0
 20
0.0
 30
0.0
  9
$UCSYDIR
 10
0.0
 20
1.0
 30
0.0
  9
$UCSORTHOREF
  2

  9
$UCSORTHOVIEW
 70
0
  9
$UCSORGTOP
 10
0.0
 20
0.0
 30
0.0
  9
$UCSORGBOTTOM
 10
0.0
 20
0.0
 30
0.0
  9
$UCSORGLEFT
 10
0.0
 20
0.0
 30
0.0
  9
$UCSORGRIGHT
 10
0.0
 20
0.0
 30
0.0
  9
$UCSORGFRONT
 10
0.0
 20
0.0
 30
0.0
  9
$UCSORGBACK
 10
0.0
 20
0.0
 30
0.0
  9
$PUCSBASE
  2

  9
$PUCSNAME
  2

  9
$PUCSORG
 10
0.0
 20
0.0
 30
0.0
  9
$PUCSXDIR
 10
1.0
 20
0.0
 30
0.0
  9
$PUCSYDIR
 10
0.0
 20
1.0
 30
0.0
  9
$PUCSORTHOREF
  2

  9
$PUCSORTHOVIEW
 70
0
  9
$PUCSORGTOP
 10
0.0
 20
0.0
 30
0.0
  9
$PUCSORGBOTTOM
 10
0.0
 20
0.0
 30
0.0
  9
$PUCSORGLEFT
 10
0.0
 20
0.0
 30
0.0
  9
$PUCSORGRIGHT
 10
0.0
 20
0.0
 30
0.0
  9
$PUCSORGFRONT
 10
0.0
 20
0.0
 30
0.0
  9
$PUCSORGBACK
 10
0.0
 20
0.0
 30
0.0
  9
$USERI1
 70
0
  9
$USERI2
 70
0
  9
$USERI3
 70
0
  9
$USERI4
 70
0
  9
$USERI5
 70
0
  9
$USERR1
 40
0.0
  9
$USERR2
 40
0.0
  9
$USERR3
 40
0.0
  9
$USERR4
 40
0.0
  9
$USERR5
 40
0.0
  9
$WORLDVIEW
 70
1
  9
$SHADEDGE
 70
3
  9
$SHADEDIF
 70
70
  9
$TILEMODE
 70
1
  9
$MAXACTVP
 70
64
  9
$PINSBASE
 10
0.0
 20
0.0
 30
0.0
  9
$PLIMCHECK
 70
0
  9
$PEXTMIN
 10
1e+20
 20
1e+20
 30
1e+20
  9
$PEXTMAX
 10
-1e+20
 20
-1e+20
 30
-1e+20
  9
$PLIMMIN
 10
0.0
 20
0.0
  9
$PLIMMAX
 10
420.0
 20
297.0
  9
$UNITMODE
 70
0
  9
$VISRETAIN
 70
1
  9
$PLINEGEN
 70
0
  9
$PSLTSCALE
 70
1
  9
$TREEDEPTH
 70
3020
  9
$CMLSTYLE
  2
Standard
  9
$CMLJUST
 70
0
  9
$CMLSCALE
 40
20.0
  9
$PROXYGRAPHICS
 70
1
  9
$MEASUREMENT
 70
1
  9
$CELWEIGHT
370
-1
  9
$ENDCAPS
280
0
  9
$JOINSTYLE
280
0
  9
$LWDISPLAY
290
0
  9
$INSUNITS
 70
6
  9
$HYPERLINKBASE
  1

  9
$STYLESHEET
  1

  9
$XEDIT
290
1
  9
$CEPSNTYPE
380
0
  9
$PSTYLEMODE
290
1
  9
$FINGERPRINTGUID
  2
{633E1BFA-F030-49E8-B194-E98815EDFF9C}
  9
$VERSIONGUID
  2
{4CE04823-94D9-4E9D-A2DD-3C91283C2069}
  9
$EXTNAMES
290
1
  9
$PSVPSCALE
 40
0.0
  9
$OLESTARTUP
290
0
  9
$SORTENTS
280
127
  9
$INDEXCTL
280
0
  9
$HIDETEXT
280
1
  9
$XCLIPFRAME
280
0
  9
$HALOGAP
280
0
  9
$OBSCOLOR
 70
257
  9
$OBSLTYPE
280
0
  9
$INTERSECTIONDISPLAY
280
0
  9
$INTERSECTIONCOLOR
 70
257
  9
$DIMASSOC
280
2
  9
$PROJECTNAME
  1

  9
$CAMERADISPLAY
290
0
  9
$LENSLENGTH
 40
50.0
  9
$CAMERAHEIGHT
 40
0.0
  9
$STEPSPERSEC
 40
24.0
  9
$STEPSIZE
 40
100.0
  9
$3DDWFPREC
 40
2.0
  9
$PSOLWIDTH
 40
0.005
  9
$PSOLHEIGHT
 40
0.08
  9
$LOFTANG1
 40
1.570796326795
  9
$LOFTANG2
 40
1.570796326795
  9
$LOFTMAG1
 40
0.0
  9
$LOFTMAG2
 40
0.0
  9
$LOFTPARAM
 70
7
  9
$LOFTNORMALS
280
1
  9
$LATITUDE
 40
37.795
  9
$LONGITUDE
 40
-122.394
  9
$NORTHDIRECTION
 40
0.0
  9
$TIMEZONE
 70
-8000
  9
$LIGHTGLYPHDISPLAY
280
1
  9
$TILEMODELIGHTSYNCH
280
1
  9
$CMATERIAL
347
20
  9
$SOLIDHIST
280
0
  9
$SHOWHIST
280
1
  9
$DWFFRAME
280
2
  9
$DGNFRAME
280
2
  9
$REALWORLDSCALE
290
1
  9
$INTERFERECOLOR
 62
256
  9
$CSHADOW
280
0
  9
$SHADOWPLANELOCATION
 40
0.0
  0
ENDSEC
  0
SECTION
  2
CLASSES
  0
CLASS
  1
ACDBDICTIONARYWDFLT
  2
AcDbDictionaryWithDefault
  3
ObjectDBX Classes
 90
0
 91
0
280
0
281
0
  0
CLASS
  1
SUN
  2
AcDbSun
  3
SCENEOE
 90
1153
 91
0
280
0
281
0
  0
CLASS
  1
VISUALSTYLE
  2
AcDbVisualStyle
  3
ObjectDBX Classes
 90
4095
 91
0
280
0
281
0
  0
CLASS
  1
MATERIAL
  2
AcDbMaterial
  3
ObjectDBX Classes
 90
1153
 91
0
280
0
281
0
  0
CLASS
  1
SCALE
  2
AcDbScale
  3
ObjectDBX Classes
 90
1153
 91
0
280
0
281
0
  0
CLASS
  1
TABLESTYLE
  2
AcDbTableStyle
  3
ObjectDBX Classes
 90
4095
 91
0
280
0
281
0
  0
CLASS
  1
MLEADERSTYLE
  2
AcDbMLeaderStyle
  3
ACDB_MLEADERSTYLE_CLASS
 90
4095
 91
0
280
0
281
0
  0
CLASS
  1
DICTIONARYVAR
  2
AcDbDictionaryVar
  3
ObjectDBX Classes
 90
0
 91
0
280
0
281
0
  0
CLASS
  1
CELLSTYLEMAP
  2
AcDbCellStyleMap
  3
ObjectDBX Classes
 90
1152
 91
0
280
0
281
0
  0
CLASS
  1
MENTALRAYRENDERSETTINGS
  2
AcDbMentalRayRenderSettings
  3
SCENEOE
 90
1024
 91
0
280
0
281
0
  0
CLASS
  1
ACDBDETAILVIEWSTYLE
  2
AcDbDetailViewStyle
  3
ObjectDBX Classes
 90
1025
 91
0
280
0
281
0
  0
CLASS
  1
ACDBSECTIONVIEWSTYLE
  2
AcDbSectionViewStyle
  3
ObjectDBX Classes
 90
1025
 91
0
280
0
281
0
  0
CLASS
  1
RASTERVARIABLES
  2
AcDbRasterVariables
  3
ISM
 90
0
 91
0
280
0
281
0
  0
CLASS
  1
LAYOUT
  2
AcDbLayout
  3
ObjectDBX Classes
 90
0
 91
0
280
0
281
0
  0
CLASS
  1
ACDBPLACEHOLDER
  2
AcDbPlaceHolder
  3
ObjectDBX Classes
 90
0
 91
0
280
0
281
0
  0
ENDSEC
  0
SECTION
  2
TABLES
  0
TABLE
  2
VPORT
  5
8
330
0
100
AcDbSymbolTable
 70
1
  0
VPORT
  5
23
330
8
100
AcDbSymbolTableRecord
100
AcDbViewportTableRecord
  2
*Active
 70
0
 10
0.0
 20
0.0
 11
1.0
 21
1.0
 12
344.2
 22
148.5
 13
0.0
 23
0.0
 14
0.5
 24
0.5
 15
0.5
 25
0.5
 16
0.0
 26
0.0
 36
1.0
 17
0.0
 27
0.0
 37
0.0
 40
297.0
 41
1.34
 42
50.0
 43
0.0
 44
0.0
 50
0.0
 51
0.0
 71
0
 72
1000
 73
1
 74
3
 75
0
 76
0
 77
0
 78
0
281
0
 65
0
146
0.0
  0
ENDTAB
  0
TABLE
  2
LTYPE
  5
2
330
0
100
AcDbSymbolTable
 70
3
  0
LTYPE
  5
24
330
2
100
AcDbSymbolTableRecord
100
AcDbLinetypeTableRecord
  2
ByBlock
 70
0
  3

 72
65
 73
0
 40
0.0
  0
LTYPE
  5
25
330
2
100
AcDbSymbolTableRecord
100
AcDbLinetypeTableRecord
  2
ByLayer
 70
0
  3

 72
65
 73
0
 40
0.0
  0
LTYPE
  5
26
330
2
100
AcDbSymbolTableRecord
100
AcDbLinetypeTableRecord
  2
Continuous
 70
0
  3

 72
65
 73
0
 40
0.0
  0
ENDTAB
  0
TABLE
  2
LAYER
  5
1
330
0
100
AcDbSymbolTable
 70
2
  0
LAYER
  5
27
330
1
100
AcDbSymbolTableRecord
100
AcDbLayerTableRecord
  2
0
 70
0
 62
7
  6
Continuous
370
-3
390
13
347
21
  0
LAYER
  5
28
330
1
100
AcDbSymbolTableRecord
100
AcDbLayerTableRecord
  2
Defpoints
 70
0
 62
7
  6
Continuous
290
0
370
-3
390
13
347
21
  0
ENDTAB
  0
TABLE
  2
STYLE
  5
5
330
0
100
AcDbSymbolTable
 70
1
  0
STYLE
  5
29
330
5
100
AcDbSymbolTableRecord
100
AcDbTextStyleTableRecord
  2
Standard
 70
0
 40
0.0
 41
1.0
 50
0.0
 71
0
 42
2.5
  3
txt
  4

  0
ENDTAB
  0
TABLE
  2
VIEW
  5
7
330
0
100
AcDbSymbolTable
 70
0
  0
ENDTAB
  0
TABLE
  2
UCS
  5
6
330
0
100
AcDbSymbolTable
 70
0
  0
ENDTAB
  0
TABLE
  2
APPID
  5
3
330
0
100
AcDbSymbolTable
 70
3
  0
APPID
  5
2A
330
3
100
AcDbSymbolTableRecord
100
AcDbRegAppTableRecord
  2
ACAD
 70
0
  0
APPID
  5
39
330
3
100
AcDbSymbolTableRecord
100
AcDbRegAppTableRecord
  2
HATCHBACKGROUNDCOLOR
 70
0
  0
APPID
  5
3A
330
3
100
AcDbSymbolTableRecord
100
AcDbRegAppTableRecord
  2
EZDXF
 70
0
  0
ENDTAB
  0
TABLE
  2
DIMSTYLE
  5
4
330
0
100
AcDbSymbolTable
 70
1
100
AcDbDimStyleTable
  0
DIMSTYLE
105
2B
330
4
100
AcDbSymbolTableRecord
100
AcDbDimStyleTableRecord
  2
Standard
 70
0
 40
1.0
 41
2.5
 42
0.625
 43
3.75
 44
1.25
 45
0.0
 46
0.0
 47
0.0
 48
0.0
 49
2.5
140
2.5
141
2.5
142
0.0
143
0.03937007874
144
1.0
145
0.0
146
1.0
147
0.625
148
0.0
 69
0
 70
0
 71
0
 72
0
 73
0
 74
0
 75
0
 76
0
 77
1
 78
8
 79
0
170
0
171
3
172
1
173
0
174
0
175
0
176
0
177
0
178
0
179
0
271
0
272
2
273
2
274
3
275
0
276
0
277
2
278
44
279
0
280
0
281
0
282
0
283
0
284
8
285
0
286
0
288
0
289
3
290
0
371
-2
372
-2
  0
ENDTAB
  0
TABLE
  2
BLOCK_RECORD
  5
9
330
0
100
AcDbSymbolTable
 70
2
  0
BLOCK_RECORD
  5
17
330
9
100
AcDbSymbolTableRecord
100
AcDbBlockTableRecord
  2
*Model_Space
340
1A
 70
0
280
1
281
0
  0
BLOCK_RECORD
  5
1B
330
9
100
AcDbSymbolTableRecord
100
AcDbBlockTableRecord
  2
*Paper_Space
340
1E
 70
0
280
1
281
0
  0
ENDTAB
  0
ENDSEC
  0
SECTION
  2
BLOCKS
  0
BLOCK
  5
18
330
17
100
AcDbEntity
  8
0
100
AcDbBlockBegin
  2
*Model_Space
 70
0
 10
0.0
 20
0.0
 30
0.0
  3
*Model_Space
  1

  0
ENDBLK
  5
19
330
17
100
AcDbEntity
  8
0
100
AcDbBlockEnd
  0
BLOCK
  5
1C
330
1B
100
AcDbEntity
  8
0
100
AcDbBlockBegin
  2
*Paper_Space
 70
0
 10
0.0
 20
0.0
 30
0.0
  3
*Paper_Space
  1

  0
ENDBLK
  5
1D
330
1B
100
AcDbEntity
  8
0
100
AcDbBlockEnd
  0
ENDSEC
  0
SECTION
  2
ENTITIES
  0
LWPOLYLINE
  5
2F
330
17
100
AcDbEntity
  8
0
100
AcDbPolyline
 90
129
 70
0
 10
-47.75000361508234
 20
3.749926409945013
 10
-47.75601547657398
 20
3.627552157986086
 10
-47.756029902094966
 20
3.6274056932135816
 10
-47.774007589057334
 20
3.506209972197352
 10
-47.774036301173645
 20
3.506065626641087
 10
-47.80380667865361
 20
3.3872156176137955
 10
-47.80384940085195
 20
3.387074781400135
 10
-47.84512576384031
 20
3.2717150749183532
 10
-47.84518208468248
 20
3.2715791043773255
 10
-47.897566919239544
 20
3.1608206774768233
 10
-47.8976362963251
 20
3.160690882078953
 10
-47.96062510785783
 20
3.0556003989570932
 10
-47.960706873047414
 20
3.0554780287031837
 10
-48.03369304486757
 20
2.957067568160783
 10
-48.033786410717696
 20
2.956953801543235
 10
-48.11606704609227
 20
2.866171110112069
 10
-48.116171113438874
 20
2.8660670427654678
 10
-48.20695380486997
 20
2.7837864073909593
 10
-48.20706757148769
 20
2.783693041540684
 10
-48.30547803202987
 20
2.710706869720699
 10
-48.30560040228389
 20
2.71062510453104
 10
-48.41069088540564
 20
2.647636292998373
 10
-48.41082068080353
 20
2.6475669159128055
 10
-48.521579107704206
 20
2.595182081355652
 10
-48.52171507824517
 20
2.5951257605134983
 10
-48.63707478472691
 20
2.5538493975251684
 10
-48.637215620940516
 20
2.553806675326841
 10
-48.756065629967836
 20
2.5240362978468798
 10
-48.75620997552426
 20
2.5240075857305304
 10
-48.8774056965402
 20
2.5060298987682077
 10
-48.877552161312884
 20
2.506015473247204
 10
-48.99992641327174
 20
2.5000036117555706
 10
-49.00007358672484
 20
2.5000036117555706
 10
-49.122447838683684
 20
2.5060154732472038
 10
-49.12259430345637
 20
2.5060298987682073
 10
-49.24379002447231
 20
2.52400758573053
 10
-49.24393437002873
 20
2.5240362978468793
 10
-49.36278437905605
 20
2.5538066753268396
 10
-49.362925215269655
 20
2.553849397525167
 10
-49.478284921751396
 20
2.595125760513497
 10
-49.47842089229236
 20
2.5951820813556505
 10
-49.589179319193036
 20
2.6475669159128037
 10
-49.589309114590925
 20
2.647636292998371
 10
-49.69439959771268
 20
2.710625104531038
 10
-49.69452196796671
 20
2.710706869720697
 10
-49.792932428508884
 20
2.783693041540682
 10
-49.79304619512661
 20
2.783786407390957
 10
-49.8838288865577
 20
2.866067042765465
 10
-49.883932953904306
 20
2.866171110112066
 10
-49.96621358927888
 20
2.956953801543232
 10
-49.966306955129006
 20
2.9570675681607805
 10
-50.03929312694916
 20
3.055478028703181
 10
-50.039374892138746
 20
3.0556003989570906
 10
-50.102363703671465
 20
3.160690882078951
 10
-50.102433080757024
 20
3.160820677476818
 10
-50.1548179153141
 20
3.271579104377327
 10
-50.15487423615627
 20
3.271715074918351
 10
-50.19615059914462
 20
3.3870747814001327
 10
-50.19619332134297
 20
3.3872156176137933
 10
-50.22596369882293
 20
3.5060656266410852
 10
-50.22599241093924
 20
3.5062099721973503
 10
-50.24397009790161
 20
3.62740569321358
 10
-50.2439845234226
 20
3.6275521579860843
 10
-50.249996384914226
 20
3.7499264099450067
 10
-50.249996384914226
 20
3.7500735833980126
 10
-50.2439845234226
 20
3.872447835356935
 10
-50.24397009790161
 20
3.8725943001294394
 10
-50.22599241093924
 20
3.9937900211456694
 10
-50.22596369882293
 20
3.9939343667019345
 10
-50.19619332134297
 20
4.1127843757292295
 10
-50.19615059914462
 20
4.112925211942881
 10
-50.154874236156274
 20
4.228284918424662
 10
-50.15481791531409
 20
4.228420888965706
 10
-50.10243308075704
 20
4.339179315866195
 10
-50.102363703671486
 20
4.339309111264061
 10
-50.03937489213873
 20
4.444399594385937
 10
-50.039293126949154
 20
4.444521964639847
 10
-49.96630695512907
 20
4.54293242518215
 10
-49.966213589278816
 20
4.543046191799854
 10
-49.88393295390429
 20
4.633828883230965
 10
-49.88382888655771
 20
4.633932950577552
 10
-49.7930461951266
 20
4.716213585952075
 10
-49.792932428508884
 20
4.716306951802338
 10
-49.694521967966736
 20
4.789293123622306
 10
-49.69439959771268
 20
4.789374888811981
 10
-49.58930911459092
 20
4.852363700344657
 10
-49.58917931919303
 20
4.8524330774302245
 10
-49.47842089229242
 20
4.904817911987346
 10
-49.47828492175135
 20
4.904874232829538
 10
-49.362925215269655
 20
4.946150595817856
 10
-49.362784379056066
 20
4.946193318016178
 10
-49.243934370028754
 20
4.975963695496141
 10
-49.2437900244723
 20
4.975992407612496
 10
-49.12259430345639
 20
4.993970094574812
 10
-49.12244783868369
 20
4.993984520095817
 10
-49.00007358672486
 20
4.99999638158745
 10
-48.99992641327173
 20
4.99999638158745
 10
-48.87755216131289
 20
4.993984520095818
 10
-48.877405696540194
 20
4.993970094574813
 10
-48.756209975524285
 20
4.975992407612497
 10
-48.75606562996783
 20
4.975963695496142
 10
-48.637215620940516
 20
4.94619331801618
 10
-48.63707478472693
 20
4.9461505958178575
 10
-48.52171507824523
 20
4.904874232829541
 10
-48.52157910770416
 20
4.904817911987348
 10
-48.41082068080355
 20
4.852433077430227
 10
-48.410690885405664
 20
4.85236370034466
 10
-48.3056004022839
 20
4.789374888811985
 10
-48.305478032029846
 20
4.78929312362231
 10
-48.2070675714877
 20
4.716306951802342
 10
-48.20695380486998
 20
4.7162135859520795
 10
-48.116171113438874
 20
4.633932950577558
 10
-48.11606704609229
 20
4.63382888323097
 10
-48.033786410717696
 20
4.543046191799792
 10
-48.033693044867555
 20
4.542932425182227
 10
-47.960706873047414
 20
4.444521964639839
 10
-47.96062510785785
 20
4.4443995943859615
 10
-47.897636296325096
 20
4.339309111264069
 10
-47.897566919239544
 20
4.339179315866203
 10
-47.845182084682484
 20
4.228420888965715
 10
-47.8451257638403
 20
4.228284918424671
 10
-47.80384940085195
 20
4.1129252119428905
 10
-47.80380667865361
 20
4.112784375729239
 10
-47.774036301173645
 20
3.9939343667019447
 10
-47.774007589057334
 20
3.9937900211456796
 10
-47.756029902094966
 20
3.8725943001294505
 10
-47.75601547657398
 20
3.872447835356946
 10
-47.75000361508234
 20
3.7500735833980188
 10
-47.75000361508234
 20
3.749926409945013
  0
LWPOLYLINE
  5
30
330
17
100
AcDbEntity
  8
0
100
AcDbPolyline
 90
129
 70
0
 10
26.249996384903547
 20
3.7499264132734234
 10
26.243984523411918
 20
3.627552161314605
 10
26.24397009789091
 20
3.627405696541886
 10
26.225992410928598
 20
3.5062099755260188
 10
26.22596369881224
 20
3.5060656299695445
 10
26.196193321332263
 20
3.3872156209421744
 10
26.19615059913393
 20
3.387074784728556
 10
26.154874236145673
 20
3.271715078247016
 10
26.15481791530346
 20
3.2715791077059113
 10
26.102433080746295
 20
3.1608206808052053
 10
26.102363703660775
 20
3.160690885407405
 10
26.03937489212806
 20
3.055600402285576
 10
26.0392931269384
 20
3.055478032031548
 10
25.9663069551184
 20
2.9570675714893477
 10
25.966213589268158
 20
2.95695380487166
 10
25.883932953893673
 20
2.866171113440599
 10
25.883828886546976
 20
2.866067046093899
 10
25.79304619511602
 20
2.783786410719511
 10
25.792932428498283
 20
2.7836930448692296
 10
25.694521967955993
 20
2.7107068730491575
 10
25.69439959770203
 20
2.7106251078595434
 10
25.589309114580164
 20
2.6476362963268087
 10
25.589179319182378
 20
2.6475669192412945
 10
25.478420892281708
 20
2.5951820846841462
 10
25.478284921740695
 20
2.5951257638419754
 10
25.362925215258972
 20
2.5538494008536503
 10
25.362784379045337
 20
2.5538066786553117
 10
25.2439343700181
 20
2.5240363011753693
 10
25.243790024461646
 20
2.5240075890590146
 10
25.1225943034457
 20
2.5060299020966927
 10
25.122447838673004
 20
2.5060154765756875
 10
25.00007358671416
 20
2.5000036150840534
 10
24.999926413261065
 20
2.5000036150840534
 10
24.877552161302216
 20
2.506015476575687
 10
24.877405696529518
 20
2.5060299020966923
 10
24.756209975513578
 20
2.5240075890590137
 10
24.756065629957124
 20
2.5240363011753684
 10
24.637215620929886
 20
2.5538066786553104
 10
24.63707478471625
 20
2.553849400853649
 10
24.521715078234525
 20
2.5951257638419736
 10
24.521579107693512
 20
2.5951820846841445
 10
24.410820680792845
 20
2.6475669192412927
 10
24.41069088539506
 20
2.647636296326807
 10
24.30560040227319
 20
2.7106251078595416
 10
24.305478032019227
 20
2.7107068730491557
 10
24.207067571476937
 20
2.783693044869227
 10
24.2069538048592
 20
2.7837864107195083
 10
24.11617111342824
 20
2.8660670460938964
 10
24.116067046081543
 20
2.8661711134405965
 10
24.033786410707066
 20
2.956953804871656
 10
24.033693044856825
 20
2.9570675714893397
 10
23.96070687303681
 20
3.0554780320315524
 10
23.960625107847154
 20
3.055600402285576
 10
23.89763629631444
 20
3.1606908854074027
 10
23.89756691922892
 20
3.160820680805203
 10
23.845182084671755
 20
3.271579107705909
 10
23.845125763829543
 20
3.2717150782470137
 10
23.80384940084129
 20
3.3870747847285543
 10
23.803806678642957
 20
3.3872156209421727
 10
23.774036301162976
 20
3.5060656299695436
 10
23.77400758904662
 20
3.506209975526019
 10
23.75602990208431
 20
3.6274056965418824
 10
23.756015476563302
 20
3.6275521613146027
 10
23.75000361507167
 20
3.749926413273417
 10
23.75000361507167
 20
3.7500735867265678
 10
23.7560154765633
 20
3.872447838685382
 10
23.756029902084308
 20
3.8725943034581007
 10
23.77400758904662
 20
3.9937900244739684
 10
23.774036301162976
 20
3.9939343700304426
 10
23.803806678642953
 20
4.112784379057817
 10
23.803849400841283
 20
4.112925215271425
 10
23.845125763829568
 20
4.228284921753034
 10
23.845182084671727
 20
4.2284208922940225
 10
23.897566919228918
 20
4.33917931919478
 10
23.897636296314435
 20
4.339309114592572
 10
23.96062510784716
 20
4.444399597714417
 10
23.960706873036816
 20
4.444521967968441
 10
24.033693044856793
 20
4.542932428510607
 10
24.03378641070708
 20
4.54304619512835
 10
24.116067046081547
 20
4.633828886559396
 10
24.11617111342824
 20
4.633932953906092
 10
24.206953804859218
 20
4.716213589280494
 10
24.20706757147693
 20
4.716306955130754
 10
24.305478032019234
 20
4.789293126950836
 10
24.305600402273154
 20
4.7893748921404224
 10
24.41069088539507
 20
4.85236370367319
 10
24.410820680792845
 20
4.852433080758697
 10
24.52157910769348
 20
4.904817915315829
 10
24.52171507823454
 20
4.904874236158018
 10
24.637074784716265
 20
4.946150599146345
 10
24.63721562092985
 20
4.946193321344669
 10
24.756065629957114
 20
4.975963698824617
 10
24.756209975513595
 20
4.975992410940978
 10
24.877405696529504
 20
4.993970097903294
 10
24.8775521613022
 20
4.993984523424299
 10
24.99992641326105
 20
4.999996384915933
 10
25.00007358671416
 20
4.999996384915933
 10
25.122447838673008
 20
4.9939845234243
 10
25.122594303445705
 20
4.993970097903295
 10
25.243790024461614
 20
4.97599241094098
 10
25.243934370018096
 20
4.975963698824619
 10
25.362784379045358
 20
4.946193321344671
 10
25.362925215258944
 20
4.946150599146347
 10
25.478284921740673
 20
4.904874236158021
 10
25.478420892281733
 20
4.9048179153158316
 10
25.589179319182364
 20
4.852433080758701
 10
25.58930911458014
 20
4.852363703673194
 10
25.694399597702056
 20
4.789374892140426
 10
25.694521967955975
 20
4.78929312695084
 10
25.792932428498283
 20
4.716306955130758
 10
25.793046195115995
 20
4.716213589280499
 10
25.883828886546972
 20
4.633932953906096
 10
25.883932953893666
 20
4.6338288865594
 10
25.966213589268143
 20
4.54304619512834
 10
25.966306955118405
 20
4.54293242851063
 10
26.039293126938407
 20
4.444521967968434
 10
26.03937489212804
 20
4.444399597714443
 10
26.102363703660778
 20
4.33930911459258
 10
26.102433080746295
 20
4.339179319194788
 10
26.154817915303486
 20
4.228420892294031
 10
26.154874236145645
 20
4.228284921753043
 10
26.19615059913393
 20
4.112925215271435
 10
26.19619332133226
 20
4.1127843790578265
 10
26.225963698812237
 20
3.993934370030453
 10
26.225992410928594
 20
3.9937900244739786
 10
26.243970097890905
 20
3.872594303458112
 10
26.243984523411914
 20
3.872447838685393
 10
26.249996384903547
 20
3.750073586726574
 10
26.249996384903547
 20
3.7499264132734234
  0
LWPOLYLINE
  5
31
330
17
100
AcDbEntity
  8
0
100
AcDbPolyline
 90
129
 70
0
 10
-33.75000361508398
 20
11.249926411614739
 10
-33.75601547657562
 20
11.12755215965581
 10
-33.75602990209661
 20
11.127405694883306
 10
-33.774007589058975
 20
11.006209973867076
 10
-33.774036301175286
 20
11.006065628310818
 10
-33.80380667865525
 20
10.887215619283513
 10
-33.80384940085359
 20
10.887074783069856
 10
-33.84512576384193
 20
10.771715076588109
 10
-33.84518208468412
 20
10.771579106047042
 10
-33.8975669192412
 20
10.660820679146529
 10
-33.897636296326745
 20
10.660690883748675
 10
-33.96062510785946
 20
10.55560040062684
 10
-33.96070687304907
 20
10.555478030372889
 10
-34.03369304486917
 20
10.457067569830569
 10
-34.03378641071938
 20
10.456953803212917
 10
-34.116067046093896
 20
10.366171111781812
 10
-34.11617111344054
 20
10.366067044435171
 10
-34.20695380487158
 20
10.283786409060706
 10
-34.20706757148935
 20
10.2836930432104
 10
-34.30547803203149
 20
10.21070687139044
 10
-34.30560040228556
 20
10.21062510620075
 10
-34.410690885407284
 20
10.1476362946681
 10
-34.410820680805195
 20
10.147566917582521
 10
-34.52157910770584
 20
10.09518208302538
 10
-34.521715078246814
 20
10.095125762183224
 10
-34.637074784728576
 20
10.053849399194885
 10
-34.637215620942136
 20
10.053806676996572
 10
-34.75606562996948
 20
10.024036299516606
 10
-34.756209975525906
 20
10.024007587400254
 10
-34.87740569654182
 20
10.006029900437937
 10
-34.87755216131454
 20
10.006015474916929
 10
-34.999926413273386
 20
10.000003613425296
 10
-35.00007358672647
 20
10.000003613425296
 10
-35.12244783868531
 20
10.006015474916929
 10
-35.12259430345803
 20
10.006029900437937
 10
-35.243790024473945
 20
10.024007587400254
 10
-35.243934370030374
 20
10.024036299516606
 10
-35.362784379057715
 20
10.053806676996572
 10
-35.362925215271275
 20
10.053849399194885
 10
-35.47828492175304
 20
10.095125762183223
 10
-35.47842089229401
 20
10.095182083025378
 10
-35.589179319194656
 20
10.147566917582518
 10
-35.58930911459257
 20
10.147636294668096
 10
-35.694399597714295
 20
10.210625106200748
 10
-35.69452196796837
 20
10.210706871390439
 10
-35.79293242851051
 20
10.283693043210398
 10
-35.79304619512828
 20
10.283786409060705
 10
-35.88382888655932
 20
10.36606704443517
 10
-35.88393295390596
 20
10.36617111178181
 10
-35.96621358928048
 20
10.456953803212913
 10
-35.96630695513069
 20
10.457067569830565
 10
-36.03929312695079
 20
10.555478030372885
 10
-36.0393748921404
 20
10.555600400626837
 10
-36.10236370367311
 20
10.660690883748673
 10
-36.10243308075866
 20
10.660820679146527
 10
-36.15481791531574
 20
10.77157910604704
 10
-36.15487423615793
 20
10.771715076588107
 10
-36.196150599146264
 20
10.887074783069854
 10
-36.19619332134461
 20
10.887215619283511
 10
-36.22596369882457
 20
11.006065628310816
 10
-36.22599241094088
 20
11.006209973867074
 10
-36.24397009790325
 20
11.127405694883304
 10
-36.24398452342424
 20
11.127552159655808
 10
-36.24999638491587
 20
11.249926411614732
 10
-36.24999638491587
 20
11.250073585067737
 10
-36.24398452342424
 20
11.372447837026662
 10
-36.24397009790325
 20
11.372594301799166
 10
-36.22599241094088
 20
11.493790022815396
 10
-36.22596369882457
 20
11.493934368371654
 10
-36.19619332134461
 20
11.61278437739896
 10
-36.196150599146264
 20
11.612925213612616
 10
-36.15487423615793
 20
11.728284920094362
 10
-36.15481791531574
 20
11.728420890635428
 10
-36.10243308075866
 20
11.839179317535944
 10
-36.10236370367311
 20
11.839309112933798
 10
-36.0393748921404
 20
11.944399596055632
 10
-36.03929312695079
 20
11.944521966309583
 10
-35.96630695513069
 20
12.042932426851905
 10
-35.96621358928048
 20
12.043046193469557
 10
-35.88393295390596
 20
12.13382888490066
 10
-35.88382888655932
 20
12.133932952247301
 10
-35.79304619512828
 20
12.216213587621766
 10
-35.79293242851051
 20
12.216306953472072
 10
-35.69452196796837
 20
12.289293125292032
 10
-35.694399597714295
 20
12.289374890481723
 10
-35.589309114592574
 20
12.352363702014372
 10
-35.58917931919466
 20
12.352433079099951
 10
-35.47842089229402
 20
12.404817913657093
 10
-35.478284921753044
 20
12.404874234499248
 10
-35.36292521527128
 20
12.446150597487588
 10
-35.36278437905772
 20
12.4461933196859
 10
-35.24393437003038
 20
12.475963697165865
 10
-35.24379002447395
 20
12.475992409282217
 10
-35.12259430345804
 20
12.493970096244535
 10
-35.12244783868532
 20
12.493984521765544
 10
-35.00007358672648
 20
12.499996383257177
 10
-34.99992641327339
 20
12.499996383257177
 10
-34.87755216131455
 20
12.493984521765544
 10
-34.87740569654183
 20
12.493970096244535
 10
-34.75620997552591
 20
12.475992409282219
 10
-34.756065629969484
 20
12.475963697165867
 10
-34.63721562094214
 20
12.446193319685902
 10
-34.63707478472858
 20
12.44615059748759
 10
-34.52171507824682
 20
12.404874234499252
 10
-34.52157910770585
 20
12.404817913657096
 10
-34.4108206808052
 20
12.352433079099955
 10
-34.41069088540729
 20
12.352363702014376
 10
-34.30560040228557
 20
12.289374890481728
 10
-34.305478032031495
 20
12.289293125292037
 10
-34.207067571489354
 20
12.216306953472076
 10
-34.20695380487159
 20
12.21621358762177
 10
-34.116171113440544
 20
12.133932952247307
 10
-34.1160670460939
 20
12.133828884900666
 10
-34.03378641071938
 20
12.043046193469563
 10
-34.03369304486917
 20
12.04293242685191
 10
-33.96070687304907
 20
11.94452196630959
 10
-33.96062510785946
 20
11.94439959605564
 10
-33.897636296326745
 20
11.839309112933805
 10
-33.8975669192412
 20
11.839179317535951
 10
-33.84518208468412
 20
11.728420890635437
 10
-33.84512576384193
 20
11.72828492009437
 10
-33.80384940085359
 20
11.612925213612625
 10
-33.80380667865525
 20
11.612784377398969
 10
-33.774036301175286
 20
11.493934368371663
 10
-33.774007589058975
 20
11.493790022815405
 10
-33.75602990209661
 20
11.372594301799177
 10
-33.75601547657562
 20
11.372447837026673
 10
-33.75000361508398
 20
11.250073585067744
 10
-33.75000361508398
 20
11.249926411614739
  0
LWPOLYLINE
  5
32
330
17
100
AcDbEntity
  8
0
100
AcDbPolyline
 90
129
 70
0
 10
71.24999638491587
 20
11.249926411614828
 10
71.24398452342423
 20
11.127552159655666
 10
71.24397009790323
 20
11.127405694883018
 10
71.22599241094098
 20
11.006209973867463
 10
71.22596369882454
 20
11.00606562831065
 10
71.19619332134471
 20
10.88721561928386
 10
71.19615059914628
 20
10.887074783069922
 10
71.15487423615794
 20
10.771715076588169
 10
71.15481791531579
 20
10.771579106047218
 10
71.10243308075871
 20
10.660820679146703
 10
71.10236370367306
 20
10.660690883748657
 10
71.03937489214036
 20
10.555600400626831
 10
71.03929312695074
 20
10.555478030372853
 10
70.96630695513079
 20
10.457067569830746
 10
70.96621358928044
 20
10.456953803212924
 10
70.8839329539061
 20
10.366171111782013
 10
70.88382888655939
 20
10.366067044435296
 10
70.79304619512834
 20
10.28378640906083
 10
70.79293242851065
 20
10.283693043210594
 10
70.69452196796821
 20
10.210706871390412
 10
70.69439959771434
 20
10.21062510620086
 10
70.58930911459248
 20
10.147636294668121
 10
70.58917931919468
 20
10.147566917582601
 10
70.47842089229414
 20
10.095182083025517
 10
70.47828492175297
 20
10.095125762183276
 10
70.36292521527137
 20
10.053849399194995
 10
70.36278437905776
 20
10.053806676996665
 10
70.24393437003042
 20
10.024036299516697
 10
70.24379002447397
 20
10.024007587400343
 10
70.12259430345806
 20
10.006029900438026
 10
70.12244783868532
 20
10.006015474917017
 10
70.00007358672649
 20
10.000003613425385
 10
69.9999264132734
 20
10.000003613425385
 10
69.87755216131457
 20
10.006015474917017
 10
69.87740569654183
 20
10.006029900438026
 10
69.75620997552592
 20
10.024007587400343
 10
69.75606562996947
 20
10.024036299516697
 10
69.63721562094213
 20
10.053806676996665
 10
69.63707478472851
 20
10.053849399194995
 10
69.52171507824691
 20
10.095125762183274
 10
69.52157910770575
 20
10.095182083025515
 10
69.4108206808052
 20
10.147566917582598
 10
69.4106908854074
 20
10.147636294668118
 10
69.30560040228555
 20
10.210625106200858
 10
69.30547803203167
 20
10.21070687139041
 10
69.20706757148925
 20
10.283693043210592
 10
69.20695380487156
 20
10.283786409060829
 10
69.11617111344052
 20
10.366067044435294
 10
69.1160670460938
 20
10.36617111178201
 10
69.03378641071944
 20
10.45695380321292
 10
69.0336930448691
 20
10.457067569830743
 10
68.96070687304915
 20
10.55547803037285
 10
68.96062510785953
 20
10.555600400626828
 10
68.89763629632682
 20
10.660690883748655
 10
68.89756691924117
 20
10.6608206791467
 10
68.8451820846841
 20
10.771579106047216
 10
68.84512576384195
 20
10.771715076588167
 10
68.80384940085361
 20
10.88707478306992
 10
68.80380667865518
 20
10.887215619283857
 10
68.77403630117534
 20
11.006065628310647
 10
68.77400758905891
 20
11.006209973867461
 10
68.75602990209666
 20
11.127405694883016
 10
68.75601547657566
 20
11.127552159655664
 10
68.75000361508401
 20
11.24992641161482
 10
68.75000361508401
 20
11.250073585067826
 10
68.75601547657566
 20
11.372447837026984
 10
68.75602990209666
 20
11.372594301799632
 10
68.77400758905891
 20
11.493790022815187
 10
68.77403630117534
 20
11.493934368372
 10
68.80380667865518
 20
11.61278437739879
 10
68.80384940085361
 20
11.612925213612728
 10
68.84512576384195
 20
11.72828492009448
 10
68.8451820846841
 20
11.72842089063543
 10
68.89756691924117
 20
11.839179317535947
 10
68.89763629632682
 20
11.839309112933993
 10
68.96062510785953
 20
11.944399596055819
 10
68.96070687304915
 20
11.944521966309797
 10
69.0336930448691
 20
12.042932426851905
 10
69.03378641071944
 20
12.043046193469728
 10
69.11606704609379
 20
12.133828884900637
 10
69.1161711134405
 20
12.133932952247354
 10
69.20695380487155
 20
12.21621358762182
 10
69.20706757148923
 20
12.216306953472056
 10
69.30547803203167
 20
12.289293125292238
 10
69.30560040228555
 20
12.28937489048179
 10
69.4106908854074
 20
12.352363702014529
 10
69.4108206808052
 20
12.352433079100049
 10
69.52157910770575
 20
12.404817913657133
 10
69.52171507824691
 20
12.404874234499374
 10
69.63707478472851
 20
12.446150597487655
 10
69.63721562094213
 20
12.446193319685985
 10
69.75606562996947
 20
12.475963697165952
 10
69.75620997552592
 20
12.475992409282306
 10
69.87740569654181
 20
12.493970096244624
 10
69.87755216131455
 20
12.493984521765633
 10
69.9999264132734
 20
12.499996383257265
 10
70.00007358672649
 20
12.499996383257265
 10
70.12244783868532
 20
12.493984521765633
 10
70.12259430345806
 20
12.493970096244624
 10
70.24379002447395
 20
12.475992409282307
 10
70.2439343700304
 20
12.475963697165954
 10
70.36278437905774
 20
12.446193319685987
 10
70.36292521527136
 20
12.446150597487657
 10
70.47828492175296
 20
12.404874234499378
 10
70.47842089229412
 20
12.404817913657137
 10
70.58917931919467
 20
12.352433079100052
 10
70.58930911459247
 20
12.352363702014532
 10
70.69439959771434
 20
12.289374890481795
 10
70.69452196796821
 20
12.289293125292243
 10
70.79293242851064
 20
12.21630695347206
 10
70.79304619512833
 20
12.216213587621823
 10
70.88382888655937
 20
12.13393295224736
 10
70.88393295390608
 20
12.133828884900643
 10
70.96621358928044
 20
12.043046193469733
 10
70.96630695513079
 20
12.04293242685191
 10
71.03929312695074
 20
11.944521966309804
 10
71.03937489214036
 20
11.944399596055826
 10
71.10236370367306
 20
11.839309112934
 10
71.10243308075871
 20
11.839179317535955
 10
71.15481791531579
 20
11.728420890635428
 10
71.15487423615794
 20
11.728284920094502
 10
71.19615059914635
 20
11.612925213612494
 10
71.19619332134464
 20
11.612784377399047
 10
71.22596369882454
 20
11.49393436837201
 10
71.22599241094098
 20
11.493790022815196
 10
71.24397009790323
 20
11.372594301799642
 10
71.24398452342423
 20
11.372447837026995
 10
71.24999638491587
 20
11.250073585067833
 10
71.24999638491587
 20
11.249926411614828
  0
LWPOLYLINE
  5
33
330
17
100
AcDbEntity
  8
0
100
AcDbPolyline
 90
129
 70
0
 10
-33.7500036150841
 20
-11.2500735856556
 10
-33.75601547657573
 20
-11.372447837614528
 10
-33.75602990209672
 20
-11.372594302387032
 10
-33.77400758905909
 20
-11.493790023403262
 10
-33.7740363011754
 20
-11.49393436895952
 10
-33.80380667865536
 20
-11.612784377986825
 10
-33.80384940085371
 20
-11.612925214200482
 10
-33.84512576384204
 20
-11.72828492068223
 10
-33.84518208468423
 20
-11.728420891223296
 10
-33.897566919241314
 20
-11.83917931812381
 10
-33.89763629632686
 20
-11.839309113521663
 10
-33.96062510785957
 20
-11.944399596643498
 10
-33.96070687304918
 20
-11.94452196689745
 10
-34.03369304486928
 20
-12.04293242743977
 10
-34.03378641071949
 20
-12.043046194057421
 10
-34.11606704609401
 20
-12.133828885488526
 10
-34.11617111344065
 20
-12.133932952835167
 10
-34.206953804871695
 20
-12.216213588209632
 10
-34.20706757148946
 20
-12.216306954059938
 10
-34.3054780320316
 20
-12.289293125879897
 10
-34.30560040228568
 20
-12.289374891069588
 10
-34.4106908854074
 20
-12.35236370260224
 10
-34.41082068080531
 20
-12.352433079687819
 10
-34.52157910770595
 20
-12.404817914244958
 10
-34.52171507824693
 20
-12.404874235087114
 10
-34.63707478472869
 20
-12.446150598075453
 10
-34.63721562094225
 20
-12.446193320273766
 10
-34.75606562996959
 20
-12.475963697753732
 10
-34.75620997552602
 20
-12.475992409870084
 10
-34.877405696541935
 20
-12.4939700968324
 10
-34.877552161314654
 20
-12.49398452235341
 10
-34.9999264132735
 20
-12.499996383845042
 10
-35.000073586726586
 20
-12.499996383845042
 10
-35.122447838685424
 20
-12.49398452235341
 10
-35.12259430345814
 20
-12.4939700968324
 10
-35.24379002447406
 20
-12.475992409870084
 10
-35.24393437003049
 20
-12.475963697753732
 10
-35.36278437905783
 20
-12.446193320273768
 10
-35.36292521527139
 20
-12.446150598075455
 10
-35.47828492175315
 20
-12.404874235087116
 10
-35.478420892294125
 20
-12.40481791424496
 10
-35.58917931919477
 20
-12.352433079687819
 10
-35.58930911459268
 20
-12.35236370260224
 10
-35.69439959771441
 20
-12.289374891069592
 10
-35.694521967968484
 20
-12.289293125879901
 10
-35.792932428510625
 20
-12.21630695405994
 10
-35.79304619512839
 20
-12.216213588209634
 10
-35.883828886559435
 20
-12.133932952835169
 10
-35.883932953906076
 20
-12.133828885488528
 10
-35.96621358928059
 20
-12.043046194057425
 10
-35.966306955130804
 20
-12.042932427439773
 10
-36.0392931269509
 20
-11.944521966897453
 10
-36.039374892140515
 20
-11.944399596643501
 10
-36.10236370367323
 20
-11.839309113521665
 10
-36.10243308075877
 20
-11.839179318123811
 10
-36.15481791531585
 20
-11.728420891223298
 10
-36.154874236158044
 20
-11.728284920682231
 10
-36.19615059914638
 20
-11.612925214200484
 10
-36.19619332134472
 20
-11.612784377986827
 10
-36.225963698824685
 20
-11.493934368959522
 10
-36.225992410941
 20
-11.493790023403264
 10
-36.243970097903365
 20
-11.372594302387034
 10
-36.24398452342435
 20
-11.37244783761453
 10
-36.24999638491598
 20
-11.250073585655606
 10
-36.24999638491598
 20
-11.249926412202601
 10
-36.24398452342435
 20
-11.127552160243676
 10
-36.243970097903365
 20
-11.127405695471172
 10
-36.225992410941
 20
-11.006209974454942
 10
-36.225963698824685
 20
-11.006065628898684
 10
-36.19619332134472
 20
-10.887215619871379
 10
-36.19615059914638
 20
-10.887074783657722
 10
-36.154874236158044
 20
-10.771715077175976
 10
-36.15481791531585
 20
-10.77157910663491
 10
-36.10243308075877
 20
-10.660820679734394
 10
-36.10236370367323
 20
-10.66069088433654
 10
-36.039374892140515
 20
-10.555600401214704
 10
-36.0392931269509
 20
-10.555478030960753
 10
-35.966306955130804
 20
-10.457067570418433
 10
-35.96621358928059
 20
-10.456953803800781
 10
-35.883932953906076
 20
-10.366171112369678
 10
-35.883828886559435
 20
-10.366067045023037
 10
-35.79304619512839
 20
-10.283786409648572
 10
-35.792932428510625
 20
-10.283693043798266
 10
-35.694521967968484
 20
-10.210706871978307
 10
-35.69439959771441
 20
-10.210625106788616
 10
-35.58930911459269
 20
-10.147636295255964
 10
-35.58917931919478
 20
-10.147566918170385
 10
-35.47842089229413
 20
-10.095182083613246
 10
-35.47828492175316
 20
-10.09512576277109
 10
-35.362925215271396
 20
-10.05384939978275
 10
-35.362784379057835
 20
-10.053806677584438
 10
-35.243934370030495
 20
-10.024036300104472
 10
-35.243790024474066
 20
-10.02400758798812
 10
-35.12259430345815
 20
-10.006029901025803
 10
-35.12244783868543
 20
-10.006015475504794
 10
-35.00007358672659
 20
-10.000003614013162
 10
-34.999926413273506
 20
-10.000003614013162
 10
-34.87755216131466
 20
-10.006015475504794
 10
-34.87740569654194
 20
-10.006029901025803
 10
-34.756209975526026
 20
-10.02400758798812
 10
-34.7560656299696
 20
-10.024036300104472
 10
-34.63721562094226
 20
-10.053806677584436
 10
-34.637074784728696
 20
-10.053849399782749
 10
-34.521715078246935
 20
-10.095125762771087
 10
-34.52157910770596
 20
-10.095182083613242
 10
-34.410820680805315
 20
-10.147566918170384
 10
-34.410690885407405
 20
-10.147636295255962
 10
-34.305600402285684
 20
-10.21062510678861
 10
-34.30547803203161
 20
-10.210706871978301
 10
-34.20706757148947
 20
-10.283693043798262
 10
-34.2069538048717
 20
-10.283786409648568
 10
-34.11617111344066
 20
-10.366067045023032
 10
-34.11606704609402
 20
-10.366171112369672
 10
-34.03378641071949
 20
-10.456953803800776
 10
-34.03369304486928
 20
-10.457067570418427
 10
-33.96070687304918
 20
-10.555478030960748
 10
-33.96062510785957
 20
-10.555600401214699
 10
-33.89763629632686
 20
-10.660690884336534
 10
-33.897566919241314
 20
-10.660820679734387
 10
-33.84518208468423
 20
-10.771579106634901
 10
-33.84512576384204
 20
-10.771715077175967
 10
-33.80384940085371
 20
-10.887074783657713
 10
-33.80380667865536
 20
-10.88721561987137
 10
-33.7740363011754
 20
-11.006065628898675
 10
-33.77400758905909
 20
-11.006209974454933
 10
-33.75602990209672
 20
-11.127405695471161
 10
-33.75601547657573
 20
-11.127552160243665
 10
-33.7500036150841
 20
-11.249926412202594
 10
-33.7500036150841
 20
-11.2500735856556
  0
LWPOLYLINE
  5
34
330
17
100
AcDbEntity
  8
0
100
AcDbPolyline
 90
129
 70
0
 10
71.2499963849159
 20
-11.250073585067813
 10
71.24398452342426
 20
-11.372447837026975
 10
71.24397009790326
 20
-11.372594301799623
 10
71.225992410941
 20
-11.493790022815178
 10
71.22596369882457
 20
-11.493934368371992
 10
71.19619332134474
 20
-11.612784377398782
 10
71.1961505991463
 20
-11.61292521361272
 10
71.15487423615797
 20
-11.728284920094472
 10
71.15481791531582
 20
-11.728420890635423
 10
71.10243308075874
 20
-11.839179317535939
 10
71.10236370367309
 20
-11.839309112933984
 10
71.03937489214039
 20
-11.94439959605581
 10
71.03929312695077
 20
-11.944521966309788
 10
70.96630695513082
 20
-12.042932426851895
 10
70.96621358928047
 20
-12.043046193469717
 10
70.88393295390613
 20
-12.133828884900629
 10
70.88382888655941
 20
-12.133932952247346
 10
70.79304619512837
 20
-12.21621358762181
 10
70.79293242851068
 20
-12.216306953472047
 10
70.69452196796824
 20
-12.289293125292229
 10
70.69439959771437
 20
-12.289374890481781
 10
70.58930911459251
 20
-12.352363702014522
 10
70.58917931919471
 20
-12.352433079100042
 10
70.47842089229417
 20
-12.404817913657125
 10
70.478284921753
 20
-12.404874234499365
 10
70.3629252152714
 20
-12.446150597487646
 10
70.36278437905779
 20
-12.446193319685976
 10
70.24393437003044
 20
-12.475963697165945
 10
70.243790024474
 20
-12.475992409282298
 10
70.12259430345809
 20
-12.493970096244615
 10
70.12244783868535
 20
-12.493984521765624
 10
70.00007358672651
 20
-12.499996383257256
 10
69.99992641327343
 20
-12.499996383257256
 10
69.8775521613146
 20
-12.493984521765624
 10
69.87740569654186
 20
-12.493970096244615
 10
69.75620997552595
 20
-12.475992409282298
 10
69.7560656299695
 20
-12.475963697165945
 10
69.63721562094216
 20
-12.446193319685978
 10
69.63707478472854
 20
-12.446150597487648
 10
69.52171507824694
 20
-12.404874234499367
 10
69.52157910770578
 20
-12.404817913657126
 10
69.41082068080523
 20
-12.352433079100042
 10
69.41069088540743
 20
-12.352363702014522
 10
69.30560040228558
 20
-12.289374890481785
 10
69.3054780320317
 20
-12.289293125292232
 10
69.20706757148928
 20
-12.21630695347205
 10
69.20695380487159
 20
-12.216213587621812
 10
69.11617111344054
 20
-12.133932952247347
 10
69.11606704609383
 20
-12.13382888490063
 10
69.03378641071947
 20
-12.04304619346972
 10
69.03369304486912
 20
-12.042932426851898
 10
68.96070687304918
 20
-11.944521966309791
 10
68.96062510785956
 20
-11.944399596055813
 10
68.89763629632685
 20
-11.839309112933986
 10
68.8975669192412
 20
-11.83917931753594
 10
68.84518208468413
 20
-11.728420890635425
 10
68.84512576384198
 20
-11.728284920094474
 10
68.80384940085364
 20
-11.612925213612721
 10
68.8038066786552
 20
-11.612784377398784
 10
68.77403630117537
 20
-11.493934368371994
 10
68.77400758905894
 20
-11.49379002281518
 10
68.75602990209669
 20
-11.372594301799625
 10
68.75601547657568
 20
-11.372447837026977
 10
68.75000361508404
 20
-11.25007358506782
 10
68.75000361508404
 20
-11.249926411614815
 10
68.75601547657568
 20
-11.127552159655657
 10
68.75602990209669
 20
-11.12740569488301
 10
68.77400758905894
 20
-11.006209973867454
 10
68.77403630117537
 20
-11.00606562831064
 10
68.8038066786552
 20
-10.88721561928385
 10
68.80384940085364
 20
-10.887074783069913
 10
68.84512576384198
 20
-10.771715076588162
 10
68.84518208468413
 20
-10.771579106047211
 10
68.8975669192412
 20
-10.660820679146694
 10
68.89763629632685
 20
-10.660690883748648
 10
68.96062510785956
 20
-10.55560040062682
 10
68.96070687304918
 20
-10.555478030372843
 10
69.03369304486912
 20
-10.457067569830736
 10
69.03378641071947
 20
-10.456953803212913
 10
69.11606704609382
 20
-10.366171111782004
 10
69.11617111344053
 20
-10.366067044435287
 10
69.20695380487157
 20
-10.283786409060822
 10
69.20706757148926
 20
-10.283693043210585
 10
69.3054780320317
 20
-10.210706871390403
 10
69.30560040228558
 20
-10.210625106200851
 10
69.41069088540743
 20
-10.14763629466811
 10
69.41082068080523
 20
-10.14756691758259
 10
69.52157910770578
 20
-10.095182083025508
 10
69.52171507824694
 20
-10.095125762183267
 10
69.63707478472854
 20
-10.053849399194986
 10
69.63721562094216
 20
-10.053806676996656
 10
69.7560656299695
 20
-10.024036299516688
 10
69.75620997552595
 20
-10.024007587400334
 10
69.87740569654184
 20
-10.006029900438017
 10
69.87755216131458
 20
-10.006015474917008
 10
69.99992641327343
 20
-10.000003613425376
 10
70.00007358672651
 20
-10.000003613425376
 10
70.12244783868535
 20
-10.006015474917008
 10
70.12259430345809
 20
-10.006029900438017
 10
70.24379002447398
 20
-10.024007587400334
 10
70.24393437003043
 20
-10.024036299516688
 10
70.36278437905777
 20
-10.053806676996654
 10
70.36292521527139
 20
-10.053849399194984
 10
70.47828492175299
 20
-10.095125762183264
 10
70.47842089229415
 20
-10.095182083025504
 10
70.5891793191947
 20
-10.147566917582589
 10
70.5893091145925
 20
-10.147636294668109
 10
70.69439959771437
 20
-10.210625106200846
 10
70.69452196796824
 20
-10.210706871390398
 10
70.79293242851067
 20
-10.283693043210581
 10
70.79304619512835
 20
-10.283786409060818
 10
70.8838288865594
 20
-10.366067044435281
 10
70.88393295390611
 20
-10.366171111781998
 10
70.96621358928047
 20
-10.456953803212908
 10
70.96630695513082
 20
-10.45706756983073
 10
71.03929312695077
 20
-10.555478030372837
 10
71.03937489214039
 20
-10.555600400626815
 10
71.10236370367309
 20
-10.660690883748641
 10
71.10243308075874
 20
-10.660820679146687
 10
71.15481791531582
 20
-10.771579106047213
 10
71.15487423615797
 20
-10.771715076588139
 10
71.19615059914638
 20
-10.887074783070148
 10
71.19619332134467
 20
-10.887215619283594
 10
71.22596369882457
 20
-11.006065628310632
 10
71.225992410941
 20
-11.006209973867445
 10
71.24397009790326
 20
-11.127405694882999
 10
71.24398452342426
 20
-11.127552159655647
 10
71.2499963849159
 20
-11.249926411614808
 10
71.2499963849159
 20
-11.250073585067813
  0
LWPOLYLINE
  5
35
330
17
100
AcDbEntity
  8
0
100
AcDbPolyline
 90
129
 70
0
 10
-47.7500036150644
 20
-3.750073590054987
 10
-47.75601547655604
 20
-3.872447842013914
 10
-47.756029902077024
 20
-3.8725943067864184
 10
-47.77400758903939
 20
-3.993790027802648
 10
-47.774036301155704
 20
-3.993934373358913
 10
-47.80380667863567
 20
-4.1127843823862085
 10
-47.80384940083401
 20
-4.11292521859986
 10
-47.84512576382236
 20
-4.228284925081641
 10
-47.84518208466454
 20
-4.228420895622685
 10
-47.8975669192216
 20
-4.339179322523174
 10
-47.897636296307155
 20
-4.33930911792104
 10
-47.9606251078399
 20
-4.444399601042914
 10
-47.96070687302948
 20
-4.444521971296824
 10
-48.033693044849564
 20
-4.5429324318391275
 10
-48.03378641069982
 20
-4.543046198456831
 10
-48.11606704607434
 20
-4.633828889887943
 10
-48.116171113420926
 20
-4.6339329572345305
 10
-48.206953804852034
 20
-4.716213592609053
 10
-48.20706757146975
 20
-4.716306958459316
 10
-48.3054780320119
 20
-4.789293130279284
 10
-48.30560040226595
 20
-4.789374895468959
 10
-48.410690885387716
 20
-4.8523637070016346
 10
-48.410820680785605
 20
-4.852433084087202
 10
-48.521579107686215
 20
-4.904817918644324
 10
-48.52171507822728
 20
-4.904874239486516
 10
-48.63707478470898
 20
-4.946150602474834
 10
-48.63721562092257
 20
-4.946193324673156
 10
-48.75606562994988
 20
-4.975963702153119
 10
-48.75620997550634
 20
-4.9759924142694745
 10
-48.877405696522246
 20
-4.99397010123179
 10
-48.87755216129494
 20
-4.993984526752795
 10
-48.99992641325378
 20
-4.999996388244429
 10
-49.00007358670691
 20
-4.999996388244429
 10
-49.12244783866574
 20
-4.993984526752796
 10
-49.12259430343844
 20
-4.993970101231791
 10
-49.24379002445435
 20
-4.975992414269475
 10
-49.243934370010805
 20
-4.97596370215312
 10
-49.36278437903812
 20
-4.946193324673157
 10
-49.36292521525171
 20
-4.946150602474835
 10
-49.478284921733405
 20
-4.904874239486518
 10
-49.47842089227447
 20
-4.9048179186443255
 10
-49.58917931917508
 20
-4.852433084087203
 10
-49.58930911457297
 20
-4.852363707001636
 10
-49.69439959769474
 20
-4.789374895468961
 10
-49.694521967948795
 20
-4.789293130279286
 10
-49.79293242849094
 20
-4.716306958459318
 10
-49.79304619510866
 20
-4.716213592609055
 10
-49.88382888653977
 20
-4.633932957234532
 10
-49.88393295388635
 20
-4.633828889887945
 10
-49.966213589260875
 20
-4.5430461984568336
 10
-49.96630695511113
 20
-4.54293243183913
 10
-50.03929312693121
 20
-4.444521971296827
 10
-50.03937489212079
 20
-4.4443996010429165
 10
-50.10236370365354
 20
-4.339309117921042
 10
-50.10243308073909
 20
-4.339179322523176
 10
-50.15481791529615
 20
-4.228420895622687
 10
-50.15487423613833
 20
-4.228284925081643
 10
-50.19615059912668
 20
-4.1129252185998615
 10
-50.196193321325026
 20
-4.11278438238621
 10
-50.22596369880499
 20
-3.9939343733589148
 10
-50.2259924109213
 20
-3.9937900278026497
 10
-50.24397009788367
 20
-3.87259430678642
 10
-50.243984523404656
 20
-3.8724478420139157
 10
-50.249996384896285
 20
-3.7500735900549933
 10
-50.249996384896285
 20
-3.7499264166019874
 10
-50.243984523404656
 20
-3.627552164643065
 10
-50.24397009788367
 20
-3.6274056998705606
 10
-50.2259924109213
 20
-3.5062099788543306
 10
-50.22596369880499
 20
-3.5060656332980655
 10
-50.196193321325026
 20
-3.387215624270774
 10
-50.19615059912668
 20
-3.3870747880571135
 10
-50.154874236138326
 20
-3.2717150815753313
 10
-50.15481791529616
 20
-3.271579111034307
 10
-50.10243308073908
 20
-3.1608206841337982
 10
-50.10236370365352
 20
-3.1606908887359313
 10
-50.039374892120804
 20
-3.055600405614071
 10
-50.03929312693122
 20
-3.0554780353601614
 10
-49.966306955111065
 20
-2.957067574817761
 10
-49.96621358926094
 20
-2.9569538082002125
 10
-49.883932953886365
 20
-2.866171116769046
 10
-49.88382888653976
 20
-2.866067049422445
 10
-49.793046195108666
 20
-2.7837864140479374
 10
-49.79293242849094
 20
-2.7836930481976623
 10
-49.694521967948766
 20
-2.710706876377677
 10
-49.69439959769474
 20
-2.710625111188018
 10
-49.58930911457299
 20
-2.647636299655351
 10
-49.5891793191751
 20
-2.6475669225697835
 10
-49.47842089227443
 20
-2.59518208801263
 10
-49.47828492173346
 20
-2.5951257671704764
 10
-49.36292521525172
 20
-2.5538494041821465
 10
-49.36278437903812
 20
-2.553806681983819
 10
-49.2439343700108
 20
-2.5240363045038583
 10
-49.24379002445438
 20
-2.524007592387509
 10
-49.12259430343843
 20
-2.5060299054251858
 10
-49.12244783866575
 20
-2.5060154799041823
 10
-49.000073586706904
 20
-2.5000036184125487
 10
-48.9999264132538
 20
-2.5000036184125487
 10
-48.87755216129495
 20
-2.5060154799041814
 10
-48.87740569652227
 20
-2.506029905425185
 10
-48.75620997550632
 20
-2.5240075923875076
 10
-48.7560656299499
 20
-2.524036304503857
 10
-48.63721562092258
 20
-2.553806681983817
 10
-48.63707478470898
 20
-2.5538494041821447
 10
-48.52171507822724
 20
-2.5951257671704737
 10
-48.52157910768627
 20
-2.5951820880126273
 10
-48.4108206807856
 20
-2.6475669225697804
 10
-48.41069088538771
 20
-2.647636299655348
 10
-48.30560040226596
 20
-2.7106251111880137
 10
-48.30547803201193
 20
-2.7107068763776727
 10
-48.20706757146976
 20
-2.783693048197658
 10
-48.206953804852034
 20
-2.783786414047933
 10
-48.11617111342095
 20
-2.866067049422432
 10
-48.11606704607433
 20
-2.866171116769051
 10
-48.03378641069982
 20
-2.956953808200131
 10
-48.03369304484957
 20
-2.9570675748178346
 10
-47.96070687302947
 20
-3.0554780353601547
 10
-47.96062510783989
 20
-3.055600405614064
 10
-47.89763629630717
 20
-3.160690888735922
 10
-47.89756691922161
 20
-3.160820684133789
 10
-47.84518208466453
 20
-3.2715791110343004
 10
-47.84512576382236
 20
-3.2717150815753246
 10
-47.80384940083401
 20
-3.387074788057104
 10
-47.80380667863567
 20
-3.3872156242707647
 10
-47.774036301155704
 20
-3.5060656332980553
 10
-47.77400758903939
 20
-3.5062099788543204
 10
-47.756029902077024
 20
-3.6274056998705495
 10
-47.75601547655604
 20
-3.627552164643054
 10
-47.7500036150644
 20
-3.7499264166019812
 10
-47.7500036150644
 20
-3.750073590054987
  0
LWPOLYLINE
  5
36
330
17
100
AcDbEntity
  8
0
100
AcDbPolyline
 90
129
 70
0
 10
26.249996384903547
 20
-3.7500735867265758
 10
26.243984523411918
 20
-3.872447838685394
 10
26.24397009789091
 20
-3.872594303458113
 10
26.225992410928598
 20
-3.9937900244739803
 10
26.22596369881224
 20
-3.9939343700304546
 10
26.196193321332263
 20
-4.112784379057829
 10
26.196150599133933
 20
-4.112925215271438
 10
26.15487423614565
 20
-4.228284921753046
 10
26.15481791530349
 20
-4.228420892294034
 10
26.102433080746298
 20
-4.339179319194791
 10
26.10236370366078
 20
-4.3393091145925835
 10
26.039374892128055
 20
-4.444399597714429
 10
26.0392931269384
 20
-4.444521967968453
 10
25.966306955118423
 20
-4.5429324285106185
 10
25.966213589268136
 20
-4.543046195128362
 10
25.88393295389367
 20
-4.633828886559407
 10
25.883828886546976
 20
-4.633932953906102
 10
25.793046195116002
 20
-4.716213589280505
 10
25.79293242849829
 20
-4.716306955130764
 10
25.694521967955982
 20
-4.789293126950848
 10
25.694399597702063
 20
-4.789374892140434
 10
25.589309114580146
 20
-4.852363703673202
 10
25.58917931918237
 20
-4.852433080758709
 10
25.478420892281736
 20
-4.90481791531584
 10
25.478284921740677
 20
-4.9048742361580295
 10
25.36292521525895
 20
-4.946150599146358
 10
25.362784379045365
 20
-4.946193321344682
 10
25.243934370018103
 20
-4.9759636988246285
 10
25.24379002446162
 20
-4.975992410940989
 10
25.122594303445712
 20
-4.993970097903307
 10
25.122447838673015
 20
-4.993984523424311
 10
25.000073586714166
 20
-4.999996384915945
 10
24.999926413261058
 20
-4.999996384915945
 10
24.877552161302205
 20
-4.993984523424311
 10
24.877405696529507
 20
-4.993970097903307
 10
24.756209975513602
 20
-4.97599241094099
 10
24.75606562995712
 20
-4.975963698824629
 10
24.637215620929858
 20
-4.9461933213446825
 10
24.637074784716273
 20
-4.946150599146359
 10
24.521715078234543
 20
-4.904874236158031
 10
24.521579107693483
 20
-4.904817915315842
 10
24.410820680792852
 20
-4.85243308075871
 10
24.410690885395077
 20
-4.852363703673204
 10
24.305600402273157
 20
-4.789374892140436
 10
24.305478032019238
 20
-4.78929312695085
 10
24.20706757147693
 20
-4.716306955130767
 10
24.206953804859218
 20
-4.716213589280508
 10
24.11617111342824
 20
-4.633932953906105
 10
24.116067046081547
 20
-4.633828886559409
 10
24.03378641070707
 20
-4.543046195128347
 10
24.033693044856808
 20
-4.542932428510637
 10
23.960706873036806
 20
-4.4445219679684405
 10
23.96062510784717
 20
-4.444399597714449
 10
23.897636296314435
 20
-4.339309114592585
 10
23.897566919228918
 20
-4.339179319194793
 10
23.845182084671727
 20
-4.228420892294037
 10
23.845125763829564
 20
-4.228284921753043
 10
23.80384940084129
 20
-4.112925215271446
 10
23.803806678642957
 20
-4.112784379057831
 10
23.774036301162976
 20
-3.9939343700304555
 10
23.77400758904662
 20
-3.99379002447398
 10
23.75602990208431
 20
-3.8725943034581167
 10
23.756015476563302
 20
-3.8724478386853964
 10
23.75000361507167
 20
-3.750073586726582
 10
23.75000361507167
 20
-3.7499264132734313
 10
23.7560154765633
 20
-3.6275521613146173
 10
23.756029902084308
 20
-3.6274056965418984
 10
23.77400758904662
 20
-3.5062099755260308
 10
23.774036301162976
 20
-3.5060656299695565
 10
23.803806678642953
 20
-3.3872156209421864
 10
23.803849400841287
 20
-3.387074784728568
 10
23.845125763829543
 20
-3.2717150782470275
 10
23.845182084671755
 20
-3.271579107705923
 10
23.89756691922892
 20
-3.160820680805217
 10
23.89763629631444
 20
-3.1606908854074165
 10
23.960625107847157
 20
-3.055600402285587
 10
23.960706873036816
 20
-3.055478032031559
 10
24.033693044856815
 20
-2.957067571489359
 10
24.03378641070706
 20
-2.956953804871671
 10
24.116067046081543
 20
-2.86617111344061
 10
24.11617111342824
 20
-2.8660670460939097
 10
24.2069538048592
 20
-2.7837864107195216
 10
24.207067571476937
 20
-2.7836930448692403
 10
24.305478032019224
 20
-2.710706873049169
 10
24.305600402273186
 20
-2.710625107859555
 10
24.410690885395052
 20
-2.6476362963268203
 10
24.41082068079284
 20
-2.647566919241306
 10
24.52157910769351
 20
-2.595182084684158
 10
24.52171507823452
 20
-2.595125763841987
 10
24.637074784716244
 20
-2.553849400853662
 10
24.63721562092988
 20
-2.5538066786553233
 10
24.756065629957117
 20
-2.524036301175381
 10
24.75620997551357
 20
-2.524007589059026
 10
24.877405696529515
 20
-2.5060299020967043
 10
24.877552161302212
 20
-2.506015476575699
 10
24.999926413261058
 20
-2.500003615084065
 10
25.00007358671415
 20
-2.500003615084065
 10
25.122447838672997
 20
-2.5060154765756986
 10
25.122594303445695
 20
-2.506029902096704
 10
25.24379002446164
 20
-2.524007589059025
 10
25.243934370018092
 20
-2.5240363011753795
 10
25.36278437904533
 20
-2.5538066786553215
 10
25.362925215258965
 20
-2.55384940085366
 10
25.47828492174069
 20
-2.5951257638419842
 10
25.478420892281704
 20
-2.595182084684155
 10
25.58917931918237
 20
-2.647566919241303
 10
25.589309114580157
 20
-2.647636296326817
 10
25.694399597702024
 20
-2.7106251078595514
 10
25.694521967955986
 20
-2.7107068730491655
 10
25.792932428498275
 20
-2.783693044869236
 10
25.793046195116013
 20
-2.783786410719517
 10
25.883828886546972
 20
-2.866067046093905
 10
25.88393295389367
 20
-2.866171113440605
 10
25.966213589268147
 20
-2.956953804871663
 10
25.966306955118387
 20
-2.957067571489347
 10
26.039293126938404
 20
-3.055478032031559
 10
26.03937489212806
 20
-3.0556004022855827
 10
26.10236370366077
 20
-3.160690885407407
 10
26.10243308074629
 20
-3.160820680805211
 10
26.154817915303457
 20
-3.271579107705912
 10
26.15487423614567
 20
-3.2717150782470203
 10
26.196150599133926
 20
-3.3870747847285587
 10
26.19619332133226
 20
-3.387215620942177
 10
26.225963698812237
 20
-3.5060656299695463
 10
26.225992410928594
 20
-3.5062099755260205
 10
26.243970097890905
 20
-3.6274056965418873
 10
26.243984523411914
 20
-3.6275521613146062
 10
26.249996384903547
 20
-3.749926413273425
 10
26.249996384903547
 20
-3.7500735867265758
  0
LWPOLYLINE
  5
37
330
17
100
AcDbEntity
  8
0
100
AcDbPolyline
 90
5
 70
0
 10
105.47592363336098
 20
-27.475923633360985
 10
-69.47592363336099
 20
-27.475923633360985
 10
-69.47592363336099
 20
27.475923633360985
 10
105.47592363336098
 20
27.475923633360985
 10
105.47592363336098
 20
-27.475923633360985
  0
LWPOLYLINE
  5
38
330
17
100
AcDbEntity
  8
0
100
AcDbPolyline
 90
133
 70
0
 10
-44.75000000000893
 20
-7.4499999979
 10
-44.05
 20
-7.4499999979
 10
-44.05
 20
-7.449999997870029
 10
-43.95
 20
-7.449999997870029
 10
-43.95
 20
-7.4499999978997495
 10
-40.39800762007859
 20
-7.449999997881945
 10
-38.663599293732005
 20
-7.449999997873251
 10
-37.95137946012987
 20
-7.449999997869681
 10
-36.632859358310284
 20
-7.449999997863072
 10
-24.049999999991122
 20
-7.449999997844695
 10
-24.049999999991122
 20
-7.449999997844681
 10
-23.94999999999112
 20
-7.449999997844562
 10
-23.94999999999112
 20
-7.449999997844722
 10
-21.036037961065162
 20
-7.449999997850553
 10
-19.536037968367417
 20
-2.949999991595452
 10
-4.463962046342489
 20
-2.9499999964890016
 10
-2.9639620390489334
 20
-7.4499999978469615
 10
-0.7499999999822028
 20
-7.449999997846966
 10
-0.05000000000000037
 20
-7.449999997846967
 10
-0.05000000000000037
 20
-7.449999997846149
 10
0.05
 20
-7.44999999784603
 10
0.05
 20
-7.449999997846968
 10
0.05
 20
-7.499999997846966
 10
0.05
 20
-7.549999997846966
 10
-0.05
 20
-7.549999997846966
 10
-0.05
 20
-7.5499999978
 10
-7.349513174485807
 20
-7.549999997824372
 10
-29.249999999999996
 20
-7.549999997897496
 10
-29.75
 20
-7.549999997899166
 10
-29.75
 20
-7.549999997852508
 10
-30.25
 20
-7.549999997852508
 10
-30.25
 20
-7.5499999979
 10
-30.750000000000004
 20
-7.5499999979
 10
-39.95
 20
-7.5499999979
 10
-39.95
 20
-14.95
 10
-30.750000000000004
 20
-14.95
 10
-30.25
 20
-14.95
 10
-30.25
 20
-14.950000000000008
 10
-29.75
 20
-14.950000000000008
 10
-29.75
 20
-14.95
 10
-29.249999999999996
 20
-14.95
 10
-0.7499999999999992
 20
-14.95
 10
-0.24999999999999922
 20
-14.95
 10
-0.24999999999999922
 20
-14.950000000000001
 10
0.2500000000000007
 20
-14.950000000000001
 10
0.2500000000000007
 20
-14.95
 10
0.7500000000000008
 20
-14.95
 10
0.7500000000001175
 20
-14.95
 10
2.049999999999997
 20
-14.95
 10
2.049999999999997
 20
-14.950000000698491
 10
17.950000298023223
 20
-14.950000222818925
 10
17.950000298023223
 20
-14.95
 10
19.249999999999996
 20
-14.95
 10
19.75
 20
-14.95
 10
19.75
 20
-14.950000000000006
 10
20.25
 20
-14.950000000000006
 10
20.25
 20
-14.95
 10
20.750000000000004
 20
-14.95
 10
49.25000000000001
 20
-14.95
 10
49.95
 20
-14.95
 10
49.95
 20
-14.949999999999996
 10
50.05
 20
-14.949999999999996
 10
50.05
 20
-14.95
 10
50.74999999999999
 20
-14.95
 10
89.95
 20
-14.95
 10
89.95
 20
14.95
 10
50.74999999999999
 20
14.95
 10
50.05
 20
14.95
 10
50.05
 20
14.949999999999996
 10
49.95
 20
14.949999999999996
 10
49.95
 20
14.95
 10
49.25000000000001
 20
14.95
 10
20.750000000000004
 20
14.95
 10
20.25
 20
14.95
 10
20.05
 20
14.95
 10
19.95
 20
14.95
 10
19.75
 20
14.95
 10
19.249999999999996
 20
14.95
 10
17.950000298023223
 20
14.95
 10
17.950000298023223
 20
14.950000222818925
 10
2.0499999999999994
 20
14.950000000698491
 10
2.0499999999999994
 20
14.95
 10
0.7500000000000008
 20
14.95
 10
0.2500000000000007
 20
14.95
 10
0.05
 20
14.95
 10
-0.05
 20
14.95
 10
-0.24999999999999922
 20
14.95
 10
-0.7499999999999963
 20
14.95
 10
-0.7499999999999992
 20
14.95
 10
-29.249999999999996
 20
14.95
 10
-29.75
 20
14.95
 10
-29.75
 20
14.950000000000001
 10
-30.25
 20
14.950000000000001
 10
-30.25
 20
14.95
 10
-30.750000000000004
 20
14.95
 10
-39.95
 20
14.95
 10
-39.95
 20
7.5499999912544995
 10
-30.750000000000004
 20
7.5500000012825
 10
-30.05
 20
7.5500000020455005
 10
-30.05
 20
7.550000002117622
 10
-29.95
 20
7.550000002117622
 10
-29.95
 20
7.549999991218364
 10
-29.249999999999996
 20
7.549999991475459
 10
-10.593140797031642
 20
7.549999998327728
 10
-0.17705578021360502
 20
7.550000002153335
 10
0.05
 20
7.550000002153335
 10
0.05
 20
7.500000002153334
 10
0.05
 20
7.4500000022
 10
0.05
 20
7.450000002153395
 10
-0.04999999999999945
 20
7.450000002153276
 10
-0.04999999999999945
 20
7.45000000215328
 10
-2.9639620389090147
 20
7.450000002150087
 10
-4.463962029580577
 20
2.9499999952250486
 10
-19.536037951605312
 20
2.950000001475463
 10
-19.546493715745303
 20
2.9813672937047313
 10
-21.036037960936515
 20
7.450000002130258
 10
-23.250000000008882
 20
7.4500000021261545
 10
-23.250000000008882
 20
7.449999993966311
 10
-23.95000000000888
 20
7.449999991427014
 10
-23.95000000000888
 20
7.4499999912456945
 10
-24.050000000008882
 20
7.449999991245575
 10
-24.050000000008882
 20
7.449999991245635
 10
-41.94999999999107
 20
7.449999991245643
 10
-41.94999999999107
 20
7.4499999912
 10
-43.250000000008946
 20
7.4499999912
 10
-43.75000000000894
 20
7.4499999912
 10
-43.75000000000894
 20
7.449999991245645
 10
-44.25000000000894
 20
7.449999991245645
 10
-44.25000000000894
 20
7.4499999912
 10
-44.75000000000893
 20
7.4499999912
 10
-53.95
 20
7.4499999912
 10
-53.95
 20
-7.4499999979
 10
-44.75000000000893
 20
-7.4499999979
  0
ENDSEC
  0
SECTION
  2
OBJECTS
  0
DICTIONARY
  5
A
330
0
100
AcDbDictionary
281
1
  3
ACAD_COLOR
350
B
  3
ACAD_GROUP
350
C
  3
ACAD_LAYOUT
350
D
  3
ACAD_MATERIAL
350
E
  3
ACAD_MLEADERSTYLE
350
F
  3
ACAD_MLINESTYLE
350
10
  3
ACAD_PLOTSETTINGS
350
11
  3
ACAD_PLOTSTYLENAME
350
12
  3
ACAD_SCALELIST
350
14
  3
ACAD_TABLESTYLE
350
15
  3
ACAD_VISUALSTYLE
350
16
  3
EZDXF_META
350
2D
  0
DICTIONARY
  5
B
330
A
100
AcDbDictionary
281
1
  0
DICTIONARY
  5
C
330
A
100
AcDbDictionary
281
1
  0
DICTIONARY
  5
D
330
A
100
AcDbDictionary
281
1
  3
Model
350
1A
  3
Layout1
350
1E
  0
DICTIONARY
  5
E
330
A
100
AcDbDictionary
281
1
  3
ByBlock
350
1F
  3
ByLayer
350
20
  3
Global
350
21
  0
DICTIONARY
  5
F
330
A
100
AcDbDictionary
281
1
  3
Standard
350
2C
  0
DICTIONARY
  5
10
330
A
100
AcDbDictionary
281
1
  3
Standard
350
22
  0
DICTIONARY
  5
11
330
A
100
AcDbDictionary
281
1
  0
ACDBDICTIONARYWDFLT
  5
12
330
A
100
AcDbDictionary
281
1
  3
Normal
350
13
100
AcDbDictionaryWithDefault
340
13
  0
ACDBPLACEHOLDER
  5
13
330
12
  0
DICTIONARY
  5
14
330
A
100
AcDbDictionary
281
1
  0
DICTIONARY
  5
15
330
A
100
AcDbDictionary
281
1
  0
DICTIONARY
  5
16
330
A
100
AcDbDictionary
281
1
  0
LAYOUT
  5
1A
330
D
100
AcDbPlotSettings
  1

  2
Adobe PDF
  4
A3
  6

 40
7.5
 41
20.0
 42
7.5
 43
20.0
 44
420.0
 45
297.0
 46
0.0
 47
0.0
 48
0.0
 49
0.0
140
0.0
141
0.0
142
1.0
143
1.0
 70
1024
 72
1
 73
1
 74
5
  7

 75
16
 76
0
 77
2
 78
300
147
1.0
148
0.0
149
0.0
100
AcDbLayout
  1
Model
 70
1
 71
0
 10
0.0
 20
0.0
 11
420.0
 21
297.0
 12
0.0
 22
0.0
 32
0.0
 14
1e+20
 24
1e+20
 34
1e+20
 15
-1e+20
 25
-1e+20
 35
-1e+20
146
0.0
 13
0.0
 23
0.0
 33
0.0
 16
1.0
 26
0.0
 36
0.0
 17
0.0
 27
1.0
 37
0.0
 76
1
330
17
  0
LAYOUT
  5
1E
330
D
100
AcDbPlotSettings
  1

  2
Adobe PDF
  4
A3
  6

 40
7.5
 41
20.0
 42
7.5
 43
20.0
 44
420.0
 45
297.0
 46
0.0
 47
0.0
 48
0.0
 49
0.0
140
0.0
141
0.0
142
1.0
143
1.0
 70
0
 72
1
 73
1
 74
5
  7

 75
16
 76
0
 77
2
 78
300
147
1.0
148
0.0
149
0.0
100
AcDbLayout
  1
Layout1
 70
1
 71
1
 10
0.0
 20
0.0
 11
420.0
 21
297.0
 12
0.0
 22
0.0
 32
0.0
 14
1e+20
 24
1e+20
 34
1e+20
 15
-1e+20
 25
-1e+20
 35
-1e+20
146
0.0
 13
0.0
 23
0.0
 33
0.0
 16
1.0
 26
0.0
 36
0.0
 17
0.0
 27
1.0
 37
0.0
 76
1
330
1B
  0
MATERIAL
  5
1F
102
{ACAD_REACTORS
330
E
102
}
330
E
100
AcDbMaterial
  1
ByBlock
  2

 70
0
 40
1.0
 71
1
 41
1.0
 91
-1023410177
 42
1.0
 72
1
  3

 73
1
 74
1
 75
1
 44
0.5
 73
0
 45
1.0
 46
1.0
 77
1
  4

 78
1
 79
1
170
1
 48
1.0
171
1
  6

172
1
173
1
174
1
140
1.0
141
1.0
175
1
  7

176
1
177
1
178
1
143
1.0
179
1
  8

270
1
271
1
272
1
145
1.0
146
1.0
273
1
  9

274
1
275
1
276
1
 42
1.0
 72
1
  3

 73
1
 74
1
 75
1
 94
63
  0
MATERIAL
  5
20
102
{ACAD_REACTORS
330
E
102
}
330
E
100
AcDbMaterial
  1
ByLayer
  2

 70
0
 40
1.0
 71
1
 41
1.0
 91
-1023410177
 42
1.0
 72
1
  3

 73
1
 74
1
 75
1
 44
0.5
 73
0
 45
1.0
 46
1.0
 77
1
  4

 78
1
 79
1
170
1
 48
1.0
171
1
  6

172
1
173
1
174
1
140
1.0
141
1.0
175
1
  7

176
1
177
1
178
1
143
1.0
179
1
  8

270
1
271
1
272
1
145
1.0
146
1.0
273
1
  9

274
1
275
1
276
1
 42
1.0
 72
1
  3

 73
1
 74
1
 75
1
 94
63
  0
MATERIAL
  5
21
102
{ACAD_REACTORS
330
E
102
}
330
E
100
AcDbMaterial
  1
Global
  2

 70
0
 40
1.0
 71
1
 41
1.0
 91
-1023410177
 42
1.0
 72
1
  3

 73
1
 74
1
 75
1
 44
0.5
 73
0
 45
1.0
 46
1.0
 77
1
  4

 78
1
 79
1
170
1
 48
1.0
171
1
  6

172
1
173
1
174
1
140
1.0
141
1.0
175
1
  7

176
1
177
1
178
1
143
1.0
179
1
  8

270
1
271
1
272
1
145
1.0
146
1.0
273
1
  9

274
1
275
1
276
1
 42
1.0
 72
1
  3

 73
1
 74
1
 75
1
 94
63
  0
MLINESTYLE
  5
22
102
{ACAD_REACTORS
330
10
102
}
330
10
100
AcDbMlineStyle
  2
Standard
 70
0
  3

 62
256
 51
90.0
 52
90.0
 71
2
 49
0.5
 62
256
  6
BYLAYER
 49
-0.5
 62
256
  6
BYLAYER
  0
MLEADERSTYLE
  5
2C
102
{ACAD_REACTORS
330
F
102
}
330
F
100
AcDbMLeaderStyle
179
2
170
2
171
1
172
0
 90
2
 40
0.0
 41
0.0
173
1
 91
-1056964608
 92
-2
290
1
 42
2.0
291
1
 43
8.0
  3
Standard
 44
4.0
300

342
29
174
1
175
1
176
0
178
1
 93
-1056964608
 45
4.0
292
0
297
0
 46
4.0
 94
-1056964608
 47
1.0
 49
1.0
140
1.0
294
1
141
0.0
177
0
142
1.0
295
0
296
0
143
3.75
271
0
272
9
273
9
  0
DICTIONARY
  5
2D
330
A
100
AcDbDictionary
281
1
  3
CREATED_BY_EZDXF
350
2E
  3
WRITTEN_BY_EZDXF
350
3B
  0
DICTIONARYVAR
  5
2E
330
2D
100
DictionaryVariables
280
0
  1
0.16.5 @ 2021-08-18T23:05:06.724970+00:00
  0
DICTIONARYVAR
  5
3B
330
2D
100
DictionaryVariables
280
0
  1
0.16.5 @ 2021-08-18T23:05:06.729969+00:00
  0
ENDSEC
  0
EOF
